<?xml version="1.0" encoding="utf-8"?>
<!-- Generator: Adobe Illustrator 26.1.0, SVG Export Plug-In . SVG Version: 6.00 Build 0)  -->
<svg version="1.1" id="Calque_1" xmlns="http://www.w3.org/2000/svg" xmlns:xlink="http://www.w3.org/1999/xlink" x="0px" y="0px"
	 viewBox="0 0 253 272.2" style="enable-background:new 0 0 253 272.2;" xml:space="preserve">
<style type="text/css">
	.st0{clip-path:url(#SVGID_00000042715970075836123160000011693547270271823786_);fill:#2E3192;}
	.st1{clip-path:url(#SVGID_00000000903891224096208790000015449119221315527603_);fill:#2E3192;}
	.st2{clip-path:url(#SVGID_00000124139587848545967960000017444506097294702496_);fill:#1B1464;}
	.st3{clip-path:url(#SVGID_00000021806023126152509290000000245910381593372059_);fill:#1B1464;}
	.st4{clip-path:url(#SVGID_00000098937852819405519150000001968115386208033952_);fill:#1B1464;}
	.st5{clip-path:url(#SVGID_00000088100299742115304250000003677030432521888650_);fill:#0071BC;}
	.st6{clip-path:url(#SVGID_00000100352825543019616720000017151031231593753747_);fill:#0071BC;}
	.st7{clip-path:url(#SVGID_00000128474044892628653590000009168487281042007432_);fill:#0071BC;}
	.st8{clip-path:url(#SVGID_00000130634132457000471110000012067526452152047251_);fill:#0071BC;}
	.st9{clip-path:url(#SVGID_00000133498720750187398240000003204874813963335821_);fill:#0071BC;}
	.st10{clip-path:url(#SVGID_00000081622256242889873060000016288774200654886053_);fill:#0071BC;}
	.st11{clip-path:url(#SVGID_00000120545593499781356920000004209873868510753684_);fill:#0071BC;}
	.st12{clip-path:url(#SVGID_00000153706974883474087950000017959118421152818062_);fill:#2E3192;}
	.st13{clip-path:url(#SVGID_00000002369229269957878440000011481968714953284505_);fill:#2E3192;}
	.st14{clip-path:url(#SVGID_00000146498885254339800630000010989584849863541681_);fill:#2E3192;}
	.st15{clip-path:url(#SVGID_00000016778417255493842550000007526333745569856416_);fill:#2E3192;}
	.st16{clip-path:url(#SVGID_00000093898237618498840510000004979195289011210908_);fill:#2E3192;}
	.st17{clip-path:url(#SVGID_00000109747858100316155370000001500833983018940084_);fill:#2E3192;}
	.st18{clip-path:url(#SVGID_00000053520408788548208080000010361978169699418029_);fill:#2E3192;}
	.st19{clip-path:url(#SVGID_00000006667076825398412470000009345675537133519496_);fill:#2E3192;}
	.st20{clip-path:url(#SVGID_00000174592019578736672620000003539981203905064888_);fill:#2E3192;}
	.st21{clip-path:url(#SVGID_00000067958333322920756120000011062196657830177442_);fill:#2E3192;}
	.st22{clip-path:url(#SVGID_00000011727228481196238440000018098322678077823413_);fill:#29ABE2;}
	.st23{clip-path:url(#SVGID_00000038402794188596956550000009738463055798613150_);fill:#29ABE2;}
	.st24{clip-path:url(#SVGID_00000107587238140769757510000011586978028688891796_);fill:#29ABE2;}
	.st25{clip-path:url(#SVGID_00000124148058709279975480000001388738566022004638_);fill:#29ABE2;}
	.st26{clip-path:url(#SVGID_00000144299848414056494430000016960683394055947438_);fill:#29ABE2;}
	.st27{clip-path:url(#SVGID_00000070084002108167322640000005439137234279980221_);fill:#29ABE2;}
	.st28{clip-path:url(#SVGID_00000054255220242308682370000013554616409869365125_);fill:#29ABE2;}
	.st29{clip-path:url(#SVGID_00000165948873684471914840000013758726653960944779_);fill:#29ABE2;}
	.st30{clip-path:url(#SVGID_00000012473586966914240760000016111678016397692330_);fill:#29ABE2;}
	.st31{clip-path:url(#SVGID_00000037693361335021121190000009285602558477053583_);fill:#29ABE2;}
	.st32{clip-path:url(#SVGID_00000057141985493067156390000000718614104089872538_);fill:#29ABE2;}
	.st33{clip-path:url(#SVGID_00000086690262100889861430000006585458743866160815_);fill:#29ABE2;}
	.st34{clip-path:url(#SVGID_00000056387164187958573490000013539830830815451028_);fill:#29ABE2;}
	.st35{clip-path:url(#SVGID_00000160174305271114571550000017550406529009167242_);fill:#2E3192;}
	.st36{clip-path:url(#SVGID_00000023973240262918932730000005933017630219639705_);fill:#1B1464;}
	.st37{clip-path:url(#SVGID_00000160905170761702017990000016713506315050829211_);fill:#1B1464;}
	.st38{clip-path:url(#SVGID_00000181059042521635080490000008276292065535188368_);fill:#2E3192;}
	.st39{clip-path:url(#SVGID_00000018228016908176533350000010318238943470065326_);fill:#1B1464;}
	.st40{clip-path:url(#SVGID_00000053520528899787495060000000375515385852232843_);fill:#1B1464;}
	.st41{clip-path:url(#SVGID_00000162323314553765127960000007742796864391958185_);fill:#1B1464;}
	.st42{clip-path:url(#SVGID_00000070088565224182556560000015212542699589189026_);fill:#1B1464;}
	.st43{clip-path:url(#SVGID_00000043427473962187616240000004761565475685025953_);fill:#1B1464;}
	.st44{clip-path:url(#SVGID_00000122709141483109220530000003030956844269334436_);fill:#00A99D;}
	.st45{clip-path:url(#SVGID_00000080924662633245372080000002545753365903062975_);fill:#00A99D;}
	.st46{clip-path:url(#SVGID_00000124131245301622066580000006207573673746350764_);fill:#00A99D;}
	.st47{clip-path:url(#SVGID_00000093866345128377413580000013843187664087319220_);fill:#29ABE2;}
	.st48{clip-path:url(#SVGID_00000004529710053175785890000015758420290401642147_);fill:#2E3192;}
	.st49{clip-path:url(#SVGID_00000052826318145599176340000000247496938633555847_);fill:#2E3192;}
</style>
<g>
	<g>
		<g>
			<g>
				<defs>
					<rect id="SVGID_1_" y="41.2" width="253" height="231"/>
				</defs>
				<clipPath id="SVGID_00000175296391469750129380000005749602980583169206_">
					<use xlink:href="#SVGID_1_"  style="overflow:visible;"/>
				</clipPath>
				
					<rect x="7" y="265.2" style="clip-path:url(#SVGID_00000175296391469750129380000005749602980583169206_);fill:#2E3192;" width="117" height="7"/>
			</g>
		</g>
		<g>
			<g>
				<defs>
					<rect id="SVGID_00000063593411685791559810000001135388803515531422_" y="41.2" width="253" height="231"/>
				</defs>
				<clipPath id="SVGID_00000110451310809937352310000007371472710820894882_">
					<use xlink:href="#SVGID_00000063593411685791559810000001135388803515531422_"  style="overflow:visible;"/>
				</clipPath>
				
					<rect x="133" y="265.2" style="clip-path:url(#SVGID_00000110451310809937352310000007371472710820894882_);fill:#2E3192;" width="113" height="7"/>
			</g>
		</g>
		<g>
			<g>
				<defs>
					<rect id="SVGID_00000042719473564808659260000016762083668343482547_" y="41.2" width="253" height="231"/>
				</defs>
				<clipPath id="SVGID_00000171707629583716454420000004703308369917695906_">
					<use xlink:href="#SVGID_00000042719473564808659260000016762083668343482547_"  style="overflow:visible;"/>
				</clipPath>
				<polygon style="clip-path:url(#SVGID_00000171707629583716454420000004703308369917695906_);fill:#1B1464;" points="0,265.2 
					7,272.2 7,265.2 				"/>
			</g>
		</g>
		<g>
			<g>
				<defs>
					<rect id="SVGID_00000178173243021478325380000016506070590031423411_" y="41.2" width="253" height="231"/>
				</defs>
				<clipPath id="SVGID_00000177485774821284044820000009649870667316404393_">
					<use xlink:href="#SVGID_00000178173243021478325380000016506070590031423411_"  style="overflow:visible;"/>
				</clipPath>
				<polygon style="clip-path:url(#SVGID_00000177485774821284044820000009649870667316404393_);fill:#1B1464;" points="246,265.2 
					246,272.2 253,265.2 				"/>
			</g>
		</g>
		<g>
			<g>
				<defs>
					<rect id="SVGID_00000026860879151092463570000013406384644509857187_" y="41.2" width="253" height="231"/>
				</defs>
				<clipPath id="SVGID_00000143598813948230763350000006287580517605373076_">
					<use xlink:href="#SVGID_00000026860879151092463570000013406384644509857187_"  style="overflow:visible;"/>
				</clipPath>
				
					<rect x="11" y="41.2" style="clip-path:url(#SVGID_00000143598813948230763350000006287580517605373076_);fill:#1B1464;" width="232" height="231"/>
			</g>
		</g>
		<g>
			<g>
				<defs>
					<rect id="SVGID_00000132792886443617172950000011747695998194343067_" y="41.2" width="253" height="231"/>
				</defs>
				<clipPath id="SVGID_00000091006325838909884590000017934196120162702014_">
					<use xlink:href="#SVGID_00000132792886443617172950000011747695998194343067_"  style="overflow:visible;"/>
				</clipPath>
				
					<rect x="7" y="41.2" style="clip-path:url(#SVGID_00000091006325838909884590000017934196120162702014_);fill:#0071BC;" width="117" height="74"/>
			</g>
		</g>
		<g>
			<g>
				<defs>
					<rect id="SVGID_00000043443617451149517140000007653667747143740335_" y="41.2" width="253" height="231"/>
				</defs>
				<clipPath id="SVGID_00000183952667209615644600000014861558443312908198_">
					<use xlink:href="#SVGID_00000043443617451149517140000007653667747143740335_"  style="overflow:visible;"/>
				</clipPath>
				
					<rect x="7" y="122.2" style="clip-path:url(#SVGID_00000183952667209615644600000014861558443312908198_);fill:#0071BC;" width="70" height="67"/>
			</g>
		</g>
		<g>
			<g>
				<defs>
					<rect id="SVGID_00000000219140850576817680000014254935433852237204_" y="41.2" width="253" height="231"/>
				</defs>
				<clipPath id="SVGID_00000157996118425364779750000007383407956516853912_">
					<use xlink:href="#SVGID_00000000219140850576817680000014254935433852237204_"  style="overflow:visible;"/>
				</clipPath>
				
					<rect x="80" y="122.2" style="clip-path:url(#SVGID_00000157996118425364779750000007383407956516853912_);fill:#0071BC;" width="93" height="67"/>
			</g>
		</g>
		<g>
			<g>
				<defs>
					<rect id="SVGID_00000102541013900654899310000003620109995442732958_" y="41.2" width="253" height="231"/>
				</defs>
				<clipPath id="SVGID_00000118385177132313330730000010922846653809064588_">
					<use xlink:href="#SVGID_00000102541013900654899310000003620109995442732958_"  style="overflow:visible;"/>
				</clipPath>
				
					<rect x="127" y="41.2" style="clip-path:url(#SVGID_00000118385177132313330730000010922846653809064588_);fill:#0071BC;" width="119" height="74"/>
			</g>
		</g>
		<g>
			<g>
				<defs>
					<rect id="SVGID_00000178920900093458043500000004188639451679628476_" y="41.2" width="253" height="231"/>
				</defs>
				<clipPath id="SVGID_00000024690149750511833030000014834920352648571789_">
					<use xlink:href="#SVGID_00000178920900093458043500000004188639451679628476_"  style="overflow:visible;"/>
				</clipPath>
				
					<rect x="178" y="122.2" style="clip-path:url(#SVGID_00000024690149750511833030000014834920352648571789_);fill:#0071BC;" width="68" height="67"/>
			</g>
		</g>
		<g>
			<g>
				<defs>
					<rect id="SVGID_00000145750488801553654670000003152192940664722604_" y="41.2" width="253" height="231"/>
				</defs>
				<clipPath id="SVGID_00000140714333515314546960000008752540366293720238_">
					<use xlink:href="#SVGID_00000145750488801553654670000003152192940664722604_"  style="overflow:visible;"/>
				</clipPath>
				
					<rect x="7" y="198.2" style="clip-path:url(#SVGID_00000140714333515314546960000008752540366293720238_);fill:#0071BC;" width="117" height="74"/>
			</g>
		</g>
		<g>
			<g>
				<defs>
					<rect id="SVGID_00000096021114352769961560000004243572560737901999_" y="41.2" width="253" height="231"/>
				</defs>
				<clipPath id="SVGID_00000178920301985519949850000001599766021148312970_">
					<use xlink:href="#SVGID_00000096021114352769961560000004243572560737901999_"  style="overflow:visible;"/>
				</clipPath>
				
					<rect x="127" y="198.2" style="clip-path:url(#SVGID_00000178920301985519949850000001599766021148312970_);fill:#0071BC;" width="119" height="74"/>
			</g>
		</g>
		<g>
			<g>
				<defs>
					<rect id="SVGID_00000142158033131670050280000005221814416108535729_" y="41.2" width="253" height="231"/>
				</defs>
				<clipPath id="SVGID_00000116208239610326390580000009732198007293179264_">
					<use xlink:href="#SVGID_00000142158033131670050280000005221814416108535729_"  style="overflow:visible;"/>
				</clipPath>
				
					<rect y="48.2" style="clip-path:url(#SVGID_00000116208239610326390580000009732198007293179264_);fill:#2E3192;" width="7" height="60"/>
			</g>
		</g>
		<g>
			<g>
				<defs>
					<rect id="SVGID_00000003081221159046728600000012618381144360435377_" y="41.2" width="253" height="231"/>
				</defs>
				<clipPath id="SVGID_00000168795768626903310300000006910268981269705911_">
					<use xlink:href="#SVGID_00000003081221159046728600000012618381144360435377_"  style="overflow:visible;"/>
				</clipPath>
				
					<rect x="80" y="122.2" style="clip-path:url(#SVGID_00000168795768626903310300000006910268981269705911_);fill:#2E3192;" width="6" height="67"/>
			</g>
		</g>
		<g>
			<g>
				<defs>
					<rect id="SVGID_00000088129405854692664010000009187459175176368295_" y="41.2" width="253" height="231"/>
				</defs>
				<clipPath id="SVGID_00000150782985910602148490000011077922420909599647_">
					<use xlink:href="#SVGID_00000088129405854692664010000009187459175176368295_"  style="overflow:visible;"/>
				</clipPath>
				
					<rect x="127" y="41.2" style="clip-path:url(#SVGID_00000150782985910602148490000011077922420909599647_);fill:#2E3192;" width="7" height="74"/>
			</g>
		</g>
		<g>
			<g>
				<defs>
					<rect id="SVGID_00000054963889457459163300000009198271843479690149_" y="41.2" width="253" height="231"/>
				</defs>
				<clipPath id="SVGID_00000085249700503893522300000011020065211911331245_">
					<use xlink:href="#SVGID_00000054963889457459163300000009198271843479690149_"  style="overflow:visible;"/>
				</clipPath>
				
					<rect y="205.2" style="clip-path:url(#SVGID_00000085249700503893522300000011020065211911331245_);fill:#2E3192;" width="7" height="60"/>
			</g>
		</g>
		<g>
			<g>
				<defs>
					<rect id="SVGID_00000124139497985580452030000014587960677607198361_" y="41.2" width="253" height="231"/>
				</defs>
				<clipPath id="SVGID_00000140700717345804481970000012535455037730441096_">
					<use xlink:href="#SVGID_00000124139497985580452030000014587960677607198361_"  style="overflow:visible;"/>
				</clipPath>
				
					<rect y="129.2" style="clip-path:url(#SVGID_00000140700717345804481970000012535455037730441096_);fill:#2E3192;" width="7" height="53"/>
			</g>
		</g>
		<g>
			<g>
				<defs>
					<rect id="SVGID_00000165226718430374553410000007599459903567315883_" y="41.2" width="253" height="231"/>
				</defs>
				<clipPath id="SVGID_00000094605409109628287580000004649862403070022069_">
					<use xlink:href="#SVGID_00000165226718430374553410000007599459903567315883_"  style="overflow:visible;"/>
				</clipPath>
				
					<rect x="127" y="198.2" style="clip-path:url(#SVGID_00000094605409109628287580000004649862403070022069_);fill:#2E3192;" width="6" height="74"/>
			</g>
		</g>
		<g>
			<g>
				<defs>
					<rect id="SVGID_00000120550493686465443870000006344302945461254044_" y="41.2" width="253" height="231"/>
				</defs>
				<clipPath id="SVGID_00000101801898030925665990000007218828405803901590_">
					<use xlink:href="#SVGID_00000120550493686465443870000006344302945461254044_"  style="overflow:visible;"/>
				</clipPath>
				
					<rect x="178" y="122.2" style="clip-path:url(#SVGID_00000101801898030925665990000007218828405803901590_);fill:#2E3192;" width="6" height="67"/>
			</g>
		</g>
		<g>
			<g>
				<defs>
					<rect id="SVGID_00000087387078543448062550000015258183496949861563_" y="41.2" width="253" height="231"/>
				</defs>
				<clipPath id="SVGID_00000021093160245065280570000006537598255122996660_">
					<use xlink:href="#SVGID_00000087387078543448062550000015258183496949861563_"  style="overflow:visible;"/>
				</clipPath>
				
					<rect x="134" y="108.2" style="clip-path:url(#SVGID_00000021093160245065280570000006537598255122996660_);fill:#2E3192;" width="112" height="7"/>
			</g>
		</g>
		<g>
			<g>
				<defs>
					<rect id="SVGID_00000121280754319881683610000014427096490176016056_" y="41.2" width="253" height="231"/>
				</defs>
				<clipPath id="SVGID_00000071547267155131169560000015467771446021439141_">
					<use xlink:href="#SVGID_00000121280754319881683610000014427096490176016056_"  style="overflow:visible;"/>
				</clipPath>
				
					<rect x="184" y="182.2" style="clip-path:url(#SVGID_00000071547267155131169560000015467771446021439141_);fill:#2E3192;" width="62" height="7"/>
			</g>
		</g>
		<g>
			<g>
				<defs>
					<rect id="SVGID_00000035516175886089501510000016162753004999304867_" y="41.2" width="253" height="231"/>
				</defs>
				<clipPath id="SVGID_00000143578491452512008830000003796657342100103078_">
					<use xlink:href="#SVGID_00000035516175886089501510000016162753004999304867_"  style="overflow:visible;"/>
				</clipPath>
				
					<rect x="86" y="182.2" style="clip-path:url(#SVGID_00000143578491452512008830000003796657342100103078_);fill:#2E3192;" width="87" height="7"/>
			</g>
		</g>
		<g>
			<g>
				<defs>
					<rect id="SVGID_00000007415538533270847520000009177373491616852101_" y="41.2" width="253" height="231"/>
				</defs>
				<clipPath id="SVGID_00000007419851014040155970000015697678608748733316_">
					<use xlink:href="#SVGID_00000007415538533270847520000009177373491616852101_"  style="overflow:visible;"/>
				</clipPath>
				
					<rect x="7" y="41.2" style="clip-path:url(#SVGID_00000007419851014040155970000015697678608748733316_);fill:#29ABE2;" width="117" height="7"/>
			</g>
		</g>
		<g>
			<g>
				<defs>
					<rect id="SVGID_00000112594718383777929630000005807267860416948405_" y="41.2" width="253" height="231"/>
				</defs>
				<clipPath id="SVGID_00000108994195308343937640000010047652320350516102_">
					<use xlink:href="#SVGID_00000112594718383777929630000005807267860416948405_"  style="overflow:visible;"/>
				</clipPath>
				
					<rect x="134" y="41.2" style="clip-path:url(#SVGID_00000108994195308343937640000010047652320350516102_);fill:#29ABE2;" width="112" height="7"/>
			</g>
		</g>
		<g>
			<g>
				<defs>
					<rect id="SVGID_00000031925770396234351000000006410310073610469555_" y="41.2" width="253" height="231"/>
				</defs>
				<clipPath id="SVGID_00000181788740366055536660000014942747080351888533_">
					<use xlink:href="#SVGID_00000031925770396234351000000006410310073610469555_"  style="overflow:visible;"/>
				</clipPath>
				
					<rect x="246" y="48.2" style="clip-path:url(#SVGID_00000181788740366055536660000014942747080351888533_);fill:#29ABE2;" width="7" height="60"/>
			</g>
		</g>
		<g>
			<g>
				<defs>
					<rect id="SVGID_00000080898142582081513990000007765485716827300026_" y="41.2" width="253" height="231"/>
				</defs>
				<clipPath id="SVGID_00000000932247522840496140000012562099938340992676_">
					<use xlink:href="#SVGID_00000080898142582081513990000007765485716827300026_"  style="overflow:visible;"/>
				</clipPath>
				
					<rect x="246" y="129.2" style="clip-path:url(#SVGID_00000000932247522840496140000012562099938340992676_);fill:#29ABE2;" width="7" height="53"/>
			</g>
		</g>
		<g>
			<g>
				<defs>
					<rect id="SVGID_00000137111040125155848420000008138472316996585663_" y="41.2" width="253" height="231"/>
				</defs>
				<clipPath id="SVGID_00000126283465749738799310000006206887380015549614_">
					<use xlink:href="#SVGID_00000137111040125155848420000008138472316996585663_"  style="overflow:visible;"/>
				</clipPath>
				
					<rect x="184" y="122.2" style="clip-path:url(#SVGID_00000126283465749738799310000006206887380015549614_);fill:#29ABE2;" width="62" height="7"/>
			</g>
		</g>
		<g>
			<g>
				<defs>
					<rect id="SVGID_00000003069485623133762720000003633908989233481888_" y="41.2" width="253" height="231"/>
				</defs>
				<clipPath id="SVGID_00000092458183132642028740000007390499283571036309_">
					<use xlink:href="#SVGID_00000003069485623133762720000003633908989233481888_"  style="overflow:visible;"/>
				</clipPath>
				
					<rect x="86" y="122.2" style="clip-path:url(#SVGID_00000092458183132642028740000007390499283571036309_);fill:#29ABE2;" width="87" height="7"/>
			</g>
		</g>
		<g>
			<g>
				<defs>
					<rect id="SVGID_00000002365783220910789850000013747978696921080745_" y="41.2" width="253" height="231"/>
				</defs>
				<clipPath id="SVGID_00000047017895253751638490000004171830177034591641_">
					<use xlink:href="#SVGID_00000002365783220910789850000013747978696921080745_"  style="overflow:visible;"/>
				</clipPath>
				
					<rect x="166" y="128.2" style="clip-path:url(#SVGID_00000047017895253751638490000004171830177034591641_);fill:#29ABE2;" width="7" height="54"/>
			</g>
		</g>
		<g>
			<g>
				<defs>
					<rect id="SVGID_00000047770560375189439910000004559449832545474706_" y="41.2" width="253" height="231"/>
				</defs>
				<clipPath id="SVGID_00000072252255057537080980000008793367788010629037_">
					<use xlink:href="#SVGID_00000047770560375189439910000004559449832545474706_"  style="overflow:visible;"/>
				</clipPath>
				
					<rect x="7" y="122.2" style="clip-path:url(#SVGID_00000072252255057537080980000008793367788010629037_);fill:#29ABE2;" width="70" height="7"/>
			</g>
		</g>
		<g>
			<g>
				<defs>
					<rect id="SVGID_00000145737697097865777270000000218379071127542956_" y="41.2" width="253" height="231"/>
				</defs>
				<clipPath id="SVGID_00000179616127559752176980000003671710448971286453_">
					<use xlink:href="#SVGID_00000145737697097865777270000000218379071127542956_"  style="overflow:visible;"/>
				</clipPath>
				
					<rect x="70" y="129.2" style="clip-path:url(#SVGID_00000179616127559752176980000003671710448971286453_);fill:#29ABE2;" width="7" height="53"/>
			</g>
		</g>
		<g>
			<g>
				<defs>
					<rect id="SVGID_00000085221844115257464500000004625351351349136308_" y="41.2" width="253" height="231"/>
				</defs>
				<clipPath id="SVGID_00000070118825129236666070000014950554743267034800_">
					<use xlink:href="#SVGID_00000085221844115257464500000004625351351349136308_"  style="overflow:visible;"/>
				</clipPath>
				
					<rect x="7" y="198.2" style="clip-path:url(#SVGID_00000070118825129236666070000014950554743267034800_);fill:#29ABE2;" width="117" height="7"/>
			</g>
		</g>
		<g>
			<g>
				<defs>
					<rect id="SVGID_00000127745493770170895250000004301469662338838672_" y="41.2" width="253" height="231"/>
				</defs>
				<clipPath id="SVGID_00000121264372520349562150000016183324698284682913_">
					<use xlink:href="#SVGID_00000127745493770170895250000004301469662338838672_"  style="overflow:visible;"/>
				</clipPath>
				
					<rect x="117" y="205.2" style="clip-path:url(#SVGID_00000121264372520349562150000016183324698284682913_);fill:#29ABE2;" width="7" height="60"/>
			</g>
		</g>
		<g>
			<g>
				<defs>
					<rect id="SVGID_00000180341459168414623230000014981890718262233010_" y="41.2" width="253" height="231"/>
				</defs>
				<clipPath id="SVGID_00000025406878457083217730000012365163109808345729_">
					<use xlink:href="#SVGID_00000180341459168414623230000014981890718262233010_"  style="overflow:visible;"/>
				</clipPath>
				
					<rect x="133" y="198.2" style="clip-path:url(#SVGID_00000025406878457083217730000012365163109808345729_);fill:#29ABE2;" width="113" height="7"/>
			</g>
		</g>
		<g>
			<g>
				<defs>
					<rect id="SVGID_00000176731598320236437750000006738496445175786661_" y="41.2" width="253" height="231"/>
				</defs>
				<clipPath id="SVGID_00000073683768645087396890000011994646433803347078_">
					<use xlink:href="#SVGID_00000176731598320236437750000006738496445175786661_"  style="overflow:visible;"/>
				</clipPath>
				
					<rect x="246" y="205.2" style="clip-path:url(#SVGID_00000073683768645087396890000011994646433803347078_);fill:#29ABE2;" width="7" height="60"/>
			</g>
		</g>
		<g>
			<g>
				<defs>
					<rect id="SVGID_00000183960584047950292270000005742075443409913004_" y="41.2" width="253" height="231"/>
				</defs>
				<clipPath id="SVGID_00000124125152073091221060000008512452309610112388_">
					<use xlink:href="#SVGID_00000183960584047950292270000005742075443409913004_"  style="overflow:visible;"/>
				</clipPath>
				
					<rect x="7" y="108.2" style="clip-path:url(#SVGID_00000124125152073091221060000008512452309610112388_);fill:#2E3192;" width="117" height="7"/>
			</g>
		</g>
		<g>
			<g>
				<defs>
					<rect id="SVGID_00000168095823439966947060000007166203662874278830_" y="41.2" width="253" height="231"/>
				</defs>
				<clipPath id="SVGID_00000023260751529578640730000015909073947424547732_">
					<use xlink:href="#SVGID_00000168095823439966947060000007166203662874278830_"  style="overflow:visible;"/>
				</clipPath>
				<polygon style="clip-path:url(#SVGID_00000023260751529578640730000015909073947424547732_);fill:#1B1464;" points="0,108.2 
					7,115.2 7,108.2 				"/>
			</g>
		</g>
		<g>
			<g>
				<defs>
					<rect id="SVGID_00000044170705993065770660000004100066685539040913_" y="41.2" width="253" height="231"/>
				</defs>
				<clipPath id="SVGID_00000120555181758801478240000016739728313057956280_">
					<use xlink:href="#SVGID_00000044170705993065770660000004100066685539040913_"  style="overflow:visible;"/>
				</clipPath>
				<polygon style="clip-path:url(#SVGID_00000120555181758801478240000016739728313057956280_);fill:#1B1464;" points="0,182.2 
					7,189.2 7,182.2 				"/>
			</g>
		</g>
		<g>
			<g>
				<defs>
					<rect id="SVGID_00000129919771259616824290000017535913871583732373_" y="41.2" width="253" height="231"/>
				</defs>
				<clipPath id="SVGID_00000067917556824723089210000014393789779454827155_">
					<use xlink:href="#SVGID_00000129919771259616824290000017535913871583732373_"  style="overflow:visible;"/>
				</clipPath>
				
					<rect x="7" y="182.2" style="clip-path:url(#SVGID_00000067917556824723089210000014393789779454827155_);fill:#2E3192;" width="70" height="7"/>
			</g>
		</g>
		<g>
			<g>
				<defs>
					<rect id="SVGID_00000157990118337745142660000008112916892543281048_" y="41.2" width="253" height="231"/>
				</defs>
				<clipPath id="SVGID_00000032608462456582968060000002364431248248996738_">
					<use xlink:href="#SVGID_00000157990118337745142660000008112916892543281048_"  style="overflow:visible;"/>
				</clipPath>
				<polygon style="clip-path:url(#SVGID_00000032608462456582968060000002364431248248996738_);fill:#1B1464;" points="246,108.2 
					246,115.2 253,108.2 				"/>
			</g>
		</g>
		<g>
			<g>
				<defs>
					<rect id="SVGID_00000119825248368562415120000007067377165201982627_" y="41.2" width="253" height="231"/>
				</defs>
				<clipPath id="SVGID_00000063629968797463614080000000046270392536918915_">
					<use xlink:href="#SVGID_00000119825248368562415120000007067377165201982627_"  style="overflow:visible;"/>
				</clipPath>
				<polygon style="clip-path:url(#SVGID_00000063629968797463614080000000046270392536918915_);fill:#1B1464;" points="246,182.2 
					246,189.2 253,182.2 				"/>
			</g>
		</g>
		<g>
			<g>
				<defs>
					<rect id="SVGID_00000066487307069769949340000005994112677218999479_" y="41.2" width="253" height="231"/>
				</defs>
				<clipPath id="SVGID_00000059285936343400095940000015474709185698779285_">
					<use xlink:href="#SVGID_00000066487307069769949340000005994112677218999479_"  style="overflow:visible;"/>
				</clipPath>
				<polygon style="clip-path:url(#SVGID_00000059285936343400095940000015474709185698779285_);fill:#1B1464;" points="7,41.2 
					0,48.2 7,48.2 				"/>
			</g>
		</g>
		<g>
			<g>
				<defs>
					<rect id="SVGID_00000094576646453838847960000010091337606468493244_" y="41.2" width="253" height="231"/>
				</defs>
				<clipPath id="SVGID_00000004542025620869621600000005843448232970148235_">
					<use xlink:href="#SVGID_00000094576646453838847960000010091337606468493244_"  style="overflow:visible;"/>
				</clipPath>
				<polygon style="clip-path:url(#SVGID_00000004542025620869621600000005843448232970148235_);fill:#1B1464;" points="0,129.2 
					7,129.2 7,122.2 				"/>
			</g>
		</g>
		<g>
			<g>
				<defs>
					<rect id="SVGID_00000034052344733040567860000018176017386490006460_" y="41.2" width="253" height="231"/>
				</defs>
				<clipPath id="SVGID_00000044857850737942008380000006724033547358989244_">
					<use xlink:href="#SVGID_00000034052344733040567860000018176017386490006460_"  style="overflow:visible;"/>
				</clipPath>
				<polygon style="clip-path:url(#SVGID_00000044857850737942008380000006724033547358989244_);fill:#1B1464;" points="0,205.2 
					7,205.2 7,198.2 				"/>
			</g>
		</g>
		<g>
			<g>
				<defs>
					<rect id="SVGID_00000141431992499140117980000000899177508853914010_" y="41.2" width="253" height="231"/>
				</defs>
				<clipPath id="SVGID_00000067237339595303364380000017871397683617344433_">
					<use xlink:href="#SVGID_00000141431992499140117980000000899177508853914010_"  style="overflow:visible;"/>
				</clipPath>
				<polygon style="clip-path:url(#SVGID_00000067237339595303364380000017871397683617344433_);fill:#00A99D;" points="246,41.2 
					246,48.2 253,48.2 				"/>
			</g>
		</g>
		<g>
			<g>
				<defs>
					<rect id="SVGID_00000026884942321848356480000006266188419280631192_" y="41.2" width="253" height="231"/>
				</defs>
				<clipPath id="SVGID_00000131331804327048743520000013810827588648736655_">
					<use xlink:href="#SVGID_00000026884942321848356480000006266188419280631192_"  style="overflow:visible;"/>
				</clipPath>
				<polygon style="clip-path:url(#SVGID_00000131331804327048743520000013810827588648736655_);fill:#00A99D;" points="246,129.2 
					253,129.2 246,122.2 				"/>
			</g>
		</g>
		<g>
			<g>
				<defs>
					<rect id="SVGID_00000037685201778431895710000008863288277449592462_" y="41.2" width="253" height="231"/>
				</defs>
				<clipPath id="SVGID_00000021826979621998385540000010682843522661925506_">
					<use xlink:href="#SVGID_00000037685201778431895710000008863288277449592462_"  style="overflow:visible;"/>
				</clipPath>
				<polygon style="clip-path:url(#SVGID_00000021826979621998385540000010682843522661925506_);fill:#00A99D;" points="246,205.2 
					253,205.2 246,198.2 				"/>
			</g>
		</g>
		<g>
			<g>
				<defs>
					<rect id="SVGID_00000099638872529555322590000007591669503980248449_" y="41.2" width="253" height="231"/>
				</defs>
				<clipPath id="SVGID_00000024682838514628653560000005252893848746475441_">
					<use xlink:href="#SVGID_00000099638872529555322590000007591669503980248449_"  style="overflow:visible;"/>
				</clipPath>
				
					<rect x="117" y="48.2" style="clip-path:url(#SVGID_00000024682838514628653560000005252893848746475441_);fill:#29ABE2;" width="7" height="60"/>
			</g>
		</g>
		<g>
			<g>
				<defs>
					<rect id="SVGID_00000080926434774969151310000004963109934984609683_" y="41.2" width="253" height="231"/>
				</defs>
				<clipPath id="SVGID_00000061455606864501926940000009589083258501511564_">
					<use xlink:href="#SVGID_00000080926434774969151310000004963109934984609683_"  style="overflow:visible;"/>
				</clipPath>
				
					<rect x="7" y="265.2" style="clip-path:url(#SVGID_00000061455606864501926940000009589083258501511564_);fill:#2E3192;" width="117" height="7"/>
			</g>
		</g>
		<g>
			<g>
				<defs>
					<rect id="SVGID_00000118380640365901209840000007446297540715436444_" y="41.2" width="253" height="231"/>
				</defs>
				<clipPath id="SVGID_00000036953383604419036460000004473794784668151475_">
					<use xlink:href="#SVGID_00000118380640365901209840000007446297540715436444_"  style="overflow:visible;"/>
				</clipPath>
				
					<rect x="131" y="265.2" style="clip-path:url(#SVGID_00000036953383604419036460000004473794784668151475_);fill:#2E3192;" width="115" height="7"/>
			</g>
		</g>
	</g>
</g>
<g>
	<path d="M6.8,40.2l4.5-38.1l6.1,0.2l2.2,5.9l2.1-4.6l5.5,2.1l6.1,32l-7.6,2l0.4-7.8l-2.2-8.9l-4.7,7.3l-3.5-8.8L15,40.2H6.8z
		 M9.3,38h3.4l1.9-23.3l4.9,11.5l4.7-7.3l3.5,12.7l-0.2,5.1l3.2-1.2L25.9,8.1l-3.4-1.5l-3,5.9l-3.3-7.5l-3.5,0.1L9.3,38z"/>
	<path d="M35.3,9.5L41.8,2l9.5,1.9l6.1,11.6l-0.7,17l-13.5,7.7l-8.4-13.2L35.3,9.5z M37,26.3l6.5,10.2l10.6-5.9L55,16.5l-4.6-9.9
		l-8.1-1.7l-5.1,6.2L37,26.3z M43,26.8l-2.3-8.1l4.3-3.8l4.6,5.8l-1.7,5.6L43,26.8z M43.1,19.9l1,4.1l2.3-0.2l1-2.6L45,18L43.1,19.9
		z"/>
	<path d="M58.6,3.5L72,2.1l5.7,9.7l0.1,15.8l-6.2,11.8l-12,0.6L58.6,3.5z M61.9,36.9l8.2-0.2L75.2,26l-0.3-12.7l-4-7.9l-9.8,1.5
		L61.9,36.9z M64.6,13.1l6.1,3.2l0.8,9.1l-5.7,3.9l-1.8-2L64.6,13.1z M66.3,17l-0.2,8.5l2.9-1.6v-5.4L66.3,17z"/>
	<path d="M78.8,40l0.9-37.9l7.7,0.1L88.7,40H78.8L78.8,40z M81,37.3h5.3l-0.8-32h-3.6L81,37.3z"/>
	<path d="M89.3,2.7l18.6-0.5l-2.7,10.2l-7.8-0.6l-0.7,4.4l7.5-1.2l-0.8,10.2h-6.7L97.9,40l-7.7,0.2L89.3,2.7z M91.3,5.4L92,37.9
		l3.6-0.2l-1.4-15.1h7.4l0.4-4.1l-7.6,0.6l1-10.6l8.4,1l1.1-4.8L91.3,5.4z"/>
	<path d="M108.9,40l0.9-37.9l7.7,0.1l1.3,37.8H108.9L108.9,40z M111.1,37.3h5.3l-0.8-32.1H112L111.1,37.3z"/>
	<path d="M139.9,34.1l-6.6,4.6l-4.7,1.2l-8.9-9.4l-0.4-19.6l3-7.5l11-1.4l6.9,6.2L136.1,19l-6.1-4.7l-3.3,7.2l2.6,5.9l3.2-0.4l3-2
		L139.9,34.1z M128.9,36.8l3.8-1.1l4.3-2.8l-2.1-3.8l-2.5,1.4l-3.9,0.4l-4.9-9.1l5.8-11.8l6,5.9l2.3-6.4l-4.9-3.9l-9.1,1.2l-2.3,5.3
		v17.8L128.9,36.8z"/>
	<path d="M159.1,40l-1-5.8l-7.4-5.8l-2.2,7.7l-7.2-4.3l11.8-29.6l7.2,3l7,35L159.1,40L159.1,40z M159.8,31.7l0.9,5.8h3.8l-5.7-29.7
		l-4.6-1.9l-9.8,24.3l2.6,1.6l2.7-7.2L159.8,31.7z M150.4,21.8l5-11.4l2.3,1.7l1.2,13.3L150.4,21.8z M153.2,20.1l3.2,1l-0.5-6.5
		L153.2,20.1z"/>
	<path d="M168.8,2h20.9l-0.8,11l-6.8-1.2l0.3,28.3H174l1.8-29.2l-7-1.2V2L168.8,2z M170.2,7.4l7.3,0.7l-1.6,29.6l4.4-0.1l0.4-28.4
		l6.7,1.2l0.3-6.2l-17.4-0.1L170.2,7.4L170.2,7.4z"/>
	<path d="M190.8,2.7l18.6-0.5l-2.7,10.2l-7.8-0.6l-0.7,4.4l10.2,0.4l-0.9,7.5l-9.2,1.1l0.7,5.6l11.3-2.7l0.2,10l-18.8,2.1L190.8,2.7
		z M192.8,5.4l0.9,31.7l14.3-1.7l-0.2-3.9l-11,2.6l-1.2-11.7l9.8-1l0.5-2.7l-10.1,0.2l1-10.6l8.4,1l1.1-4.8L192.8,5.4z"/>
	<path d="M211.5,30.2V2l7.1,1l0.1,26.7l4.6-2.6l-0.2-19.1l5.9-1.5l0.5,26.7l-2.9,5.7l-11.2,1.5L211.5,30.2z M216.8,37.8l9.1-1.5
		l1.8-4.4l-0.3-22.5l-2.3,0.2l0.3,19.3l-8.2,4.1l-0.5-27.8l-3.8-1l0.5,25.3L216.8,37.8z"/>
	<path d="M230.7,39.4l0.6-36.7l11.8-0.6l6.7,7l-1.2,12.7l-4.5,2.1l7.3,10.6l-6.2,5.7L239,28.1l-0.2,11.2L230.7,39.4L230.7,39.4z
		 M232.4,37.5h4.6l0.7-14.7l8,14.4l3-3l-7.6-11.2l5.4-3.3l1-9.5l-5-4.7h-9.4L232.4,37.5z M237.5,7.8l6,7.4l-3.5,5.3l-3.3-1.6
		L237.5,7.8z M238.6,17.3l1,0.6l1.9-2.3l-2.8-3.5L238.6,17.3z"/>
</g>
</svg>
