<?xml version="1.0" encoding="utf-8"?>
<!-- Generator: Adobe Illustrator 26.1.0, SVG Export Plug-In . SVG Version: 6.00 Build 0)  -->
<svg version="1.1" id="Calque_1" xmlns="http://www.w3.org/2000/svg" xmlns:xlink="http://www.w3.org/1999/xlink" x="0px" y="0px"
	 viewBox="0 0 253 231" style="enable-background:new 0 0 253 231;" xml:space="preserve">
<style type="text/css">
	.st0{fill:#2E3192;}
	.st1{fill:#1B1464;}
	.st2{fill:#0071BC;}
	.st3{fill:#29ABE2;}
	.st4{fill:#00A99D;}
</style>
<g>
	<rect x="7" y="224" class="st0" width="117" height="7"/>
</g>
<g>
	<rect x="133" y="224" class="st0" width="113" height="7"/>
</g>
<polyline class="st1" points="0,224 7,224 7,231 "/>
<polyline class="st1" points="253,224 246,224 246,231 "/>
<g>
	<g>
		<rect x="11" y="0" class="st1" width="232" height="231"/>
	</g>
	<g>
		<rect x="7" y="0" class="st2" width="117" height="74"/>
	</g>
	<g>
		<rect x="7" y="81" class="st2" width="70" height="67"/>
	</g>
	<g>
		<rect x="80" y="81" class="st2" width="93" height="67"/>
	</g>
	<g>
		<rect x="127" y="0" class="st2" width="119" height="74"/>
	</g>
	<g>
		<rect x="178" y="81" class="st2" width="68" height="67"/>
	</g>
	<g>
		<rect x="7" y="157" class="st2" width="117" height="74"/>
	</g>
	<g>
		<rect x="127" y="157" class="st2" width="119" height="74"/>
	</g>
	<g>
		<rect y="7" class="st0" width="7" height="60"/>
	</g>
	<g>
		<rect x="80" y="81" class="st0" width="6" height="67"/>
	</g>
	<g>
		<rect x="127" y="0" class="st0" width="7" height="74"/>
	</g>
	<g>
		<rect y="164" class="st0" width="7" height="60"/>
	</g>
	<g>
		<rect y="88" class="st0" width="7" height="53"/>
	</g>
	<g>
		<rect x="127" y="157" class="st0" width="6" height="74"/>
	</g>
	<g>
		<rect x="178" y="81" class="st0" width="6" height="67"/>
	</g>
	<g>
		<rect x="134" y="67" class="st0" width="112" height="7"/>
	</g>
	<g>
		<rect x="184" y="141" class="st0" width="62" height="7"/>
	</g>
	<g>
		<rect x="86" y="141" class="st0" width="87" height="7"/>
	</g>
	<g>
		<rect x="7" y="0" class="st3" width="117" height="7"/>
	</g>
	<g>
		<rect x="134.41" y="0.26" class="st3" width="111.59" height="7"/>
	</g>
	<g>
		<rect x="246" y="7" class="st3" width="7" height="60"/>
	</g>
	<g>
		<rect x="246" y="88" class="st3" width="7" height="53"/>
	</g>
	<g>
		<rect x="184" y="81" class="st3" width="62" height="7"/>
	</g>
	<g>
		<rect x="86" y="81" class="st3" width="87" height="7"/>
	</g>
	<g>
		<rect x="165.56" y="87.44" class="st3" width="7" height="53.56"/>
	</g>
	<g>
		<rect x="7" y="81" class="st3" width="70" height="7"/>
	</g>
	<g>
		<rect x="70" y="88" class="st3" width="7" height="53"/>
	</g>
	<g>
		<rect x="7" y="157" class="st3" width="117" height="7"/>
	</g>
	<g>
		<rect x="117" y="164" class="st3" width="7" height="60"/>
	</g>
	<g>
		<rect x="133" y="157" class="st3" width="113" height="7"/>
	</g>
	<g>
		<rect x="245.87" y="164" class="st3" width="7" height="60"/>
	</g>
	<g>
		<rect x="7" y="67" class="st0" width="117" height="7"/>
	</g>
	<polyline class="st1" points="0,67 7,67 7,74 	"/>
	<polyline class="st1" points="0,141 7,141 7,148 	"/>
	<g>
		<rect x="7" y="141" class="st0" width="70" height="7"/>
	</g>
	<polyline class="st1" points="253,67 246,67 246,74 	"/>
	<polyline class="st1" points="253,141 246,141 246,148 	"/>
	<polyline class="st1" points="0,7 7,7 7,0 	"/>
	<polyline class="st1" points="7,81 7,88 0,88 	"/>
	<polyline class="st1" points="7,157 7,164 0,164 	"/>
	<polyline class="st4" points="253,7 246,7 246,0 	"/>
	<polyline class="st4" points="253,88 246,88 246,81 	"/>
	<polyline class="st4" points="253,164 246,164 246,157 	"/>
	<g>
		<rect x="117" y="7" class="st3" width="7" height="60"/>
	</g>
	<g>
		<rect x="7" y="224" class="st0" width="117" height="7"/>
	</g>
	<g>
		<rect x="131" y="224" class="st0" width="115" height="7"/>
	</g>
</g>
</svg>
