<?xml version="1.0" encoding="utf-8"?>
<!-- Generator: Adobe Illustrator 26.1.0, SVG Export Plug-In . SVG Version: 6.00 Build 0)  -->
<svg version="1.1" id="Calque_1" xmlns="http://www.w3.org/2000/svg" xmlns:xlink="http://www.w3.org/1999/xlink" x="0px" y="0px"
	 viewBox="0 0 254 254" style="enable-background:new 0 0 254 254;" xml:space="preserve">
<style type="text/css">
	.st0{fill:#0071BC;}
	.st1{fill:#2E3192;}
	.st2{fill:#1B1464;}
	.st3{fill:#1B143B;stroke:#000000;stroke-miterlimit:10;}
	.st4{fill:#29ABE2;}
</style>
<g>
	<g>
		<rect x="0.5" y="0.5" class="st0" width="253" height="253"/>
		<path d="M253,1v252H1V1H253 M254,0H0v254h254V0L254,0z"/>
	</g>
	<g>
		<path d="M64.42,84.8l22.66-30.27l42.97-6.25l45.12,14.45l15.14,47.75l-44.14,29.59l0.1,24.32l-39.75-2.25l4.49-37.11l26.27-23.44
			l-6.84-11.62h-21.58l-17.09,18.46L64.42,84.8z M89.23,90.37l13.38-12.21l24.71-3.52l14.84,3.52l11.91,25.78l-32.13,26.86
			l-1.17,21.09h13.18l3.03-18.07l37.5-26.76l-12.4-33.89l-33.2-13.67L92.55,68.1L78.68,83.44L89.23,90.37z M121.75,206.48
			l-14.84-25.2l18.55-14.26l25.98,13.57l-6.35,20.7L121.75,206.48z M120.48,183.63l4.88,10.35l10.55-2.73l2.05-6.54l-10.45-6.25
			L120.48,183.63z"/>
	</g>
	<g>
		<rect x="0.5" y="246.5" class="st1" width="253" height="7"/>
		<path d="M253,247v6H1v-6H253 M254,246H0v8h254V246L254,246z"/>
	</g>
	<g>
		<rect x="0.5" y="0.5" class="st1" width="7" height="253"/>
		<path d="M7,1v252H1V1H7 M8,0H0v254h8V0L8,0z"/>
	</g>
	<g>
		<g>
			<path class="st1" d="M229,37.5c-7.44,0-13.5-6.06-13.5-13.5c0-7.44,6.06-13.5,13.5-13.5s13.5,6.06,13.5,13.5
				C242.5,31.44,236.44,37.5,229,37.5z"/>
			<path d="M229,11c7.17,0,13,5.83,13,13s-5.83,13-13,13s-13-5.83-13-13S221.83,11,229,11 M229,10c-7.73,0-14,6.27-14,14
				s6.27,14,14,14s14-6.27,14-14S236.73,10,229,10L229,10z"/>
		</g>
		<g>
			<path class="st2" d="M229,33.5c-5.24,0-9.5-4.26-9.5-9.5s4.26-9.5,9.5-9.5c5.24,0,9.5,4.26,9.5,9.5S234.24,33.5,229,33.5z"/>
			<path d="M229,15c4.96,0,9,4.04,9,9s-4.04,9-9,9s-9-4.04-9-9S224.04,15,229,15 M229,14c-5.52,0-10,4.48-10,10s4.48,10,10,10
				c5.52,0,10-4.48,10-10S234.52,14,229,14L229,14z"/>
		</g>
		<path class="st3" d="M219.76,24.44c0-5.52,4.08-10,9.12-10s9.12,4.48,9.12,10l-9.63-3.5L219.76,24.44z"/>
	</g>
	<g>
		<rect x="7.5" y="0.5" class="st4" width="246" height="7"/>
		<path d="M253,1v6H8V1H253 M254,0H7v8h247V0L254,0z"/>
	</g>
	<g>
		<rect x="246.5" y="0.5" class="st4" width="7" height="246"/>
		<path d="M253,1v245h-6V1H253 M254,0h-8v247h8V0L254,0z"/>
	</g>
	<g>
		<g>
			<circle class="st1" cx="25" cy="230" r="13.5"/>
			<path d="M25,217c7.17,0,13,5.83,13,13s-5.83,13-13,13s-13-5.83-13-13S17.83,217,25,217 M25,216c-7.73,0-14,6.27-14,14
				s6.27,14,14,14s14-6.27,14-14S32.73,216,25,216L25,216z"/>
		</g>
		<g>
			<circle class="st2" cx="25" cy="230" r="9.5"/>
			<path d="M25,221c4.96,0,9,4.04,9,9s-4.04,9-9,9s-9-4.04-9-9S20.04,221,25,221 M25,220c-5.52,0-10,4.48-10,10
				c0,5.52,4.48,10,10,10c5.52,0,10-4.48,10-10C35,224.48,30.52,220,25,220L25,220z"/>
		</g>
		<path class="st3" d="M15.76,230.44c0-5.52,4.08-10,9.12-10s9.12,4.48,9.12,10l-9.63-3.5L15.76,230.44z"/>
	</g>
	<g>
		<g>
			<circle class="st1" cx="25" cy="24" r="13.5"/>
			<path d="M25,11c7.17,0,13,5.83,13,13s-5.83,13-13,13s-13-5.83-13-13S17.83,11,25,11 M25,10c-7.73,0-14,6.27-14,14s6.27,14,14,14
				s14-6.27,14-14S32.73,10,25,10L25,10z"/>
		</g>
		<g>
			<circle class="st2" cx="25" cy="24" r="9.5"/>
			<path d="M25,15c4.96,0,9,4.04,9,9s-4.04,9-9,9s-9-4.04-9-9S20.04,15,25,15 M25,14c-5.52,0-10,4.48-10,10c0,5.52,4.48,10,10,10
				c5.52,0,10-4.48,10-10C35,18.48,30.52,14,25,14L25,14z"/>
		</g>
		<path class="st3" d="M15.76,24.44c0-5.52,4.08-10,9.12-10s9.12,4.48,9.12,10l-9.63-3.5L15.76,24.44z"/>
	</g>
	<g>
		<g>
			<circle class="st1" cx="229" cy="230" r="13.5"/>
			<path d="M229,217c7.17,0,13,5.83,13,13s-5.83,13-13,13s-13-5.83-13-13S221.83,217,229,217 M229,216c-7.73,0-14,6.27-14,14
				s6.27,14,14,14s14-6.27,14-14S236.73,216,229,216L229,216z"/>
		</g>
		<g>
			<circle class="st2" cx="229" cy="230" r="9.5"/>
			<path d="M229,221c4.96,0,9,4.04,9,9s-4.04,9-9,9s-9-4.04-9-9S224.04,221,229,221 M229,220c-5.52,0-10,4.48-10,10
				c0,5.52,4.48,10,10,10c5.52,0,10-4.48,10-10C239,224.48,234.52,220,229,220L229,220z"/>
		</g>
		<path class="st3" d="M219.76,230.44c0-5.52,4.08-10,9.12-10s9.12,4.48,9.12,10l-9.63-3.5L219.76,230.44z"/>
	</g>
</g>
</svg>
