<?xml version="1.0" encoding="utf-8"?>
<!-- Generator: Adobe Illustrator 26.1.0, SVG Export Plug-In . SVG Version: 6.00 Build 0)  -->
<svg version="1.1" id="Calque_1" xmlns="http://www.w3.org/2000/svg" xmlns:xlink="http://www.w3.org/1999/xlink" x="0px" y="0px"
	 viewBox="0 0 1366 768" style="enable-background:new 0 0 1366 768;" xml:space="preserve">
<style type="text/css">
	.st0{fill:#3E3E3E;}
	.st1{fill:#985E11;}
	.st2{fill:#80500D;}
	.st3{fill:#512DA7;}
	.st4{fill:#FD9D80;}
	.st5{fill:#0D47A0;}
	.st6{fill:#264D16;}
	.st7{fill:#DFDFDF;}
	.st8{fill:#F4F4F4;}
	.st9{fill:#33691E;}
	.st10{fill:#FECBBB;}
	.st11{fill:#E5D02E;}
	.st12{fill:#FE8F19;}
	.st13{fill:#689E38;}
	.st14{fill:#FEFEFE;}
</style>
<g>
	<path class="st0" d="M723.5,575.3c0,4.1-0.1,8.2,0,12.3c0,1.5-0.4,1.8-1.8,1.8c-3.5-0.1-7,0-10.6-0.1c-1.5,0-1.8,0.5-1.8,1.8
		c0.1,3.5,0,7.1,0.1,10.6c0.1,1.5-0.5,1.8-1.9,1.8c-8.1-0.1-16.3,0-24.4-0.1c-1.7,0-2.1,0.4-2,2.1c0.1,4,0,8.1,0,12.1
		c-14.1,0-28.2,0-42.4,0c0-4.7,0-9.4,0-14.1c8.7,0,17.3-0.1,26,0c1.9,0,2.4-0.6,2.3-2.4c-0.1-3.2,0-6.5-0.1-9.7
		c-0.1-1.6,0.4-2.2,2.1-2.1c3.4,0.1,6.9,0,10.4,0.1c1.3,0,1.8-0.4,1.8-1.8c-0.1-3.5,0-6.9-0.1-10.4c0-1.4,0.3-2.1,1.9-2.1
		C696.5,575.3,710,575.3,723.5,575.3z"/>
	<path d="M638.8,603.5c0,4.7,0,9.4,0,14.1c-18.8,0-37.7,0-56.5,0c0-4.7,0-9.4,0-14.1l0,0c9.4,0,18.8,0,28.2-0.1
		C619.9,603.5,629.4,603.5,638.8,603.5L638.8,603.5z"/>
	<path d="M780,264.3c-4.7,0-9.4,0-14.1,0l0,0c0-4.7,0-9.4,0-14.1l0,0c4.7,0,9.4,0,14.1,0C780,254.9,780,259.6,780,264.3z"/>
	<path d="M723.5,575.3c-13.5,0-27,0-40.5-0.1c-1.6,0-1.9,0.6-1.9,2.1c0.1,3.5,0,6.9,0.1,10.4c0,1.3-0.4,1.8-1.8,1.8
		c-3.4-0.1-6.9,0.1-10.4-0.1c-1.7-0.1-2.1,0.5-2.1,2.1c0.1,3.2-0.1,6.5,0.1,9.7c0.1,1.8-0.4,2.4-2.3,2.4c-8.7-0.1-17.3,0-26,0
		c0,0,0,0,0,0c0-4.7,0-9.4,0-14.2l0,0c4.2,0,8.3,0,12.5,0c1.2,0,1.7-0.4,1.6-1.6c-0.1-3.7-0.1-7.3,0-11c0-1.3-0.5-1.6-1.7-1.6
		c-4.2,0.1-8.3,0-12.5,0.1c-4.1,0-8.2-0.1-12.3,0c-1.3,0-1.8-0.3-1.7-1.7c0.1-3.7,0-7.4,0.1-11c0-1.2-0.3-1.5-1.5-1.5
		c-8.5,0-16.9,0-25.4,0c-1.2,0-1.5,0.4-1.4,1.5c0.1,4.2,0.1,8.4,0.1,12.6c0,4.7-0.1,9.4-0.1,14.2c-4.1,0-8.2,0.1-12.3,0
		c-1.5,0-1.8,0.5-1.8,1.9c0.1,4.1,0,8.2,0,12.3l0,0c-4.2,0-8.4,0-12.6,0c-1.2,0-1.6-0.3-1.6-1.6c0.1-3.7,0-7.4,0.1-11
		c0-1.3-0.3-1.6-1.6-1.6c-3.6,0.1-7.2,0-10.8,0.1c-1.4,0-1.8-0.4-1.8-1.8c0.1-8.8,0-17.7,0-26.5c0,0,0,0,0,0c4.7,0,9.4,0,14,0
		c0,0,0.1,0,0.1,0c0,4.3,0,8.5-0.1,12.8c0,1.1,0.3,1.4,1.4,1.4c3.8-0.1,7.6-0.1,11.5,0c1.1,0,1.4-0.3,1.4-1.4
		c-0.1-4.3-0.1-8.5-0.1-12.8c0-4.7,0-9.4,0-14.1c0-18.9,0-37.7,0-56.6c0-4.7,0-9.4,0-14.1c0-4.3,0-8.5,0.1-12.8
		c0-1.1-0.3-1.4-1.4-1.4c-4.3,0.1-8.5,0.1-12.8,0.1c-4.7,0-9.4-0.1-14.2-0.1l0.1,0.1c0-9.4,0-18.9,0-28.3l0,0c4.7,0,9.4,0,14.1,0
		c4.1,0,8.2,0,12.3,0.1c1.5,0,1.9-0.5,1.8-1.9c-0.1-4.1,0-8.2,0-12.3c4.2,0,8.4,0.1,12.5,0c1.3,0,1.6,0.3,1.6,1.6
		c-0.1,3.7,0,7.3-0.1,11c0,1.3,0.4,1.6,1.6,1.6c3.7-0.1,7.3,0,11-0.1c1.3,0,1.6,0.4,1.6,1.6c-0.1,4.2,0,8.4,0,12.6
		c-4.1,0-8.2,0-12.3,0c-1.2,0-1.9,0.2-1.9,1.6c0.1,18.3,0.1,36.6,0.1,55c0,13.6,0,27.2-0.1,40.8c0,1.2,0.3,1.6,1.6,1.6
		c3.7-0.1,7.3-0.1,11,0c1.5,0,1.6-0.6,1.6-1.8c-0.1-4.1,0-8.2,0-12.3c4.7,0,9.4-0.1,14.1-0.1c0,3.9,0.1,7.8,0,11.6
		c-0.1,1.9,0.4,2.7,2.5,2.6c3.9-0.2,7.7,0,11.6,0c0,4,0.1,8.1,0,12.1c0,1.3,0.2,2,1.8,2c12.9-0.1,25.9-0.1,38.8,0
		c1.6,0,1.8-0.6,1.8-2c-0.1-4,0-8.1,0-12.1c9.4,0,18.8,0,28.2,0c0,4.1,0,8.2,0,12.3c0,1.2,0.2,1.9,1.6,1.8c4.2-0.1,8.3-0.1,12.5-0.1
		c9.4,0,18.8,0,28.2,0.1c0,0,0,0,0,0c0,4.1-0.1,8.2,0,12.3c0,1.4-0.3,1.8-1.8,1.8C741.2,575.2,732.3,575.3,723.5,575.3z"/>
	<path d="M709.4,250.2c0-37,0-73.9-0.1-110.9c0-1.9,0.5-2.3,2.3-2.2c4,0.1,7.9,0.1,11.9,0.1l-0.1-0.1c0,24,0,47.9,0,71.9
		c0,13.7,0,27.5,0,41.2C718.7,250.1,714,250.1,709.4,250.2L709.4,250.2z"/>
	<path d="M751.7,137.1c4.1,0,8.2,0.1,12.3-0.1c1.6-0.1,1.8,0.5,1.8,2c0,37,0,74.1,0,111.1l0,0c-4.7,0-9.4,0-14.1,0
		C751.8,212.4,751.8,174.7,751.7,137.1L751.7,137.1z"/>
	<path d="M554,561.1c-4.2,0-8.4,0-12.6,0c-1.2,0-1.6-0.3-1.6-1.6c0-32,0-63.9,0-95.9c0-1.3,0.5-1.5,1.6-1.5c4.2,0.1,8.4,0,12.6,0.1
		c0,0-0.1-0.1-0.1-0.1c0,4.7,0,9.4,0.1,14.1c0,4.7,0,9.4,0,14.2c0,4.7,0,9.4,0,14.1c0,4.7,0,9.4,0,14.1c0,9.4,0,18.8,0.1,28.3
		C554.1,551.7,554.1,556.4,554,561.1L554,561.1z"/>
	<path d="M554,433.9c-4.2,0-8.4-0.1-12.6,0c-1.3,0-1.6-0.4-1.6-1.6c0-22.5,0-45,0-67.5c0-1.2,0.3-1.6,1.6-1.6c4.2,0.1,8.4,0,12.6,0
		c0,0,0,0,0,0c0,4.7,0,9.4,0,14.1c0,14.1,0,28.2,0,42.4C554.1,424.5,554.1,429.2,554,433.9L554,433.9z"/>
	<path d="M596.4,306.7c0-4.2,0.1-8.4,0-12.6c0-1.3,0.4-1.6,1.6-1.6c17.8,0,35.6,0,53.4,0c1.2,0,1.6,0.3,1.6,1.6
		c-0.1,4.2,0,8.4,0,12.6l0,0c-4.7,0-9.4,0-14.1,0C624.6,306.7,610.5,306.7,596.4,306.7L596.4,306.7z"/>
	<path d="M652.9,306.7c13.5,0,26.9,0,40.4,0c1.7,0,2.1,0.4,2,2.1c-0.1,4-0.1,8.1-0.1,12.1l0,0c-9.4,0-18.8,0-28.2,0.1
		c-4.7,0-9.4-0.1-14.1-0.1C652.9,316.1,652.9,311.4,652.9,306.7L652.9,306.7z"/>
	<path d="M723.5,137.1c0-4.2,0-8.4-0.1-12.6c0-1.1,0.1-1.7,1.5-1.6c8.4,0.1,16.9,0.1,25.3,0c1.4,0,1.5,0.5,1.5,1.7
		c-0.1,4.2,0,8.4-0.1,12.6c0,0,0.1-0.1,0.1-0.1c-4.7,0-9.4,0.1-14.1,0.1C732.9,137.1,728.2,137.1,723.5,137.1L723.5,137.1z"/>
	<path d="M723.5,292.6c-4.1,0-8.2-0.1-12.4,0c-1.5,0-1.8-0.4-1.8-1.8c0.1-8.8,0-17.7,0-26.5l0,0c4.7,0,9.4,0,14.1,0
		C723.5,273.7,723.5,283.1,723.5,292.6C723.5,292.6,723.5,292.6,723.5,292.6z"/>
	<path d="M751.7,292.6c0,4.7,0,9.4,0,14.2l0,0c-4.7,0-9.4,0.1-14.1,0.1c-4.7,0-9.4-0.1-14.2-0.1l0.1,0.1c0-4.7,0-9.4,0-14.2
		c0,0,0,0,0,0C732.9,292.6,742.3,292.6,751.7,292.6L751.7,292.6z"/>
	<path d="M554,363.2c0-8.8,0.1-17.5,0-26.3c0-1.6,0.4-2.1,2-2c4,0.1,8.1,0,12.1,0l0,0c0,9.4,0,18.8,0,28.2
		C563.4,363.2,558.8,363.2,554,363.2L554,363.2z"/>
	<path d="M709.4,264.3c-4.2,0-8.4,0-12.6,0c-1.2,0-1.6-0.3-1.6-1.6c0.1-3.7,0.1-7.4,0-11c0-1.3,0.3-1.6,1.6-1.6
		c4.2,0.1,8.4,0,12.6,0l0,0C709.4,254.9,709.4,259.6,709.4,264.3L709.4,264.3z"/>
	<path d="M709.4,320.8c0-4.2,0-8.5,0-12.7c0-1.2,0.3-1.5,1.5-1.5c4.2,0.1,8.5,0,12.7,0.1c0,0-0.1-0.1-0.1-0.1c0,4.7,0,9.4,0,14.1
		C718.7,320.8,714,320.8,709.4,320.8L709.4,320.8z"/>
	<path d="M568.2,334.9c0-4.2,0.1-8.4,0-12.6c0-1.2,0.3-1.6,1.6-1.6c4.2,0.1,8.4,0,12.6,0l0,0c0,4.7,0,9.4-0.1,14.1
		C577.5,334.9,572.9,334.9,568.2,334.9L568.2,334.9z"/>
	<path d="M695.2,320.8c4.7,0,9.4,0,14.2,0c0,0,0,0,0,0c0,4.7,0,9.5,0,14.2c-4.7,0-9.4,0-14.1,0C695.2,330.3,695.3,325.5,695.2,320.8
		C695.3,320.8,695.2,320.8,695.2,320.8z"/>
	<path d="M582.3,320.8c0-4.2,0.1-8.4,0-12.6c0-1.2,0.3-1.6,1.6-1.6c4.2,0.1,8.4,0,12.6,0l0,0c0,4.7,0,9.4-0.1,14.1
		C591.7,320.8,587,320.8,582.3,320.8L582.3,320.8z"/>
	<path d="M751.7,306.7c4.1,0,8.2,0.1,12.3-0.1c1.7-0.1,1.8,0.6,1.8,2c0,20.7,0,41.3,0,62c0,20.4,0,40.7,0,61.1
		c0,1.8-0.4,2.3-2.3,2.2c-4-0.2-7.9,0-11.9,0l0,0c0-3.2,0-6.5,0-9.7c0-15.6,0-31.2-0.1-46.9c0-14.1,0-28.3,0-42.4
		C751.7,325.5,751.7,316.1,751.7,306.7L751.7,306.7z"/>
	<path d="M737.6,490.4c4.1,0,8.2,0.1,12.3,0c1.5,0,1.8,0.4,1.8,1.8c-0.1,13.5,0,27.1,0,40.6l0,0c-4.7,0-9.4,0-14.1,0
		C737.6,518.7,737.6,504.6,737.6,490.4L737.6,490.4z"/>
	<path d="M751.7,433.9c0,8.8,0,17.7,0,26.5c0,1.4-0.3,1.8-1.8,1.8c-4.1-0.1-8.2,0-12.3,0l0,0c0-9.4,0-18.9,0-28.3
		C742.3,433.9,747,433.9,751.7,433.9L751.7,433.9z"/>
	<path d="M765.8,264.3c0,8.8,0,17.7,0,26.5c0,1.4-0.3,1.9-1.8,1.8c-4.1-0.1-8.2,0-12.4,0c0,0,0,0,0,0c0-9.4,0-18.8,0-28.2
		C756.5,264.3,761.1,264.3,765.8,264.3L765.8,264.3z"/>
	<path d="M737.6,462.2c0,9.4,0,18.8,0,28.2l0,0c-3.8,0-7.6-0.1-11.4,0c-2,0.1-2.8-0.4-2.7-2.6c0.1-8.6,0.1-17.2,0.1-25.7
		C728.2,462.2,732.9,462.2,737.6,462.2L737.6,462.2z"/>
	<path d="M751.7,532.8c4.2,0,8.4,0.1,12.6,0c1.3,0,1.6,0.3,1.6,1.6c-0.1,8.4-0.1,16.8,0,25.2c0,1.2-0.3,1.6-1.6,1.6
		c-4.2-0.1-8.4,0-12.6,0l0,0c0-4.7,0-9.4-0.1-14.1C751.7,542.3,751.7,537.6,751.7,532.8L751.7,532.8z"/>
	<path class="st1" d="M582.3,603.5c0-4.1,0.1-8.2,0-12.3c0-1.4,0.3-1.9,1.8-1.9c4.1,0.1,8.2,0,12.3,0c4.7,0,9.5,0,14.2,0l0,0
		c0,4.7,0,9.4,0,14.1C601.1,603.5,591.7,603.5,582.3,603.5z"/>
	<path class="st2" d="M610.5,603.5c0-4.7,0-9.4,0-14.1c9.4,0,18.8,0,28.2,0c0,4.7,0,9.4,0,14.2C629.4,603.5,619.9,603.5,610.5,603.5
		z"/>
	<path class="st3" d="M765.8,264.3c-4.7,0-9.4,0-14.1,0c0,0-0.1-0.1-0.1-0.1c0-4.7,0-9.5-0.1-14.2l0.1,0.1c4.7,0,9.4,0,14.1,0
		C765.8,254.9,765.8,259.6,765.8,264.3z"/>
	<path class="st4" d="M610.6,448c0-4.2-0.1-8.4,0-12.6c0-1.2-0.3-1.6-1.6-1.6c-3.7,0.1-7.3,0-11,0.1c-1.2,0-1.6-0.3-1.6-1.6
		c0.1-3.7,0-7.3,0.1-11c0-1.3-0.3-1.6-1.6-1.6c-4.2,0.1-8.4,0-12.5,0c0,0,0,0.1,0,0.1c0-9.4,0-18.8,0-28.3c4.7,0,9.4,0,14.1,0
		c0,0,0,0,0,0c0,4.1,0,8.2-0.1,12.3c0,1.6,0.6,2,2,1.9c4-0.1,8,0,12.1,0c0,4.2,0.1,8.4,0,12.6c0,1.3,0.4,1.6,1.6,1.6
		c4.2-0.1,8.4,0,12.6,0c0,4.2,0,8.4,0,12.6c0,1.2,0.3,1.6,1.6,1.6c4.2-0.1,8.4-0.1,12.5-0.1c0,4.7,0,9.5,0,14.2
		C629.3,448.1,619.9,448,610.6,448L610.6,448z"/>
	<path class="st5" d="M554.1,518.7c0-4.7,0-9.4,0-14.1c4.1,0,8.2-0.1,12.3,0.1c1.5,0,1.8-0.5,1.8-1.9c-0.1-4.1,0-8.2,0-12.3
		c0,0,0,0,0,0c4.7,0,9.4,0,14.1,0c0,18.9,0,37.7,0,56.6c-4.7,0-9.4,0-14,0l0,0c0-8.8,0-17.6,0-26.4c0-1.4-0.3-1.9-1.8-1.9
		C562.3,518.8,558.2,518.7,554.1,518.7z"/>
	<path class="st2" d="M596.5,504.6c0-18.3,0-36.6-0.1-55c0-1.5,0.6-1.7,1.9-1.6c4.1,0,8.2,0,12.3,0c0,0,0,0,0,0c0,9.4,0,18.8,0,28.3
		c0,9.4,0,18.8,0,28.2C605.8,504.5,601.1,504.6,596.5,504.6z"/>
	<path class="st4" d="M638.8,589.4c-9.4,0-18.8,0-28.2,0c0,0,0,0,0,0c0-4.1-0.1-8.2,0-12.3c0-1.4-0.4-1.9-1.8-1.9
		c-4.1,0.1-8.2,0-12.3,0c0-4.2,0-8.4-0.1-12.6c0-1.1,0.2-1.5,1.4-1.5c8.5,0.1,16.9,0,25.4,0c1.2,0,1.5,0.3,1.5,1.5
		c-0.1,3.7,0,7.4-0.1,11c0,1.4,0.4,1.7,1.7,1.7c4.1-0.1,8.2,0,12.3,0C638.7,580,638.7,584.7,638.8,589.4
		C638.8,589.4,638.8,589.4,638.8,589.4z"/>
	<path class="st4" d="M596.5,504.6c4.7,0,9.4-0.1,14.1-0.1c4.7,0,9.4,0.1,14.1,0.1c0,4.7,0,9.4,0,14.1c-3.9,0-7.9,0.1-11.8,0
		c-1.7,0-2.3,0.3-2.3,2.2c0.1,4,0.1,8,0.1,12.1c0,4.1,0,8.2,0,12.3c0,1.2-0.1,1.8-1.6,1.8c-3.7-0.1-7.3-0.1-11,0
		c-1.3,0-1.6-0.4-1.6-1.6C596.4,531.8,596.4,518.2,596.5,504.6z"/>
	<path class="st6" d="M681.2,547c0,4-0.1,8.1,0,12.1c0,1.3-0.2,2-1.8,2c-12.9-0.1-25.9-0.1-38.8,0c-1.6,0-1.8-0.6-1.8-2
		c0.1-4,0-8.1,0-12.1l0.1-0.1C652.9,546.9,667,546.9,681.2,547L681.2,547z"/>
	<path class="st6" d="M709.4,547c-9.4,0-18.8,0-28.2,0c0,0-0.1-0.1-0.1-0.1c0-4.7,0-9.4,0-14.1c9.4,0,18.8,0,28.2-0.1
		c0,0,0.1,0.1,0.1,0.1C709.4,537.6,709.4,542.3,709.4,547L709.4,547z"/>
	<path class="st1" d="M751.6,547c0,4.7,0,9.4,0.1,14.1c-9.4,0-18.8,0-28.2-0.1c0-4.7,0-9.3,0-14c4.7,0,9.4-0.1,14.1-0.1
		C742.2,547,746.9,547,751.6,547z"/>
	<path class="st7" d="M554.1,476.3c0-4.7,0-9.4-0.1-14.1c4.7,0,9.4,0.1,14.2,0.1c0,4.7,0,9.3,0.1,14c0,0-0.1,0.1-0.1,0.1
		C563.4,476.3,558.8,476.3,554.1,476.3z"/>
	<path class="st8" d="M568.2,476.2c0-4.7,0-9.3-0.1-14c4.3,0,8.5,0,12.8-0.1c1.1,0,1.4,0.3,1.4,1.4c-0.1,4.3-0.1,8.5-0.1,12.8
		C577.6,476.3,572.9,476.3,568.2,476.2z"/>
	<path class="st7" d="M568.2,476.2c4.7,0,9.3,0,14,0.1c0,4.7,0,9.4,0,14.1c-4.7,0-9.4,0-14.1,0c0-4.7,0-9.4,0-14.1L568.2,476.2z"/>
	<path class="st6" d="M554.1,433.9c0-4.7,0-9.4,0-14.1c4.7,0,9.4,0,14.1,0c0,4.7,0,9.4,0,14.1C563.5,433.9,558.8,433.9,554.1,433.9z
		"/>
	<path class="st9" d="M568.2,433.9c0-4.7,0-9.4,0-14.1c0,0,0,0,0,0c4.7,0,9.4,0,14.2,0c0,0,0-0.1,0-0.1c0,4.1-0.1,8.2,0,12.3
		c0,1.4-0.3,1.9-1.8,1.9C576.4,433.8,572.3,433.9,568.2,433.9z"/>
	<path class="st10" d="M610.5,532.9c0-4,0.1-8-0.1-12.1c-0.1-1.8,0.6-2.2,2.3-2.2c3.9,0.1,7.9,0,11.8,0c0,4.7,0,9.4,0,14.1l0,0
		C619.9,532.8,615.2,532.9,610.5,532.9z"/>
	<path class="st6" d="M638.7,547c-3.9,0-7.8-0.2-11.6,0c-2.1,0.1-2.6-0.7-2.5-2.6c0.1-3.9,0-7.8,0-11.6c0,0,0,0,0,0
		c4.7,0,9.5,0,14.2,0C638.8,537.5,638.8,542.2,638.7,547C638.8,546.9,638.7,547,638.7,547z"/>
	<path class="st5" d="M554.1,561.1c0-4.7,0.1-9.4,0.1-14.1c4.7,0,9.4,0,14,0c0,0,0,0,0,0c0,4.7-0.1,9.4-0.1,14.1
		C563.4,561.1,558.7,561.1,554.1,561.1z"/>
	<path class="st7" d="M568.1,561.1c0-4.7,0.1-9.4,0.1-14.1c4.7,0,9.4,0,14,0c0,4.7,0,9.4,0,14.1c-4.7,0-9.3,0-14,0L568.1,561.1z"/>
	<path class="st2" d="M723.5,547.1c0,4.7,0,9.3,0,14c-4.2,0-8.3,0-12.5,0.1c-1.5,0-1.7-0.6-1.6-1.8c0.1-4.1,0-8.2,0-12.3
		c0,0,0,0,0,0C714.1,547,718.8,547,723.5,547.1z"/>
	<path class="st8" d="M568.2,561.1c4.7,0,9.3,0,14,0c0,4.3,0,8.5,0.1,12.8c0,1.1-0.3,1.4-1.4,1.4c-3.8-0.1-7.6-0.1-11.5,0
		c-1.1,0-1.4-0.3-1.4-1.4C568.2,569.7,568.2,565.4,568.2,561.1z"/>
	<path class="st2" d="M596.4,575.2c4.1,0,8.2,0.1,12.3,0c1.5,0,1.8,0.5,1.8,1.9c-0.1,4.1,0,8.2,0,12.3c-4.7,0-9.5,0-14.2,0
		C596.4,584.6,596.4,579.9,596.4,575.2z"/>
	<path class="st2" d="M638.8,589.4c0-4.7,0-9.4-0.1-14.1c4.2,0,8.3,0,12.5-0.1c1.2,0,1.7,0.2,1.7,1.6c-0.1,3.7-0.1,7.3,0,11
		c0,1.3-0.4,1.6-1.6,1.6C647.1,589.4,642.9,589.4,638.8,589.4z"/>
	<path class="st7" d="M723.5,137c4.7,0,9.4,0.1,14.2,0.1c0,37.6,0,75.3,0,112.9c-4.7,0-9.4,0-14,0l-0.1,0.1c0-13.7,0-27.5,0-41.2
		C723.5,185,723.5,161,723.5,137z"/>
	<path class="st3" d="M709.4,264.3c0-4.7,0-9.4,0-14.1c4.7,0,9.4,0,14.1,0c0,0,0.1-0.1,0.1-0.1c0,4.7,0,9.5-0.1,14.2l-0.1,0.1
		C718.7,264.3,714.1,264.3,709.4,264.3z"/>
	<path class="st8" d="M737.6,250.1c0-37.6,0-75.3,0-112.9c4.7,0,9.4-0.1,14.1-0.1c0,37.7,0,75.4,0,113.1c0,0-0.1-0.1-0.1-0.1
		C747,250.1,742.3,250.1,737.6,250.1z"/>
	<path class="st1" d="M568.2,547c-4.7,0-9.4,0-14,0c0-9.4,0-18.8-0.1-28.3c4.1,0,8.2,0.1,12.3,0c1.5,0,1.8,0.5,1.8,1.9
		C568.1,529.4,568.2,538.2,568.2,547z"/>
	<path class="st5" d="M568.1,476.4c0,4.7,0,9.4,0,14.1c0,0,0,0,0,0c-4.7,0-9.4,0-14.1,0c0-4.7,0-9.4,0-14.2
		C558.8,476.3,563.4,476.3,568.1,476.4z"/>
	<path class="st11" d="M554.1,490.5c4.7,0,9.4,0,14.1,0c0,4.1-0.1,8.2,0,12.3c0,1.4-0.3,1.9-1.8,1.9c-4.1-0.1-8.2,0-12.3-0.1
		C554.1,499.9,554.1,495.2,554.1,490.5z"/>
	<path class="st9" d="M568.2,419.8c-4.7,0-9.4,0-14.1,0c0-14.1,0-28.2,0-42.4c4.7,0,9.4,0,14.1,0l0,0
		C568.2,391.5,568.2,405.6,568.2,419.8L568.2,419.8z"/>
	<path class="st6" d="M568.2,377.4c-4.7,0-9.4,0-14.1,0c0-4.7,0-9.4,0-14.1c4.7,0,9.4,0,14.1-0.1
		C568.1,367.9,568.2,372.6,568.2,377.4z"/>
	<path class="st9" d="M596.3,320.8c0-4.7,0-9.4,0.1-14.1c14.1,0,28.2,0,42.3,0c0,4.7,0,9.4,0,14.1c-14.1,0-28.2,0-42.3,0.1
		L596.3,320.8z"/>
	<path class="st6" d="M638.8,320.8c0-4.7,0-9.4,0-14.1c4.7,0,9.4,0,14.1,0c0,4.7,0,9.4,0.1,14.1c0,0-0.1,0.1-0.1,0.1
		C648.2,320.8,643.5,320.8,638.8,320.8L638.8,320.8z"/>
	<path class="st11" d="M695.3,320.8c0,4.7,0,9.5,0,14.2l0,0c-4.2,0-8.4,0.1-12.6,0c-1.2,0-1.6,0.3-1.6,1.6c0.1,4.2,0,8.4,0,12.6l0,0
		c-4.2,0-8.4,0.1-12.6,0c-1.2,0-1.6,0.3-1.6,1.6c0.1,4.2,0,8.4,0,12.6l0,0c-14.1,0-28.3,0-42.4,0c0-4.7,0-9.4,0-14.1
		c8.8,0,17.6,0,26.4,0c1.4,0,1.9-0.3,1.9-1.8c-0.1-4.1,0-8.2,0-12.3l0,0c4.1,0,8.2-0.1,12.3,0c1.4,0,1.9-0.4,1.8-1.8
		c-0.1-4.1,0-8.2,0-12.3C676.5,320.8,685.9,320.8,695.3,320.8z"/>
	<path class="st6" d="M667,320.9c0,4.1-0.1,8.2,0,12.3c0,1.4-0.4,1.9-1.8,1.8c-4.1-0.1-8.2,0-12.3,0c0-4.7,0-9.4-0.1-14.1
		c0,0,0.1-0.1,0.1-0.1C657.6,320.8,662.3,320.8,667,320.9z"/>
	<path class="st3" d="M751.8,264.3c0,9.4,0,18.8,0,28.2c-9.4,0-18.8,0-28.3,0c0-9.4,0-18.8,0-28.2c0,0,0.1-0.1,0.1-0.1
		C732.9,264.3,742.3,264.3,751.8,264.3L751.8,264.3z"/>
	<path class="st4" d="M751.7,306.7c0,9.4-0.1,18.8-0.1,28.3c-4.7,0-9.4,0.1-14.1,0.1c-4.7,0-9.4,0-14.1,0c-4.7,0-9.4-0.1-14.1-0.1
		l0,0c0-4.7,0-9.5,0-14.2c4.7,0,9.4,0,14.1,0c4.1,0,8.2,0,12.3,0.1c1.6,0,2-0.6,1.9-2.1c-0.1-4,0-8,0-12.1
		C742.3,306.7,747,306.7,751.7,306.7z"/>
	<path class="st10" d="M737.6,306.8c0,4,0,8,0,12.1c0,1.5-0.3,2.1-1.9,2.1c-4.1-0.1-8.2-0.1-12.3-0.1c0-4.7,0-9.4,0-14.1
		C728.2,306.7,732.9,306.7,737.6,306.8z"/>
	<path class="st9" d="M568.2,377.4c0-4.7,0-9.4,0-14.2c0-9.4,0-18.8,0-28.2c4.7,0,9.4,0,14-0.1c0,0,0.1,0.1,0.1,0.1
		c0,9.4,0,18.8-0.1,28.2c0,4.7,0,9.5,0,14.2c0,0,0,0,0,0C577.6,377.4,572.9,377.4,568.2,377.4L568.2,377.4z"/>
	<path class="st9" d="M582.3,320.8c4.7,0,9.4,0,14.1-0.1c0,0,0.1,0.1,0.1,0.1c0,4-0.1,8.1,0,12.1c0,1.5-0.5,2-2,2
		c-4-0.1-8.1,0-12.1,0c0,0-0.1-0.1-0.1-0.1C582.2,330.2,582.3,325.5,582.3,320.8z"/>
	<path class="st12" d="M695.2,335c4.7,0,9.4,0,14.1,0c0,0,0,0,0,0c0,9.5,0,18.9-0.1,28.3c-4.1,0-8.2,0-12.3-0.1
		c-1.3,0-1.8,0.4-1.8,1.8c0.1,4.1,0,8.2,0.1,12.3c-4.2,0-8.3,0.1-12.5,0c-1.3,0-1.8,0.3-1.7,1.7c0.1,4.2,0,8.3,0,12.5
		c-8.8,0-17.6,0-26.5,0c-1.4,0-1.9,0.4-1.8,1.8c0.1,4.1,0,8.2,0,12.4c-4.7,0-9.4,0-14.1,0c-4.7,0-9.4,0-14.1,0
		c0-9.4-0.1-18.9-0.1-28.3c13.5,0,27.1,0,40.6,0.1c1.4,0,1.9-0.4,1.8-1.8c-0.1-4.1,0-8.2,0-12.4l0,0c4.2,0,8.4-0.1,12.6,0
		c1.3,0,1.6-0.3,1.6-1.6c-0.1-4.2,0-8.4,0-12.6l0,0c4.2,0,8.4-0.1,12.6,0c1.3,0,1.6-0.3,1.6-1.6C695.2,343.3,695.3,339.1,695.2,335
		L695.2,335z"/>
	<path class="st2" d="M751.7,433.9c-4.7,0-9.4,0-14.1,0c0,0,0,0,0,0c0-18.8,0-37.7-0.1-56.5l0.1-0.1c4.7,0,9.3,0,14,0
		c0,15.6,0,31.2,0.1,46.9C751.7,427.4,751.7,430.7,751.7,433.9z"/>
	<path class="st1" d="M751.6,377.4c-4.7,0-9.3,0-14,0c0-14.1,0-28.2-0.1-42.3c4.7,0,9.4-0.1,14.1-0.1
		C751.7,349.1,751.7,363.2,751.6,377.4z"/>
	<path class="st6" d="M723.5,462.2c0,8.6,0.1,17.2-0.1,25.7c0,2.2,0.7,2.7,2.7,2.6c3.8-0.2,7.6,0,11.4,0c0,14.1,0,28.3,0,42.4
		c0,0,0,0,0,0c-9.4,0-18.8,0-28.2,0c0,0-0.1-0.1-0.1-0.1c0-4.7,0-9.4,0.1-14.1l0,0c4.1,0,8.2-0.1,12.3,0c1.5,0,1.9-0.5,1.9-1.9
		c-0.1-3.4-0.1-6.9,0-10.3c0-1.4-0.4-2-1.8-1.9c-4.1,0.1-8.2,0.1-12.3,0.1c0-4.7,0-9.5,0-14.2c0-4.7,0-9.4,0-14.1
		c0-4.7,0-9.4,0-14.1C714.1,462.2,718.8,462.2,723.5,462.2L723.5,462.2z"/>
	<path class="st2" d="M751.6,547c-4.7,0-9.4,0-14.1,0c0-4.7,0.1-9.4,0.1-14.1c0,0,0,0,0,0c4.7,0,9.4,0,14.1,0
		C751.7,537.6,751.7,542.3,751.6,547z"/>
	<path class="st2" d="M737.6,462.2c-4.7,0-9.4,0-14.1,0c0,0,0,0,0,0c0-9.4,0-18.9,0-28.3c4.7,0,9.4,0,14.1,0c0,0,0,0,0,0
		C737.6,443.3,737.6,452.7,737.6,462.2z"/>
	<path class="st11" d="M751.7,264.3c-9.4,0-18.8,0-28.2,0c0-4.7,0-9.5,0.1-14.2c4.7,0,9.4,0,14,0c4.7,0,9.3,0,14,0
		C751.6,254.8,751.7,259.5,751.7,264.3z"/>
	<path d="M624.6,377.3c0,9.4,0.1,18.9,0.1,28.3c0,4.7-0.1,9.4-0.1,14.1c0,0,0,0,0,0c-4.2,0-8.4,0-12.6,0c-1.2,0-1.6-0.3-1.6-1.6
		c0.1-4.2,0-8.4,0-12.6c0-4.2,0-8.4,0.1-12.6c0-1.2-0.3-1.6-1.6-1.6c-4.2,0.1-8.4,0-12.6,0c0,0,0,0,0,0c0-4.7,0-9.4,0-14.1l0,0
		C605.8,377.4,615.2,377.4,624.6,377.3L624.6,377.3z"/>
	<path d="M568.2,377.4c4.7,0,9.4,0,14.2,0c0,4.7,0,9.4,0,14.1c0,9.4,0,18.8,0,28.3c-4.7,0-9.4,0-14.2,0
		C568.2,405.6,568.2,391.5,568.2,377.4z"/>
	<path d="M610.5,476.3c0-9.4,0-18.8,0-28.3c9.4,0,18.8,0,28.2,0.1c0,0,0,0,0,0c0,4.7,0.1,9.4,0.1,14.1c-4,0-8.1,0.1-12.1,0
		c-1.6,0-2.2,0.4-2.1,2.1c0.1,4,0,8.1,0,12.1l0,0C619.9,476.3,615.2,476.3,610.5,476.3z"/>
	<path class="st10" d="M638.7,448.1c0-4.7,0-9.5,0-14.2c0-4.7,0-9.4,0-14.1l0,0.1c4.7,0,9.4,0,14.1-0.1c0,9.4,0.1,18.8,0.1,28.3
		C648.2,448,643.5,448,638.7,448.1L638.7,448.1z"/>
	<path class="st10" d="M596.4,391.4c4.2,0,8.4,0.1,12.6,0c1.3,0,1.6,0.4,1.6,1.6c-0.1,4.2-0.1,8.4-0.1,12.6c-4,0-8,0-12.1,0
		c-1.5,0-2.1-0.3-2-1.9C596.5,399.6,596.4,395.5,596.4,391.4z"/>
	<path class="st10" d="M582.4,391.5c0-4.7,0-9.4,0-14.1c0,0,0,0,0,0c4.7,0,9.4-0.1,14.1-0.1c0,4.7,0,9.4,0,14.1
		C591.8,391.5,587.1,391.5,582.4,391.5z"/>
	<path d="M638.8,419.8c0,4.7,0,9.4,0,14.1c-4.2,0-8.4,0-12.5,0.1c-1.3,0-1.6-0.4-1.6-1.6c0.1-4.2,0-8.4,0-12.6l0,0
		C629.3,419.8,634.1,419.8,638.8,419.8z"/>
	<path class="st1" d="M610.5,476.3c4.7,0,9.4,0,14.1,0c0,9.4,0,18.9-0.1,28.3c-4.7,0-9.4-0.1-14.1-0.1
		C610.5,495.1,610.5,485.7,610.5,476.3z"/>
	<path d="M624.6,504.6c0-9.4,0-18.9,0.1-28.3c0,0,0,0,0,0c4.7,0,9.4,0,14.2,0c0,4.7,0,9.4,0,14.1c0,4.7,0,9.4,0,14.2
		c0,9.4,0,18.9-0.1,28.3c0,0,0,0,0,0c-4.7,0-9.5,0-14.2,0c0-4.7,0-9.4,0-14.1C624.6,514,624.6,509.3,624.6,504.6z"/>
	<path class="st2" d="M638.8,546.9c0-4.7,0-9.4,0-14.1c0,0,0,0,0,0c4.7,0,9.4,0,14.1,0c9.4,0,18.8,0,28.3,0.1l0,0
		c0,4.7,0,9.4,0,14.1C667,546.9,652.9,546.9,638.8,546.9z"/>
	<path class="st2" d="M709.4,518.7c0,4.7,0,9.4-0.1,14.1c-9.4,0-18.8,0-28.2,0.1c0,0,0,0,0,0c0-4.7,0-9.4,0-14.1
		C690.5,518.7,699.9,518.7,709.4,518.7z"/>
	<path d="M737.6,532.9c0,4.7-0.1,9.4-0.1,14.1c-4.7,0-9.4,0.1-14.1,0.1c-4.7,0-9.4,0-14.1,0c0-4.7,0-9.4,0-14.1
		C718.8,532.9,728.2,532.9,737.6,532.9z"/>
	<path class="st13" d="M582.4,335c4,0,8.1-0.1,12.1,0c1.5,0,2-0.5,2-2c-0.1-4,0-8.1,0-12.1c14.1,0,28.2,0,42.3-0.1c0,0,0,0,0,0
		c0,4.7,0,9.4,0,14.1c-4.7,0-9.4,0-14.1,0.1c-4,0-8,0-12-0.1c-1.6,0-2.2,0.4-2.1,2.1c0.1,4,0,8,0,12.1c-4,0-8,0.1-12.1,0
		c-1.7,0-2.1,0.5-2.1,2.1c0.1,4,0,8,0,12.1c-4.7,0-9.4,0-14.1,0C582.3,353.8,582.3,344.4,582.4,335z"/>
	<path class="st9" d="M638.7,334.9c0-4.7,0-9.4,0-14.1c4.7,0,9.4,0,14.1,0c0,4.7,0,9.4,0.1,14.1c0,0,0,0,0,0
		C648.2,335,643.5,335,638.7,334.9z"/>
	<path d="M667,363.2c0,4.1-0.1,8.2,0,12.4c0,1.5-0.4,1.8-1.8,1.8c-13.5-0.1-27.1,0-40.6-0.1l0,0c0-4.7,0-9.4,0-14.2l0,0
		C638.8,363.2,652.9,363.2,667,363.2z"/>
	<path class="st6" d="M638.7,334.9c4.7,0,9.5,0,14.2,0c0,4.1-0.1,8.2,0,12.3c0,1.5-0.5,1.8-1.9,1.8c-8.8-0.1-17.6,0-26.4,0
		c0,0,0,0,0,0c0-4.7,0-9.4,0-14.1C629.3,335,634,335,638.7,334.9z"/>
	<path class="st6" d="M596.4,363.2c0-4,0.1-8,0-12.1c0-1.6,0.4-2.2,2.1-2.1c4,0.1,8,0,12.1,0c4.7,0,9.4,0,14.1,0c0,0,0,0,0,0
		c0,4.7,0,9.4,0,14.1c0,0,0,0,0,0C615.2,363.2,605.8,363.2,596.4,363.2L596.4,363.2z"/>
	<path d="M681.1,349.1c0,4.2-0.1,8.4,0,12.6c0,1.3-0.3,1.6-1.6,1.6c-4.2-0.1-8.4,0-12.6,0c0-4.2,0.1-8.4,0-12.6
		c0-1.2,0.3-1.6,1.6-1.6C672.8,349.2,677,349.1,681.1,349.1z"/>
	<path d="M695.3,334.9c0,4.2-0.1,8.4,0,12.6c0,1.3-0.3,1.6-1.6,1.6c-4.2-0.1-8.4,0-12.6,0c0-4.2,0.1-8.4,0-12.6
		c0-1.2,0.3-1.6,1.6-1.6C686.9,335,691.1,335,695.3,334.9z"/>
	<path d="M709.3,363.3c0-9.5,0-18.9,0.1-28.4c4.7,0,9.4,0.1,14.1,0.1c0,14.1,0,28.2,0,42.3c0,0,0,0,0,0c-4.7,0-9.4,0-14.2,0l0,0
		C709.4,372.7,709.3,368,709.3,363.3z"/>
	<path class="st2" d="M723.5,377.4c0-14.1,0-28.2,0-42.3c4.7,0,9.4,0,14.1,0c0,14.1,0,28.2,0.1,42.3c0,0-0.1,0.1-0.1,0.1
		C732.9,377.4,728.2,377.4,723.5,377.4z"/>
	<path d="M582.3,363.2c4.7,0,9.4,0,14.1,0c0,0,0,0,0,0c0,4.7,0,9.4,0,14.2l0,0c-4.7,0-9.4,0.1-14.1,0.1
		C582.3,372.7,582.3,368,582.3,363.2z"/>
	<path d="M652.9,405.6c0-4.1,0.1-8.2,0-12.4c0-1.5,0.4-1.8,1.8-1.8c8.8,0.1,17.6,0,26.5,0c0,0,0,0,0,0c0,4.7,0,9.4-0.1,14.1
		c-4.7,0-9.4,0-14.1,0C662.3,405.7,657.6,405.6,652.9,405.6L652.9,405.6z"/>
	<path d="M681.1,391.5c0-4.2,0.1-8.3,0-12.5c0-1.4,0.4-1.7,1.7-1.7c4.2,0.1,8.3,0,12.5,0c4.7,0,9.4,0.1,14.1,0.1l0,0
		c0,4.7,0,9.4,0,14.1c-4.7,0-9.4,0-14.1,0.1C690.5,391.5,685.8,391.5,681.1,391.5L681.1,391.5z"/>
	<path class="st4" d="M638.8,419.8c-4.7,0-9.4,0-14.2,0c0-4.7,0.1-9.4,0.1-14.1c4.7,0,9.4,0,14.1,0
		C638.8,410.4,638.8,415.1,638.8,419.8L638.8,419.8z"/>
	<path d="M638.7,419.8c0-4.7,0-9.4,0-14.1c4.7,0,9.4,0,14.1,0l0,0c0,4.7,0,9.4,0,14.1C648.1,419.8,643.4,419.8,638.7,419.8z"/>
	<path class="st4" d="M709.4,377.4c-4.7,0-9.4-0.1-14.1-0.1c0-4.1,0-8.2-0.1-12.3c0-1.3,0.4-1.8,1.8-1.8c4.1,0.1,8.2,0,12.3,0.1
		C709.3,368,709.4,372.7,709.4,377.4z"/>
	<path d="M723.5,377.4c4.7,0,9.4,0,14.1,0c0,18.8,0,37.7,0.1,56.5c-4.7,0-9.4,0-14.1,0l0,0C723.5,415.1,723.5,396.2,723.5,377.4
		L723.5,377.4z"/>
	<path class="st9" d="M709.4,518.7c-9.4,0-18.8,0-28.2,0c0,0,0,0,0,0c0-3.9,0.1-7.8,0-11.7c-0.1-2.1,0.7-2.6,2.6-2.5
		c3.1,0.1,6.3,0,9.4,0.1c1.6,0.1,2.2-0.4,2.1-2.1c-0.1-4,0-8.1,0-12.1c4.7,0,9.4,0,14.1,0c0,4.7,0,9.5,0,14.2
		C709.4,509.3,709.4,514,709.4,518.7L709.4,518.7z"/>
	<path d="M723.5,433.9c0,9.4,0,18.9,0,28.3c-4.7,0-9.4,0-14.2,0.1c-4.7,0-9.4,0-14.2-0.1c0-4.7,0.1-9.4,0.1-14.1
		c4.2,0,8.3-0.1,12.5,0c1.3,0,1.6-0.3,1.6-1.6c-0.1-4.2,0-8.4,0-12.5C714.1,433.9,718.8,433.9,723.5,433.9L723.5,433.9z"/>
	<path class="st9" d="M695.2,462.2c4.7,0,9.4,0,14.2,0.1c0,4.7,0,9.4,0,14.1c-4.7,0-9.4,0-14.1,0
		C695.2,471.6,695.2,466.9,695.2,462.2L695.2,462.2z"/>
	<path class="st13" d="M695.2,476.3c4.7,0,9.4,0,14.1,0c0,4.7,0,9.4,0,14.1c-4.7,0-9.4,0-14.1,0c0,0,0,0,0,0
		C695.2,485.7,695.2,481,695.2,476.3L695.2,476.3z"/>
	<path class="st2" d="M709.4,518.7c0-4.7,0-9.4,0-14.1c4.1,0,8.2,0,12.3-0.1c1.5,0,1.9,0.5,1.8,1.9c-0.1,3.4-0.1,6.9,0,10.3
		c0,1.4-0.4,1.9-1.9,1.9C717.6,518.6,713.5,518.7,709.4,518.7z"/>
	<path class="st11" d="M596.4,377.4c0-4.7,0-9.4,0-14.2c9.4,0,18.9,0,28.3,0c0,4.7,0,9.4,0,14.2
		C615.2,377.4,605.8,377.4,596.4,377.4z"/>
	<path class="st4" d="M695.3,448.1c0,4.7-0.1,9.4-0.1,14.1c0,0,0,0,0,0c-18.8,0-37.6,0-56.5,0c0,0,0,0,0,0c0-4.7-0.1-9.4-0.1-14.1
		c4.7,0,9.5,0,14.2-0.1c9.4,0,18.8,0,28.2,0c4.7,0,9.4,0,14.1,0C695.2,448,695.3,448.1,695.3,448.1z"/>
	<path class="st9" d="M638.8,476.3c-4.7,0-9.4,0-14.2,0c0-4,0.1-8.1,0-12.1c0-1.7,0.5-2.1,2.1-2.1c4,0.1,8.1,0,12.1,0c0,0,0,0,0,0
		C638.8,466.9,638.8,471.6,638.8,476.3L638.8,476.3z"/>
	<path class="st14" d="M681.1,448c-9.4,0-18.8,0-28.2,0c0-9.4-0.1-18.8-0.1-28.3c0-4.7,0-9.4,0-14.1c4.7,0,9.4,0,14.1,0
		c0,4.7,0.1,9.4,0.1,14.1c0,4.2,0,8.4-0.1,12.6c0,1.3,0.3,1.6,1.6,1.6c4.2-0.1,8.4,0,12.5-0.1C681.1,438.6,681.1,443.3,681.1,448z"
		/>
	<path class="st6" d="M652.9,532.8c-4.7,0-9.4,0-14.1,0c0-9.4,0-18.9,0.1-28.3c4.7,0,9.4,0,14,0C652.9,514,652.9,523.4,652.9,532.8z
		"/>
	<path class="st13" d="M638.8,490.4c0-4.7,0-9.4,0-14.1c0,0,0,0,0,0c4.7,0,9.4,0,14.1,0c0,4.7,0,9.4,0,14.1l0,0
		C648.2,490.4,643.5,490.4,638.8,490.4z"/>
	<path class="st9" d="M638.8,490.4c4.7,0,9.4,0,14.1,0c0,4.7,0,9.4,0,14.1l-0.1,0.1c-4.7,0-9.4,0-14,0
		C638.8,499.8,638.8,495.1,638.8,490.4z"/>
	<path class="st9" d="M652.9,532.8c0-9.4,0-18.8,0-28.2c0,0,0.1-0.1,0.1-0.1c3.8,0,7.6,0.1,11.4,0c2.1-0.1,2.9,0.4,2.7,2.6
		c-0.2,3.1,0,6.3-0.1,9.4c-0.1,1.6,0.4,2.2,2.1,2.1c4-0.1,8.1,0,12.1,0c0,0,0,0,0,0c0,4.7,0,9.4,0,14.1
		C671.7,532.8,662.3,532.8,652.9,532.8z"/>
	<path class="st9" d="M624.6,349.1c-4.7,0-9.4,0-14.1,0c0-4,0.1-8,0-12.1c0-1.7,0.5-2.1,2.1-2.1c4,0.1,8,0.1,12,0.1
		C624.7,339.7,624.6,344.4,624.6,349.1z"/>
	<path class="st4" d="M723.5,433.9c-4.7,0-9.4,0-14.1,0l-0.1-0.1c0-4.7,0-9.4,0-14.1c0-4.7,0-9.4,0-14.1c0-4.7,0-9.4,0-14.2
		c0-4.7,0-9.4,0-14.1c4.7,0,9.4,0,14.2,0C723.5,396.2,723.5,415.1,723.5,433.9z"/>
	<path class="st4" d="M681.1,391.5c4.7,0,9.4,0,14.1,0.1c0,4.7,0,9.3,0.1,14c-4.7,0-9.4,0.1-14,0.1l-0.2,0
		C681.1,400.9,681.1,396.2,681.1,391.5z"/>
	<path class="st0" d="M667.1,419.8c0-4.7-0.1-9.4-0.1-14.1c4.7,0,9.4,0,14.1,0c0,0,0.2,0,0.2,0c-0.1,4.7-0.1,9.5-0.2,14.2
		C676.4,419.8,671.7,419.8,667.1,419.8z"/>
	<path class="st0" d="M695.3,405.5c0-4.7,0-9.3-0.1-14c4.7,0,9.4,0,14.1-0.1c0,4.7,0,9.4,0,14.2c-4.7,0-9.4,0-14,0L695.3,405.5z"/>
	<path class="st13" d="M681.1,518.7c-4,0-8.1-0.1-12.1,0c-1.7,0.1-2.1-0.5-2.1-2.1c0.1-3.1-0.1-6.3,0.1-9.4c0.1-2.2-0.7-2.7-2.7-2.6
		c-3.8,0.2-7.6,0-11.4,0c0-4.7,0-9.4,0-14.1c0,0,0,0,0,0c14.1,0,28.3,0,42.4,0c0,0,0,0,0,0c0,4-0.1,8.1,0,12.1
		c0.1,1.7-0.5,2.1-2.1,2.1c-3.1-0.1-6.3,0.1-9.4-0.1c-1.9-0.1-2.7,0.4-2.6,2.5C681.3,510.9,681.1,514.8,681.1,518.7z"/>
	<path class="st4" d="M709.4,433.9c0,4.2-0.1,8.4,0,12.5c0,1.3-0.3,1.6-1.6,1.6c-4.2-0.1-8.3,0-12.5,0c0,0-0.1-0.1-0.1-0.1
		c0-4,0.1-8.1,0.1-12.1c0-1.5,0.5-2,2-2c4,0.1,8,0,12.1-0.1L709.4,433.9z"/>
	<path d="M652.8,476.4c-4.7,0-9.4,0-14.1,0c0-4.7,0-9.5,0-14.2c18.8,0,37.6,0,56.5,0c0,4.7,0,9.4,0,14.2c0,0,0,0,0,0
		C681.1,476.3,667,476.4,652.8,476.4z"/>
	<path class="st9" d="M652.8,476.4c14.1,0,28.3,0,42.4-0.1c0,4.7,0,9.4,0,14.2c-14.1,0-28.3,0-42.4,0
		C652.9,485.8,652.9,481.1,652.8,476.4z"/>
	<path class="st10" d="M709.3,433.8c-4,0-8,0.1-12.1,0.1c-1.5,0-2,0.5-2,2c0.1,4,0,8.1-0.1,12.1c-4.7,0-9.4,0-14.1,0
		c0-4.7,0-9.4,0-14.1c0-4.7,0-9.4,0-14.1c0.1-4.7,0.1-9.5,0.2-14.2c4.7,0,9.4-0.1,14-0.1c0,0,0,0.1,0,0.1c0,4.1,0,8.2-0.1,12.4
		c0,1.3,0.4,1.8,1.7,1.8c4.1-0.1,8.2-0.1,12.4-0.1C709.3,424.4,709.3,429.1,709.3,433.8z"/>
	<path class="st6" d="M681.1,419.8c0,4.7,0,9.4,0,14.1c-4.2,0-8.4,0-12.5,0.1c-1.2,0-1.6-0.3-1.6-1.6c0.1-4.2,0.1-8.4,0.1-12.6
		C671.7,419.8,676.4,419.8,681.1,419.8z"/>
	<path class="st14" d="M709.3,419.7c-4.1,0-8.2,0-12.4,0.1c-1.4,0-1.8-0.5-1.7-1.8c0.1-4.1,0.1-8.2,0.1-12.4c4.7,0,9.4,0,14,0
		C709.3,410.3,709.3,415,709.3,419.7z"/>
</g>
</svg>
