<?xml version="1.0" encoding="utf-8"?>
<!-- Generator: Adobe Illustrator 26.1.0, SVG Export Plug-In . SVG Version: 6.00 Build 0)  -->
<svg version="1.1" id="Calque_1" xmlns="http://www.w3.org/2000/svg" xmlns:xlink="http://www.w3.org/1999/xlink" x="0px" y="0px"
	 viewBox="0 0 335 388" style="enable-background:new 0 0 335 388;" xml:space="preserve">
<style type="text/css">
	.st0{fill:#0000FF;stroke:#0000FF;stroke-miterlimit:10;}
	.st1{fill:#0071BC;stroke:#0000FF;stroke-miterlimit:10;}
	.st2{fill:#FFFFFF;}
</style>
<g>
	<polygon class="st0" points="287.5,347.5 170.5,379.5 50.5,348 14.5,16.5 327,16.5 	"/>
	<polygon class="st1" points="165.5,46.5 165.5,348.5 164.67,348.5 170.18,349.95 267.98,323.2 301,46.5 	"/>
	<polygon class="st2" points="259.92,119.22 74.94,119.22 67.05,79.7 271.05,80.25 	"/>
	<polygon class="st2" points="203.49,285.92 235.1,85.66 275.1,79.98 243,285 	"/>
	<polygon class="st2" points="243,285 163.99,305.94 165.6,269.84 237.15,255.64 	"/>
	<polygon class="st2" points="91.34,287.11 87.33,230.11 118.81,230.47 128,294.29 	"/>
	<polygon class="st2" points="101.14,251.66 166.76,270.52 164.05,305.85 96,288 	"/>
	<polygon class="st2" points="234.42,206.19 83.47,206.29 77.05,166.77 243.52,167.22 	"/>
</g>
</svg>
