<?xml version="1.0" encoding="utf-8"?>
<!-- Generator: Adobe Illustrator 26.1.0, SVG Export Plug-In . SVG Version: 6.00 Build 0)  -->
<svg version="1.1" id="Calque_1" xmlns="http://www.w3.org/2000/svg" xmlns:xlink="http://www.w3.org/1999/xlink" x="0px" y="0px"
	 viewBox="0 0 1161 663" style="enable-background:new 0 0 1161 663;" xml:space="preserve">
<style type="text/css">
	
		.st0{clip-path:url(#SVGID_00000103227589501685524560000001265647183292191895_);fill:#0000FF;stroke:#000000;stroke-width:4;stroke-miterlimit:10;}
	
		.st1{clip-path:url(#SVGID_00000126316631694882794660000004175650565469000074_);fill:none;stroke:#000000;stroke-width:4;stroke-miterlimit:10;}
	.st2{clip-path:url(#SVGID_00000121993653008780888680000005578409056018385598_);fill:#0071BC;}
	
		.st3{clip-path:url(#SVGID_00000034794626623180177460000004964053223132540350_);fill:none;stroke:#000000;stroke-width:4;stroke-miterlimit:10;}
	.st4{clip-path:url(#SVGID_00000025403207022047134190000010288213060364997249_);fill:#FFFFFF;}
	.st5{clip-path:url(#SVGID_00000065768356331855473360000010923315271524181666_);fill:#FFFFFF;}
	.st6{clip-path:url(#SVGID_00000008827398681463495040000005363562697954621315_);fill:#FFFFFF;}
	.st7{clip-path:url(#SVGID_00000054227248089311629260000010973525102879838609_);fill:#FFFFFF;}
	.st8{clip-path:url(#SVGID_00000009569282325568181670000001737528246642156954_);fill:#FFFFFF;}
	.st9{clip-path:url(#SVGID_00000042710294538752064560000012257939487476920498_);fill:#FFFFFF;}
	.st10{fill:#C60000;stroke:#000000;stroke-width:4;stroke-miterlimit:10;}
	.st11{fill:none;}
	.st12{fill:#FFFFFF;}
	.st13{fill:none;stroke:#000000;stroke-width:3;stroke-miterlimit:10;}
</style>
<g>
	<path d="M38.4,548.3c1.4-2.5,2.6-5.1,4.2-7.5c18.7-26.5,37.6-52.9,56.2-79.4c4.1-5.9,6.1-6.7,8.8-4.9c10.4,7.2,10.6,7-4.8,28.6
		c-15.1,21.3-30.2,42.5-45.3,63.8c-2,2.9-4.5,5.4-6.8,8.1C46.6,554.2,42.5,551.2,38.4,548.3z"/>
	<path d="M54.5,559.8c15.6-22,31.3-44,47.4-66.7c4.3,3.1,8.5,6.1,13.1,9.3c-15.9,22.3-31.6,44.5-47.4,66.7
		C63.2,566,58.9,562.9,54.5,559.8z"/>
	<path d="M420.7,36c-1.2,2.2-2.2,4.6-3.6,6.6c-11.8,16.7-23.7,33.3-35.4,50c-3.6,5.1-5.4,5.9-7.8,4.4c-11.2-6.9-11.3-6.8,5-29.8
		c7.8-10.9,15.5-21.9,23.3-32.7c1.9-2.6,4.1-4.9,6.2-7.3C412.5,30.2,416.6,33.1,420.7,36z"/>
	<path d="M87.5,583.2c12.9-18.2,25.9-36.4,39.2-55.2c4.1,2.9,8.3,5.9,13.1,9.3c-13,18.4-26.1,36.8-39.2,55.2
		C96.2,589.4,91.9,586.3,87.5,583.2z"/>
	<path d="M437.6,48c-12.2,17.1-24.3,34.2-37,52.1c-4.2-3-8.5-6-13.1-9.3c12.4-17.5,24.7-34.8,37-52.1
		C428.9,41.8,433.3,44.9,437.6,48z"/>
	<path d="M404.6,24.5C394.8,38.3,385,52.1,374.4,67c-3.7-2.7-7.8-5-11.1-8.3c-0.6-0.6,1.2-5.3,2.7-7.6c8.3-12.1,16.9-24,25.5-36
		C395.9,18.4,400.3,21.4,404.6,24.5z"/>
	<path d="M71.4,571.8c9.1-13.4,18.3-26.8,27.5-40.1c0.6-0.9,2.1-1.5,3.1-1.9c0.6-0.2,0.9,0.4,1.3,0.5c13,5.7,13,5.7-4.1,29.7
		c-5,7-10.3,13.7-15.5,20.5C79.6,577.6,75.5,574.7,71.4,571.8z"/>
	<path d="M453.8,59.4c-9,13.1-17.9,26.3-27.1,39.3c-0.8,1.2-2.8,1.8-4.2,2.4c-0.5,0.2-0.8-0.4-1.2-0.7c-11.7-6.5-11.8-6.6,4.6-29.4
		c5-6.9,10.3-13.5,15.5-20.3C445.6,53.6,449.7,56.5,453.8,59.4z"/>
	<path d="M21.5,536.3c5.6-7.9,11.2-15.7,16.7-23.6c2.9-4.1,4.9-5.5,6.8-3.9c2.6,2.2,5.8,3.7,8.2,6.2c0.8,0.8,0.6,4.3-0.5,5.8
		c-5.8,8.4-12,16.6-18.1,24.8C30.2,542.5,25.8,539.4,21.5,536.3z"/>
	<path d="M470.7,71.4c-5.6,7.9-11.2,15.7-16.7,23.6c-2.9,4.1-4.9,5.5-6.8,3.9c-2.6-2.2-5.8-3.7-8.2-6.2c-0.8-0.8-0.6-4.3,0.5-5.8
		c5.8-8.4,12-16.6,18.1-24.8C462,65.3,466.3,68.4,470.7,71.4z"/>
	<path d="M144.7,390.8c-0.8,0.1-1.1,0.1-1.2,0.1c-13.8-6.9-13.8-6.9,5-33.5c46.7-65.8,93.4-131.5,140.1-197.3
		c2.3-3.2,4.6-6.4,7.2-10.1c4.6,3.3,8.7,6.2,13.2,9.4C254.2,236.6,199.5,313.6,144.7,390.8z"/>
	<path d="M330.7,100.8c4.6,3.3,8.8,6.2,13.5,9.6c-9.1,12.8-18.1,25.6-27.2,38.2c-0.9,1.2-2.8,1.7-4.2,2.4c-0.3,0.2-0.5-0.3-0.8-0.4
		c-12.6-5.7-12.6-5.7,4.1-29.1C320.9,114.7,325.6,108,330.7,100.8z"/>
	<path d="M60.8,509.6c-4.7-3.3-8.8-6.3-13.5-9.6c9.3-13.1,18.2-25.8,27.4-38.4c0.9-1.2,2.8-1.8,4.1-2.3c0.5-0.2,0.8,0.4,1.2,0.7
		c11.5,6.4,11.5,6.4-4.6,29C70.7,495.7,65.9,502.4,60.8,509.6z"/>
	<path d="M360.4,163.6c6.7-9.4,12.9-18.2,20-28.2c4.1,2.9,8.1,5.5,11.7,8.6c0.6,0.5-0.4,3-0.7,4.6c-0.1,0.4-0.7,1.1-1.1,1.6
		c-5.7,7.5-11.4,15-17.1,22.6C369,169.8,364.7,166.7,360.4,163.6z"/>
	<path d="M205.7,311.9c4.3,3.1,8.7,6.2,13.4,9.5c-5.9,8.3-11.1,16-16.7,23.4c-1.3,1.7-3.7,2.2-5.6,3.2c-0.2,0.1-0.3-0.2-0.4-0.2
		C183.9,341.2,184.8,337.5,205.7,311.9z"/>
	<path d="M131.1,486.2c6.5-9.1,12.1-17.2,18-25.2c1-1.3,2.8-2,4.2-2.7c0.5-0.3,0.9,0.3,1.2,0.6c13.1,10.4,14.3,2.4-5.2,30.8
		c-3.1,4.5-5.2,6-7.3,4.3C138.7,491.3,135.2,489.1,131.1,486.2z"/>
	<path d="M358.2,97.2c4.2,3,8.5,6,13.4,9.5c-5.9,8.3-11.5,16.4-17.4,24.3c-0.9,1.3-2.8,2-4.2,2.7c-0.5,0.3-0.8-0.4-1.2-0.7
		C336.3,126.5,337.3,122.5,358.2,97.2z"/>
	<path d="M424.3,136.2c-4-2.8-7.8-5.2-11.2-8.2c-0.6-0.5-0.1-3.7,0.8-5.1c5.6-8.2,11.4-16.3,17.3-24.6c4.7,3.3,8.9,6.3,13.3,9.4
		C438,117,431.7,125.9,424.3,136.2z"/>
	<path d="M348.4,243.2c-4.4-3.2-8.5-6-13.3-9.4c6-8.4,11.8-16.8,17.8-25c0.9-1.2,3.4-2.6,4.1-2.3c4,2.4,7.7,5.2,11.7,8.1
		C361.7,224.5,355.4,233.4,348.4,243.2z"/>
	<path d="M309.3,270c6.3-8.8,11.9-17,17.8-24.9c1.2-1.5,4.4-2.9,5.4-2.4c3.2,1.4,5.6,3.9,8.6,5.7c2.2,1.3,1.3,3.8-1.6,7.8
		c-4.3,5.9-8.4,12.1-12.9,17.8c-1.5,1.9-5,4.1-6,3.6C316.7,275.8,313.4,272.9,309.3,270z"/>
	<path d="M292.5,321.9c-2.1,3.2-3.5,5.4-5,7.6c-4.8,6.8-9.6,13.6-15.3,21.6c-4.1-2.9-8-5.4-11.6-8.5c-0.6-0.5,0.1-3.8,1.1-5.3
		c5.4-8,11.1-15.8,17.5-24.8c2.5,1.8,4.6,3.3,6.7,4.8C288,318.7,290,320.2,292.5,321.9z"/>
	<path d="M182.5,448.7c6.2-8.7,11.7-16.7,17.4-24.3c1.2-1.5,4.3-3.3,5.1-2.9c4,2.2,7.5,5,11.6,7.9c-4,5.6-7.2,10.2-10.4,14.7
		c-3.1,4.3-6.1,8.6-10.1,14.2c-2.4-1.7-4.5-3.2-6.7-4.7C187.3,452.1,185.3,450.7,182.5,448.7z"/>
	<path d="M156.9,484.6c6.2-8.8,11.8-17,17.8-24.8c1.1-1.5,4.3-2.8,5.4-2.3c3.2,1.4,5.6,3.9,8.6,5.7c2.2,1.3,1.3,3.8-1.6,7.8
		c-4.1,5.6-8.2,11.3-12.1,17.1c-3,4.5-5.1,6.1-7.2,4.3C164.5,489.6,160.9,487.4,156.9,484.6z"/>
	<path d="M151.9,491.7c1.5,0.7,2.6,1.1,3.5,1.7c11.4,7.5,11.3,7.4-6.1,30.8c-2.9,3.9-4.9,5.8-6.8,4.2c-2.7-2.2-5.8-3.7-8.2-6.2
		c-0.8-0.8-0.6-4.3,0.5-5.8C140.1,508,146,500,151.9,491.7z"/>
	<path d="M304.8,276.5c4.1,2.9,7.9,5.2,11.1,8.2c0.7,0.7-0.5,4-1.1,6.3c-0.2,0.9-1.5,2.1-2.2,3.2c-16,22.8-18.5,24-26.4,12.9
		c-0.6-0.8-0.3-3.7,0.6-5C292.4,293.7,298.4,285.4,304.8,276.5z"/>
	<path d="M408.7,124.4c-11.4,15.9-9.1,14.5-16.4,9.4c-7.4-5.1-7.4-5.2,3.6-20.6c11.4-16,9-14.7,16.3-9.4
		C420.7,110,421.3,106.3,408.7,124.4z"/>
	<path d="M304.1,242.5c4.1,2.9,8.1,5.4,11.6,8.5c0.7,0.6-0.6,3.8-1.1,5.9c-0.1,0.4-0.7,1.1-1.1,1.6c-16,23.6-18.9,25.2-27.6,14.3
		c-0.7-0.8,0.1-4.5,1.3-6.3C292.3,258.8,297.8,251.3,304.1,242.5z"/>
	<path d="M264.7,312.2c-7.6-5.7-8.3-2.5,3.3-18.9c10.7-15.2,10.8-15.3,17.8-10.2c7.6,5.6,8.3,2.6-3.3,18.9
		C269.9,319.7,273,317.7,264.7,312.2z"/>
	<path d="M242.9,328.7c10.5-14.7,10.5-14.8,17.3-9.8c7.9,5.8,8.6,2.5-3.4,19.4c-12.1,17.1-9.4,15.5-17.3,9.9
		C231.4,342.5,231,345.7,242.9,328.7z"/>
	<path d="M207.2,378.9c6.4-9,11.9-16.9,17.6-24.6c1.1-1.5,3.4-2.2,5.1-2.7c0.7-0.3,1.1,0.6,1.6,1c11.1,7.4,10.7,9.4-7.2,31.4
		c-1.4,1.7-4.4,3.6-5.1,3.2C215,384.8,211.4,381.8,207.2,378.9z"/>
	<path d="M111.8,526.6c-7.1-5.3-7.7-2.6,3.1-17.8c11.4-16.1,11.4-16.1,18.8-10.8c7.1,5.1,7.6,2.8-3.1,17.9
		C119.3,531.9,119.3,531.9,111.8,526.6z"/>
	<path d="M285.5,228c-11.8,16.3-9.1,15.4-17.3,9.7c-8.2-5.8-8.1-3.1,3.5-19.5c11.9-16.7,9-15.2,17.2-9.6
		C295.9,213.3,295.8,213.4,285.5,228z"/>
	<path d="M184,370.9c-10.4,14.7-10.4,14.7-17.3,9.8c-7-5-7-5,3.9-20.2s8.7-14.7,16.4-9.4c0.1,0.1,0.3,0.2,0.4,0.3
		C195.4,357.4,195.5,354.4,184,370.9z"/>
	<path d="M370.1,74c-6.4,9-12,17.1-17.9,25.1c-1.1,1.4-3.1,2-4.7,2.9c-0.3,0.2-0.5-0.3-0.8-0.4c-11.9-5.9-10.9-10.9,6.8-32.5
		c1.3-1.6,4.5-3.2,5.4-2.7C362.7,68.2,365.9,71,370.1,74z"/>
	<path d="M82.3,450.9c6.8-9.6,13-18.3,20.2-28.5c4,2.8,8,5.4,11.6,8.5c0.5,0.4-0.1,3.4-1,4.7c-5.6,8.2-11.5,16.3-17.5,24.8
		C91,457.1,86.9,454.2,82.3,450.9z"/>
	<path d="M333.1,132.2c4,2.9,7.9,5.2,11.2,8.3c0.7,0.7,0,4.4-1.2,6.3c-4.1,6.4-8.6,12.7-13.3,18.7c-1.5,1.9-5,4-6,3.6
		c-13.4-5.4-13.3-5.7,4.1-29.9C329.2,137.2,330.6,135.4,333.1,132.2z"/>
	<path d="M297.2,182.3c12.3-17,9.2-15.2,17.3-9.7c7,4.7,6.9,4.9-3.6,19.6c-12.1,16.9-9.3,15.5-17.3,9.7
		C285.6,196.3,285.2,199.4,297.2,182.3z"/>
	<path d="M144.7,397c12.1-16.9,9.3-15.4,17.3-9.7c8,5.7,8.4,2.5-3.5,19.5c-10.4,14.7-10.5,14.8-17.3,9.8
		C133.3,410.7,132.9,413.9,144.7,397z"/>
	<path d="M109,447.3c6.3-8.9,11.5-16.5,17.1-23.9c1.3-1.7,3.8-2.6,5.7-3.4c0.7-0.3,1,0.6,1.6,1c11.2,7.5,11.1,8.1-7.1,31.1
		c-1.4,1.7-4.5,3.9-5.2,3.6C116.9,453.3,113.2,450.3,109,447.3z"/>
	<path d="M153.6,420.6c1.6,1.1,2.8,2,4.1,2.9c2.8,2,5.6,4,9,6.4c-6.4,9-12.2,17.4-18.3,25.5c-0.9,1.3-3.7,2.5-4.4,2.1
		c-3.8-2.2-7.2-4.9-11.1-7.6C139.8,440,146.3,431,153.6,420.6z"/>
	<path d="M156.9,449.7c5.8-8.2,11.1-15.5,16.2-22.9c3.2-4.6,4.9-4.8,6.7-3.5c2.6,2,5.3,4,8,5.7c2.1,1.3,2.2,3.4-1.3,8.2
		c-20.7,28.2-13.2,23.7-26.5,15.5C159,452.1,158.3,451,156.9,449.7z"/>
	<path d="M182.9,413.5c6.5-9.1,12.6-17.7,19.6-27.5c3.9,2.8,7.9,5.3,11.3,8.4c0.7,0.6-0.5,3.7-1,5.8c-0.1,0.4-0.7,1.1-1.1,1.6
		C195.7,425.5,190.9,427.6,182.9,413.5z"/>
	<path d="M310.4,199.2c6.3-8.9,11.7-16.8,17.5-24.5c1.2-1.6,3.7-2.1,5.6-3.1c0.2-0.1,0.3,0.2,0.4,0.2c11.7,6.3,11,10.1-6.9,32.1
		c-1.3,1.7-4.5,3.3-5.4,2.8C317.8,204.9,314.6,202.1,310.4,199.2z"/>
	<path d="M263.7,244.6c6.7,4.7,6.7,4.8-3.4,18.9c-11.8,16.4-9,15.5-17.2,9.6c-8.2-5.8-8.1-3,3.5-19.5
		C256.5,239.5,256.6,239.5,263.7,244.6z"/>
	<path d="M329.7,207.1c3.9,2.7,7.7,5.1,11,8.2c0.7,0.7-0.6,4.1-1.1,6.3c-0.1,0.4-0.7,1.1-1.1,1.6c-16.5,24.2-18.7,25.1-28.7,11.8
		C316,226.3,322.3,217.4,329.7,207.1z"/>
	<path d="M355,171.8c1.3,0.7,2.4,1.3,3.4,2c10.8,7.3,10.7,7.3-5.8,29.7c-3.2,4.3-5.4,6.3-7.4,4.4c-0.1-0.1-0.2-0.2-0.4-0.3
		C332.8,200.6,333.7,197.4,355,171.8z"/>
	<path d="M305.9,206.4c4.2,3,8.3,5.9,12.9,9.2c-6.1,8.7-12.2,17.2-18.3,25.7c-0.8,1.1-2.5,1.6-3.6,2.1c-0.5,0.2-0.8-0.4-1.2-0.6
		C283.5,236.5,284.6,232.3,305.9,206.4z"/>
	<path d="M171.6,423c-1.6-0.9-2.5-1.2-3.2-1.7c-11.2-7.4-11.2-7.4,6.1-30.7c3.2-4.3,5.2-6,7.3-4.2c2.5,2.2,5.6,3.5,7.8,5.9
		c0.8,0.8,0.6,4.2-0.4,5.8C183.6,406.3,177.8,414.3,171.6,423z"/>
	<path d="M238.2,280.4c6.7,4.8,6.7,4.8-3.3,18.9c-10.3,14.6-10.3,14.6-17.2,9.7s-6.9-4.9,3.4-19.4
		C231.1,275.4,231.1,275.4,238.2,280.4z"/>
	<path d="M216.8,359c-7,9.9-13.1,18.5-19.7,27.7c-4.3-3-8.4-6-12.9-9.2c6.3-8.9,12.7-17.9,19.7-27.7
		C208.1,352.8,212.4,355.8,216.8,359z"/>
	<path d="M349.6,172.4c-4.8-3.4-8.8-6.3-13.1-9.3c6.7-9.4,13.1-18.4,20.3-28.5c3.8,2.7,7.6,5.1,11,8.1c0.6,0.6-0.1,4.1-1.2,5.8
		C361.2,156.3,355.5,164.1,349.6,172.4z"/>
	<path d="M140.6,466.1c-6.9,9.7-13.2,18.6-20.2,28.5c-3.9-2.8-7.7-5.2-11.1-8.1c-0.6-0.5-0.2-3.6,0.7-5c5.5-8.2,11.4-16.2,17.4-24.7
		C132,460,136.2,463,140.6,466.1z"/>
	<path d="M241.2,394.2c-6.7,9.4-12.9,18.2-19.6,27.6c-4.3-3.1-8.5-6-13-9.2c6.4-9,12.8-18,19.6-27.6
		C232.5,388,236.6,390.9,241.2,394.2z"/>
	<path d="M266.9,358.2c-6.8,9.6-12.9,18.2-19.6,27.6c-4.4-3.1-8.6-6.1-13.1-9.3c6.5-9.2,12.9-18.2,19.6-27.6
		C258.2,352.1,262.3,355,266.9,358.2z"/>
	<path d="M293.1,251.6c-6.8,9.5-13,18.4-19.8,27.8c-4.3-3.1-8.5-6-12.9-9.2c6.6-9.3,13-18.3,19.8-27.8
		C284.4,245.4,288.5,248.3,293.1,251.6z"/>
	<path d="M393.7,179.5c-6.8,9.6-13.1,18.4-20,28.1c-3.8-2.7-7.7-5.1-11-8.1c-0.7-0.6-0.2-4,0.8-5.5c5.3-7.9,11-15.7,16.9-24
		C385,173.3,389.1,176.3,393.7,179.5z"/>
	<path d="M405.9,134.1c4.7,3.3,8.8,6.3,13.2,9.4c-6.4,9.1-12.7,17.9-20,28.2c-3.8-2.7-7.8-5.3-11.4-8.4c-0.5-0.5,0-3.3,0.8-4.6
		C394.1,150.6,399.9,142.6,405.9,134.1z"/>
	<path d="M140.6,396.8c-6.4,9.1-12.7,17.9-19.4,27.4c-4.4-3.1-8.6-6.1-13.1-9.3c6.4-9,12.7-17.9,19.4-27.4
		C131.8,390.5,136,393.5,140.6,396.8z"/>
	<path d="M362.1,126.8c6.6-9.2,12.8-18.1,19.5-27.5c4.4,3.1,8.5,6,12.9,9.2c-6.5,9.1-12.8,18-19.5,27.5
		C370.9,133.1,366.7,130.1,362.1,126.8z"/>
	<path d="M254.7,278.3c4.3,3,8.4,6,12.8,9.1c-6.6,9.2-12.8,18.1-19.6,27.6c-4.2-3-8.4-5.9-12.8-9.1
		C241.5,296.8,248,287.8,254.7,278.3z"/>
	<path d="M222.3,351c-4.3-3.1-8.4-6-12.8-9.1c6.5-9.1,12.9-18.1,19.7-27.8c4.2,3,8.4,5.9,12.8,9.1
		C235.6,332.3,229.3,341.2,222.3,351z"/>
</g>
<g>
	<g>
		<g>
			<defs>
				<rect id="SVGID_1_" x="90" y="158" width="368.7" height="427"/>
			</defs>
			<clipPath id="SVGID_00000131340181352421164320000006061441350993002941_">
				<use xlink:href="#SVGID_1_"  style="overflow:visible;"/>
			</clipPath>
			
				<polygon style="clip-path:url(#SVGID_00000131340181352421164320000006061441350993002941_);fill:#0000FF;stroke:#000000;stroke-width:4;stroke-miterlimit:10;" points="
				406.5,541 277.8,576.2 145.7,541.5 106.1,176.7 450,176.7 			"/>
		</g>
		<g>
			<defs>
				<rect id="SVGID_00000011751187711735127460000014031014660279118249_" x="90" y="158" width="368.7" height="427"/>
			</defs>
			<clipPath id="SVGID_00000168820796971347444880000001789365788832388525_">
				<use xlink:href="#SVGID_00000011751187711735127460000014031014660279118249_"  style="overflow:visible;"/>
			</clipPath>
			
				<polygon style="clip-path:url(#SVGID_00000168820796971347444880000001789365788832388525_);fill:none;stroke:#000000;stroke-width:4;stroke-miterlimit:10;" points="
				406.5,540.4 277.8,575.6 145.7,541 106.1,176.2 450,176.2 			"/>
		</g>
		<g>
			<defs>
				<rect id="SVGID_00000129202413188473182360000009869260969407104394_" x="90" y="158" width="368.7" height="427"/>
			</defs>
			<clipPath id="SVGID_00000005965207721150750290000013118805912642709151_">
				<use xlink:href="#SVGID_00000129202413188473182360000009869260969407104394_"  style="overflow:visible;"/>
			</clipPath>
			<polygon style="clip-path:url(#SVGID_00000005965207721150750290000013118805912642709151_);fill:#0071BC;" points="272.7,209.7 
				272.7,542.1 271.8,542.1 277.8,543.7 385.5,514.2 421.8,209.7 			"/>
		</g>
		<g>
			<defs>
				<rect id="SVGID_00000129891954880248592660000011730486847202138791_" x="90" y="158" width="368.7" height="427"/>
			</defs>
			<clipPath id="SVGID_00000108300762914593201280000016074664096117964677_">
				<use xlink:href="#SVGID_00000129891954880248592660000011730486847202138791_"  style="overflow:visible;"/>
			</clipPath>
			
				<polygon style="clip-path:url(#SVGID_00000108300762914593201280000016074664096117964677_);fill:none;stroke:#000000;stroke-width:4;stroke-miterlimit:10;" points="
				272.1,209.2 272.1,541.5 271.2,541.5 277.3,543.1 384.9,513.7 421.3,209.2 			"/>
		</g>
		<g>
			<defs>
				<rect id="SVGID_00000131369939970335248600000008039875974802980788_" x="90" y="158" width="368.7" height="427"/>
			</defs>
			<clipPath id="SVGID_00000168824894584675939240000007453269130174181823_">
				<use xlink:href="#SVGID_00000131369939970335248600000008039875974802980788_"  style="overflow:visible;"/>
			</clipPath>
			<polygon style="clip-path:url(#SVGID_00000168824894584675939240000007453269130174181823_);fill:#FFFFFF;" points="377.4,290.1 
				171.4,290.1 162.6,246 389.8,246.7 			"/>
		</g>
		<g>
			<defs>
				<rect id="SVGID_00000088121582141460071040000004743329475562804925_" x="90" y="158" width="368.7" height="427"/>
			</defs>
			<clipPath id="SVGID_00000165946987313156248660000012363931062443553979_">
				<use xlink:href="#SVGID_00000088121582141460071040000004743329475562804925_"  style="overflow:visible;"/>
			</clipPath>
			<polygon style="clip-path:url(#SVGID_00000165946987313156248660000012363931062443553979_);fill:#FFFFFF;" points="314.1,472.9 
				348.9,252.5 392.9,246.3 357.6,471.9 			"/>
		</g>
		<g>
			<defs>
				<rect id="SVGID_00000054247199982852029080000009714477313386353846_" x="90" y="158" width="368.7" height="427"/>
			</defs>
			<clipPath id="SVGID_00000155107316585658972470000015234916715093136296_">
				<use xlink:href="#SVGID_00000054247199982852029080000009714477313386353846_"  style="overflow:visible;"/>
			</clipPath>
			<polygon style="clip-path:url(#SVGID_00000155107316585658972470000015234916715093136296_);fill:#FFFFFF;" points="357.6,471.9 
				270.6,494.9 272.4,455.2 351.1,439.6 			"/>
		</g>
		<g>
			<defs>
				<rect id="SVGID_00000029040127547111597840000008418091230821733274_" x="90" y="158" width="368.7" height="427"/>
			</defs>
			<clipPath id="SVGID_00000072987416220116000630000014807759596181503878_">
				<use xlink:href="#SVGID_00000029040127547111597840000008418091230821733274_"  style="overflow:visible;"/>
			</clipPath>
			<polygon style="clip-path:url(#SVGID_00000072987416220116000630000014807759596181503878_);fill:#FFFFFF;" points="190.7,473.8 
				186.3,411.1 220.9,411.5 231,481.7 			"/>
		</g>
		<g>
			<defs>
				<rect id="SVGID_00000074438969431190248650000014708788278833480067_" x="90" y="158" width="368.7" height="427"/>
			</defs>
			<clipPath id="SVGID_00000023962554439945909760000018044630229053821876_">
				<use xlink:href="#SVGID_00000074438969431190248650000014708788278833480067_"  style="overflow:visible;"/>
			</clipPath>
			<polygon style="clip-path:url(#SVGID_00000023962554439945909760000018044630229053821876_);fill:#FFFFFF;" points="201.5,435.2 
				273.7,456 270.7,494.8 195.8,475.2 			"/>
		</g>
		<g>
			<defs>
				<rect id="SVGID_00000153691878947930163160000010700748168764841615_" x="90" y="158" width="368.7" height="427"/>
			</defs>
			<clipPath id="SVGID_00000102534977751470014200000013806852846225715847_">
				<use xlink:href="#SVGID_00000153691878947930163160000010700748168764841615_"  style="overflow:visible;"/>
			</clipPath>
			<polygon style="clip-path:url(#SVGID_00000102534977751470014200000013806852846225715847_);fill:#FFFFFF;" points="347.2,384.7 
				182.9,384.8 175.9,341.8 357.2,342.3 			"/>
		</g>
	</g>
</g>
<path d="M475.3,180.5c1.6,0,2.9,0.1,4,0.4c7.5-0.3,13.4-0.4,17.8-0.4h9.8l2.2,2.5c0.1-0.5,0.4-0.8,0.9-0.8l0.5,0.8v17.9h-0.9
	c-1.5-3.3-2.2-5.5-2.2-6.6v-1.7c-1.5,0-3-1.9-4.5-5.8H498V208c0,1.5-0.2,3.5-0.5,5.8c0.3,0.5,0.5,1,0.5,1.7
	c-0.3,3.7-0.5,6.4-0.5,7.9c0,2.4,2.1,4.8,6.3,7.1v0.8h-22.3v-0.4c3.6-2.5,5.3-4.4,5.3-5.8c0-0.6,0.2-1.2,0.5-1.7
	c-0.3-3-0.5-5.7-0.5-7.9V215c0-4.6,0.4-10.2,1.3-16.6c-0.9-5-1.3-8.8-1.3-11.6h-4.5c-1.1,1.1-3.4,5.8-7.1,14.1h-0.5v-17.5
	L475.3,180.5z"/>
<path d="M513.8,180.5h2.5c0.3,0,0.4,0.1,0.4,0.4l0.8-0.4h15.1L528,186v1.2c0,3.8-0.3,6.9-0.8,9.2c0.5,0.9,0.8,2.9,0.8,5.9l0.8-0.4
	h8.4l0.8,0.4V186l-4.6-5.4H554c0,0.3-1.8,2.1-5.4,5.4v4.6c0,1.3-0.4,2.3-1.2,2.9c0.8,2.4,1.2,4,1.2,5v14.2c0,0.5-0.4,0.8-1.2,0.8
	c0.8,9.2,1.7,13.8,2.5,13.8l2.9,2.5c-0.4,1.1-0.8,1.7-1.2,1.7h-12.5c-1,0-2.4-0.4-4.2-1.2v-0.8c0.5,0,1.6-1.1,3.3-3.4v-17.6h-10v4.2
	c-0.8,3.1-1.2,5.5-1.2,7.1c0.8,2.1,1.4,4.5,1.7,7.1c0.4,0,1.8,1.4,4.2,4.2v0.4h-20.5v-0.8c3.6-2.3,5.4-4.2,5.4-5.8v-7.5
	c0-0.3,0.1-0.4,0.4-0.4c0-0.3-0.1-0.4-0.4-0.4l1.2-7.1c-0.5-2.2-0.8-3.9-0.8-5l0.4-2.9c-0.5,0-0.8-0.3-0.8-0.8v-13.4
	c0-1-1.3-2.7-3.8-5v-1.9H513.8z"/>
<path d="M552.7,180.5h7.9c1.6,0.1,2.3,0.4,2.3,0.8c1.7-0.3,3-0.4,3.7-0.4c2,0,4.3,0.3,7,0.8c0.2-0.8,1.4-1.2,3.7-1.2h9.3
	c0,0.6,0.2,0.8,0.5,0.8l-0.5,0.8v15.4l0.5,2.9l-0.9,0.4c-4.9-9.3-7.7-14-8.4-14.2h-8.4V202l0.9-0.4h1.9l1,0.4c0.3-0.8,2-1.8,5.1-2.9
	h0.9v0.4c0,2.1-0.2,6.9-0.5,14.6c0.3,0.5,0.5,1,0.5,1.3l-6.5-7.1h-3.3V225c0.2,0,1.2,0.1,2.8,0.4c3.2-0.3,5.1-0.6,5.6-0.8
	c0,0.3,0.2,0.4,0.5,0.4c1.5-3.6,3-5.4,4.7-5.4v-0.4c0-0.9-0.2-1.6-0.5-2.1c1.2-4.8,2.7-7.8,4.2-8.8c0,2.5,0.2,3.7,0.5,3.7l-0.5,0.8
	v17.1l0.5,0.8l-0.9,0.4H577c-0.3,0-0.5,0.1-0.5,0.4l-1-0.4h-6l-2.3-0.4v0.4l-0.9-0.4c-1.3,0-5.8,0.3-13.5,0.8l-0.5-0.8
	c0-0.3,1.9-1.9,5.6-5V214c0-5.4,0.5-10.1,1.4-14.2c-0.9-3-1.4-5.5-1.4-7.5v-6.7l-5.1-4.6L552.7,180.5L552.7,180.5z"/>
<path d="M604.1,180.5h22c0,0.3-2,2.1-6.1,5.4v5c-0.6,0-1,0.1-1,0.4c0.6,9.8,1,15.9,1,18.2V224c0.1,0.5,0.4,0.8,0.9,0.8h5.2
	c0.8-0.3,3.7-6.9,8.9-19.9h1v17.8c-0.4,2.8-1,4.1-1.9,4.1l2.3,3.7c-0.6,0.3-1.1,0.4-1.4,0.4c-5.7,0-9.8,0.1-12.2,0.4
	c-4.6-0.3-9.9-0.4-15.9-0.4h-4.2v-0.4l6.1-5.4v-2.5c0-1.9,0.2-3.5,0.5-5c-0.3-1.4-0.5-3.1-0.5-5v-0.4c0-0.3-0.2-0.4-0.5-0.4
	c0.3-0.4,0.6-2.2,1-5.4c-0.3-6.3-0.5-12.2-0.5-17.9v-1.2c0-0.3-0.2-0.4-0.5-0.4l0.5-0.8c0-0.5-1.4-1.7-4.2-3.7l-1.4-1.7L604.1,180.5
	z"/>
<path d="M637.8,180.5h7.9c1.6,0.1,2.3,0.4,2.3,0.8c1.7-0.3,3-0.4,3.7-0.4c2,0,4.3,0.3,7,0.8c0.2-0.8,1.4-1.2,3.7-1.2h9.3
	c0,0.6,0.2,0.8,0.5,0.8l-0.5,0.8v15.4l0.5,2.9l-0.9,0.4c-4.9-9.3-7.7-14-8.4-14.2h-8.4V202l0.9-0.4h1.9l1,0.4c0.3-0.8,2-1.8,5.1-2.9
	h0.9v0.4c0,2.1-0.2,6.9-0.5,14.6c0.3,0.5,0.5,1,0.5,1.3l-6.5-7.1h-3.3V225c0.2,0,1.2,0.1,2.8,0.4c3.2-0.3,5.1-0.6,5.6-0.8
	c0,0.3,0.2,0.4,0.5,0.4c1.5-3.6,3-5.4,4.7-5.4v-0.4c0-0.9-0.2-1.6-0.5-2.1c1.2-4.8,2.7-7.8,4.2-8.8c0,2.5,0.2,3.7,0.5,3.7l-0.5,0.8
	v17.1l0.5,0.8l-0.9,0.4H662c-0.3,0-0.5,0.1-0.5,0.4l-1-0.4h-6l-2.3-0.4v0.4l-0.9-0.4c-1.3,0-5.8,0.3-13.5,0.8l-0.5-0.8
	c0-0.3,1.9-1.9,5.6-5V214c0-5.4,0.5-10.1,1.4-14.2c-0.9-3-1.4-5.5-1.4-7.5v-6.7l-5.1-4.6V180.5z"/>
<path d="M695.4,180.3c1.2,0,4.2,1,9,2.9c1.7-1.3,3.2-1.9,4.5-1.9v18.2c-5.6-8.5-10.3-12.7-14.2-12.7c-5.3,0-8,8.7-8,26.1
	c2.1,8,5,12,8.6,12c2.5,0,3.8-1.8,3.8-5.3v-10.5c0-1.6-1.5-3.3-4.5-4.8v-1h16.1c0.9,0.2,1.3,0.8,1.3,1.9l-3.3,1.9v24h-0.6
	c-0.7,0-2-0.6-3.9-1.9c-1.6,1.3-3.3,1.9-5.2,1.9h-1.9c-1,0-1.8-0.3-2.6-1c-0.8,0.6-1.6,1-2.6,1h-0.7c-9.2,0-14.6-8.6-16.1-25.9
	c2.3-16,7.7-24,16.1-24L695.4,180.3z"/>
<path d="M712.4,180.5h7.9c1.6,0.1,2.3,0.4,2.3,0.8c1.7-0.3,3-0.4,3.7-0.4c2,0,4.3,0.3,7,0.8c0.2-0.8,1.4-1.2,3.7-1.2h9.3
	c0,0.6,0.2,0.8,0.5,0.8l-0.5,0.8v15.4l0.5,2.9l-0.9,0.4c-4.9-9.3-7.7-14-8.4-14.2h-8.4V202l0.9-0.4h1.9l1,0.4c0.3-0.8,2-1.8,5.1-2.9
	h0.9v0.4c0,2.1-0.2,6.9-0.5,14.6c0.3,0.5,0.5,1,0.5,1.3l-6.5-7.1h-3.3V225c0.2,0,1.2,0.1,2.8,0.4c3.2-0.3,5.1-0.6,5.6-0.8
	c0,0.3,0.2,0.4,0.5,0.4c1.5-3.6,3-5.4,4.7-5.4v-0.4c0-0.9-0.2-1.6-0.5-2.1c1.2-4.8,2.7-7.8,4.2-8.8c0,2.5,0.2,3.7,0.5,3.7l-0.5,0.8
	v17.1l0.5,0.8l-0.9,0.4h-9.3c-0.3,0-0.5,0.1-0.5,0.4l-1-0.4h-6l-2.3-0.4v0.4l-0.9-0.4c-1.3,0-5.8,0.3-13.5,0.8l-0.5-0.8
	c0-0.3,1.9-1.9,5.6-5V214c0-5.4,0.5-10.1,1.4-14.2c-0.9-3-1.4-5.5-1.4-7.5v-6.7l-5.1-4.6L712.4,180.5L712.4,180.5z"/>
<path d="M747.5,180.5h8.4c3.5,0,6.6,3.3,9.1,9.8l8.3,12.7v-17.5c-0.4,0-1.9-1-4.5-2.9v-1.9h19v1.9c-3.5,0-5.2,2.3-5.2,6.8v7.8
	c0,2,0.2,2.9,0.7,2.9l-0.7,4.9v21.4l0.7,6.8l-1.3,1c-5.2-8.7-11.1-18.1-17.7-28.2c0-0.9-0.6-1.9-1.9-2.9v24.4c3,1.3,4.6,2.6,4.6,3.9
	h-18.7c0-1.3,1.5-2.6,4.6-3.9v-42l-5.2-2.9v-2.1H747.5z"/>
<path d="M790.6,180.5h7.7c10.3,0,17.3,3.6,21,10.7c0,1.3,1.1,4.4,3.4,9.5c0.3,2.9,0.5,4.5,0.5,4.9c-1.1,11.5-3.6,17.3-7.7,17.3
	c-2.5,3.6-3.9,5.3-4.3,5.3c-5.2,1.9-10.1,2.9-14.8,2.9c-3.3-0.3-7-0.4-11-0.4h-1v-0.4l5.3-4.9v-3.3l0.5-4.9l1,0.4h0.5v-0.4
	c-1.3-3-1.9-4.9-1.9-5.8v-2.1c0-7.4,0.3-12.8,1-16.5c-0.6-6.6-2.1-9.9-4.3-9.9v-0.8C788.4,181.1,789.8,180.5,790.6,180.5z
	 M800.1,187.1l0.5,0.8v36.2h0.5c5.6,0,9.1-4.9,10.5-14.8v-4.9c0-0.3,0.2-0.4,0.5-0.4l-0.5-0.8v-1.7c-1.1-9.3-4-14-8.6-14
	L800.1,187.1z"/>
<path d="M853.9,180.5h6.3c10.1,0,16.1,7,18,21.1v5.3c0,8.6-2.5,14.3-7.4,16.9c0,3.3-3.9,5.8-11.6,7.4c-11.8,0-18.5-8.8-20-26.4
	c0-9.5,4.2-16.9,12.7-22.2C852,181.2,852.8,180.5,853.9,180.5z M851.8,196.4v15.8c0,7.7,2.8,11.6,8.4,11.6c3.5,0,5.6-5.3,6.3-15.8
	v-5.3c0-10.6-2.8-15.8-8.4-15.8C853.9,188.6,851.8,191.8,851.8,196.4z M858.1,199.5h1.1c0.9,0,2.7,1.8,5.3,5.3v1
	c-2.8,3.5-4.2,6-4.2,7.4h-1.1c-1.1,0-3.2-2.8-6.3-8.4L858.1,199.5z"/>
<path d="M877.2,180.5h5.4c6.1,0,10.8,0.7,14,2.2c6.5-1.4,11.1-2.2,14-2.2V201c-0.4,0-3.7-4.3-9.7-12.9h-7.6v15.1
	c3.6-1.4,5.4-2.5,5.4-3.2c2.9,1.1,4.3,2.2,4.3,3.2V215c-3.7-3.6-7-5.4-9.7-5.4v11.9c0,2.6,1.4,5.5,4.3,8.6l-5.4,1.1h-15.1v-1.1
	l4.3-5.4v-14c0-5.8,0.4-12.6,1.1-20.5c-0.2-1.2-2-4.1-5.4-8.6v-1.1H877.2z"/>
<path class="st10" d="M472.7,372.1h4.2c3.8,0,10.8,5,21.1,15.1v2.9c-11.3,10.1-16.9,17.1-16.9,21H477c-4.4,0-12.8-8-25.2-23.9
	L472.7,372.1z"/>
<path class="st10" d="M528.7,372.1h4.2c3.8,0,10.8,5,21.1,15.1v2.9c-11.3,10.1-16.9,17.1-16.9,21h-4.2c-4.4,0-12.8-8-25.2-23.9
	L528.7,372.1z"/>
<path class="st10" d="M584.6,372.1h4.2c3.8,0,10.8,5,21.1,15.1v2.9c-11.3,10.1-16.9,17.1-16.9,21h-4.2c-4.4,0-12.8-8-25.2-23.9
	L584.6,372.1z"/>
<path class="st10" d="M608.9,269.2h1.7c17.7,0,38.3,1.1,62,3.2l1.6-3.2l3.4,1.6h10.1c35.5,0,57.3,13.3,65.2,39.9v9.5
	c0,20.5-10.6,34.4-31.8,41.5v1.6c10.2,1.9,18.6,6.1,25.2,12.8c-1.1,2.1-1.7,3.7-1.7,4.8l4.9,3.2c0.4-2.2,1.5-3.2,3.4-3.2
	c6.7,11.3,10,21.9,10,32c-4.4,24.5-12.8,36.7-25.1,36.7c-3.4,0-6.7,2.1-10,6.3c-20.8,4.3-41.4,6.5-62,6.5h-48.6
	c-2.2,0-3.2-1.1-3.2-3.2c0-1.4,5.5-6.8,16.6-16v-63.8c0-4.5,1.7-10.3,5.1-17.6l-3.4-30.4c2.3-4.3,3.4-7.5,3.4-9.5
	c-3.4-5.3-5.1-9.5-5.1-12.8v-20.7l-21.7-17.6L608.9,269.2L608.9,269.2z M674.1,373v33.6c0,2.2-1.1,3.2-3.2,3.2
	c0,1.1,0.6,2.6,1.7,4.7c-1.1,7.3-1.7,13.2-1.7,17.6c1.6,0,3.2,2.7,4.9,8.1c29,0,43.5-9.6,43.5-28.8v-6.5
	C719.4,383.6,704.3,373,674.1,373z M674.1,291.5v60.7h15.1c12.2,0,19.5-8.5,21.8-25.5V314C711,299,698.7,291.5,674.1,291.5z"/>
<path class="st10" d="M762.2,269.9h31.6c6.2,0.3,9.3,1.3,9.3,3.2c6.9-1.1,11.8-1.6,14.9-1.6c8,0,17.3,1,27.9,3.1
	c0.7-3.1,5.7-4.7,14.8-4.7h37.2c0,2.2,0.6,3.2,1.8,3.2l-1.8,3.1v58.7l1.8,11.2l-3.7,1.5c-19.4-35.3-30.5-53.3-33.5-53.9h-33.4v58.7
	l3.7-1.6h7.5l3.8,1.6c1.1-3,7.9-6.7,20.4-11.2h3.7v1.6c0,7.9-0.6,26.4-1.8,55.5c1.2,2.1,1.8,3.7,1.8,4.8l-26.1-27h-13v63.4
	c0.9,0,4.7,0.5,11.1,1.6c12.8-1.1,20.2-2.2,22.3-3.2c0,1.1,0.7,1.6,2,1.6c5.8-13.7,12-20.6,18.6-20.6v-1.6c0-3.6-0.7-6.2-2-7.9
	c5-18.4,10.6-29.5,16.8-33.3c0,9.5,0.6,14.2,1.8,14.2l-1.8,3.2v65l1.8,3.1l-3.7,1.6h-37.2c-1.2,0-1.8,0.5-1.8,1.6l-3.8-1.6h-24.1
	l-9.3-1.6v1.6l-3.7-1.6c-5.3,0-23.3,1.1-54,3.2l-1.8-3.2c0-1,7.4-7.3,22.3-18.9v-44.5c0-20.5,1.9-38.5,5.6-53.9
	c-3.8-11.3-5.6-20.8-5.6-28.6v-25.4L762.2,273L762.2,269.9L762.2,269.9z"/>
<path class="st10" d="M997,402.2c-6.7-6.8-16-18.9-28-36.1c0-3.5-2.6-7.2-7.8-11V448c12.1,4.9,18.2,9.9,18.2,14.8h-74.7
	c0-4.9,6.1-9.9,18.2-14.8V288.4l-20.7-11.2v-7.4h33.7c14.1,0,26.2,12.4,36.2,37.1l31.1,45.4v0.1c2.9-2.8,4.4-5.5,4.4-8.1
	c26.4-38.3,49.9-74,70.5-107.1l5.2,3.8l-2.7,25.8V348l2.7,18.5c-1.8,0-2.7,3.7-2.7,11.2v29.6c0,31.6,6.9,47.4,20.7,47.4v7.4h-75.7
	v-7.4c10.3-7.4,16.3-11.2,18-11.2v-88.2l-33,48.1C1008.3,409.5,1003.7,409.1,997,402.2z"/>
<polygon class="st11" points="429,531.6 438,531.6 438,531.6 "/>
<g>
	<path d="M470.8,545.8c-1.8-1.9-4.2-5.2-7.3-9.9c0-1-0.7-2-2-3v25.5c3.2,1.4,4.8,2.7,4.8,4.1h-19.5c0-1.4,1.6-2.7,4.8-4.1v-43.8
		l-5.4-3.1v-2h8.8c3.7,0,6.8,3.4,9.5,10.2l8.2,12.5l0,0c0.8-0.8,1.1-1.5,1.1-2.2c6.9-10.5,13.1-20.3,18.4-29.4l1.4,1l-0.7,7.1V531
		l0.7,5.1c-0.5,0-0.7,1-0.7,3.1v8.1c0,8.7,1.8,13,5.4,13v2h-19.8v-2c2.7-2,4.3-3.1,4.7-3.1V533l-8.6,13.2
		C473.7,547.8,472.5,547.6,470.8,545.8z"/>
	<path d="M496.1,509.5h8.3c1.6,0.1,2.4,0.4,2.4,0.9c1.8-0.3,3.1-0.4,3.9-0.4c2.1,0,4.5,0.3,7.3,0.8c0.2-0.9,1.5-1.3,3.9-1.3h9.7
		c0,0.6,0.2,0.9,0.5,0.9l-0.5,0.8v16.1l0.5,3.1l-1,0.4c-5.1-9.7-8-14.6-8.8-14.8h-8.7v16.1l1-0.4h2l1,0.4c0.3-0.8,2.1-1.8,5.3-3.1h1
		v0.4c0,2.2-0.2,7.2-0.5,15.2c0.3,0.6,0.5,1,0.5,1.3l-6.8-7.4h-3.4V556c0.2,0,1.2,0.1,2.9,0.4c3.3-0.3,5.3-0.6,5.8-0.9
		c0,0.3,0.2,0.4,0.5,0.4c1.5-3.8,3.1-5.6,4.9-5.6v-0.4c0-1-0.2-1.7-0.5-2.2c1.3-5,2.8-8.1,4.4-9.1c0,2.6,0.2,3.9,0.5,3.9l-0.5,0.9
		v17.8l0.5,0.8l-1,0.4h-9.7c-0.3,0-0.5,0.1-0.5,0.4l-1-0.4h-6.3l-2.4-0.4v0.4l-1-0.4c-1.4,0-6.1,0.3-14.1,0.9l-0.5-0.9
		c0-0.3,1.9-2,5.8-5.2v-12.2c0-5.6,0.5-10.6,1.5-14.8c-1-3.1-1.5-5.7-1.5-7.9v-7l-5.3-4.8v-0.6H496.1z"/>
	<path d="M535.8,509.5c1.6,0,3,0.1,4.2,0.4c7.8-0.3,14-0.4,18.6-0.4h10.3l2.3,2.6c0.1-0.6,0.4-0.8,0.9-0.8l0.5,0.8v18.7h-1
		c-1.5-3.4-2.3-5.7-2.3-6.9V522c-1.5,0-3.1-2-4.6-6.1h-5.1V538c0,1.6-0.2,3.6-0.5,6.1c0.3,0.5,0.5,1.1,0.5,1.7
		c-0.3,3.9-0.5,6.7-0.5,8.2c0,2.5,2.2,5,6.5,7.4v0.8h-23.3v-0.4c3.7-2.6,5.6-4.6,5.6-6c0-0.7,0.2-1.2,0.5-1.7
		c-0.3-3.2-0.5-5.9-0.5-8.2v-0.4c0-4.8,0.5-10.6,1.4-17.3c-0.9-5.2-1.4-9.2-1.4-12.1h-4.6c-1.1,1.1-3.6,6-7.4,14.8h-0.5v-18.2
		L535.8,509.5z"/>
	<path d="M576,509.5h2.6c0.3,0,0.4,0.1,0.4,0.4l0.9-0.4h15.7l-4.8,5.7v1.3c0,4-0.3,7.2-0.8,9.6c0.6,0.9,0.8,3,0.8,6.1l0.9-0.4h8.7
		l0.8,0.4v-17l-4.8-5.7h21.4c0,0.3-1.9,2.2-5.7,5.7v4.8c0,1.4-0.4,2.4-1.3,3.1c0.9,2.5,1.3,4.2,1.3,5.2V543c0,0.6-0.4,0.8-1.3,0.8
		c0.9,9.6,1.7,14.4,2.6,14.4l3,2.6c-0.4,1.2-0.8,1.7-1.3,1.7H602c-1,0-2.5-0.4-4.4-1.3v-0.9c0.6,0,1.7-1.2,3.5-3.5v-18.3h-10.5v4.4
		c-0.9,3.3-1.3,5.7-1.3,7.4c0.9,2.2,1.4,4.7,1.7,7.4c0.4,0,1.9,1.5,4.4,4.4v0.4H574v-0.9c3.8-2.4,5.7-4.4,5.7-6.1v-7.9
		c0-0.3,0.1-0.4,0.4-0.4c0-0.3-0.1-0.4-0.4-0.4l1.3-7.4c-0.6-2.3-0.8-4.1-0.8-5.2l0.4-3.1c-0.6,0-0.8-0.3-0.8-0.8v-14
		c0-1.1-1.3-2.8-3.9-5.2L576,509.5L576,509.5z"/>
	<path d="M631.7,509.5h6.6c10.5,0,16.8,7.3,18.7,22v5.5c0,9-2.6,14.9-7.7,17.6c0,3.4-4,6-12.1,7.7c-12.3,0-19.3-9.2-20.9-27.5
		c0-9.9,4.4-17.6,13.2-23.1C629.7,510.2,630.5,509.5,631.7,509.5z M629.5,526v16.5c0,8.1,2.9,12.1,8.8,12.1c3.7,0,5.9-5.5,6.6-16.5
		v-5.5c0-11-2.9-16.5-8.8-16.5C631.7,517.9,629.5,521.2,629.5,526z M636.1,529.3h1.1c1,0,2.8,1.8,5.5,5.5v1.1
		c-3,3.7-4.4,6.3-4.4,7.7h-1.1c-1.2,0-3.4-2.9-6.6-8.8L636.1,529.3z"/>
	<path d="M661.3,509.5h8c10.7,0,18.1,3.7,21.9,11.2c0,1.3,1.2,4.6,3.5,9.9c0.3,3,0.5,4.7,0.5,5.2c-1.1,12-3.8,18-8,18
		c-2.6,3.7-4.1,5.6-4.5,5.6c-5.4,2-10.6,3-15.5,3c-3.5-0.3-7.3-0.4-11.5-0.4h-1v-0.4l5.5-5.2V553l0.5-5.2l1,0.4h0.5v-0.4
		c-1.3-3.1-2-5.1-2-6v-2.1c0-7.7,0.3-13.4,1-17.2c-0.7-6.9-2.2-10.3-4.5-10.3v-0.8C659,510,660.5,509.5,661.3,509.5z M671.3,516.3
		l0.5,0.9V555h0.5c5.9,0,9.5-5.2,11-15.5v-5.2c0-0.3,0.2-0.4,0.5-0.4l-0.5-0.8v-1.7c-1.2-9.7-4.2-14.6-9-14.6L671.3,516.3z"/>
	<path d="M713.8,509.5h6.6c10.5,0,16.8,7.3,18.7,22v5.5c0,9-2.6,14.9-7.7,17.6c0,3.4-4,6-12.1,7.7c-12.3,0-19.3-9.2-20.9-27.5
		c0-9.9,4.4-17.6,13.2-23.1C711.9,510.2,712.6,509.5,713.8,509.5z M711.6,526v16.5c0,8.1,2.9,12.1,8.8,12.1c3.7,0,5.9-5.5,6.6-16.5
		v-5.5c0-11-2.9-16.5-8.8-16.5C713.8,517.9,711.6,521.2,711.6,526z M718.2,529.3h1.1c1,0,2.8,1.8,5.5,5.5v1.1
		c-3,3.7-4.4,6.3-4.4,7.7h-1.1c-1.2,0-3.4-2.9-6.6-8.8L718.2,529.3z"/>
	<path d="M738.4,509.5h23c0,0.3-2.1,2.2-6.3,5.6v5.2c-0.7,0-1,0.1-1,0.4c0.7,10.3,1,16.6,1,19v15.1c0.1,0.6,0.4,0.8,1,0.8h5.4
		c0.8-0.3,3.9-7.2,9.3-20.7h1v18.6c-0.4,2.9-1.1,4.3-2,4.3l2.4,3.9c-0.6,0.3-1.1,0.4-1.5,0.4c-5.9,0-10.2,0.1-12.7,0.4
		c-4.8-0.3-10.4-0.4-16.6-0.4H737v-0.4l6.3-5.6v-2.6c0-2,0.2-3.7,0.5-5.2c-0.3-1.5-0.5-3.2-0.5-5.2v-0.4c0-0.3-0.2-0.4-0.5-0.4
		c0.3-0.4,0.7-2.3,1-5.6c-0.3-6.6-0.5-12.8-0.5-18.6v-1.3c0-0.3-0.2-0.4-0.5-0.4l0.5-0.9c0-0.5-1.5-1.8-4.4-3.9l-1.5-1.7
		L738.4,509.5z"/>
	<path d="M790.8,509.5h6.6c10.5,0,16.8,7.3,18.7,22v5.5c0,9-2.6,14.9-7.7,17.6c0,3.4-4,6-12.1,7.7c-12.3,0-19.3-9.2-20.9-27.5
		c0-9.9,4.4-17.6,13.2-23.1C788.9,510.2,789.6,509.5,790.8,509.5z M788.6,526v16.5c0,8.1,2.9,12.1,8.8,12.1c3.7,0,5.9-5.5,6.6-16.5
		v-5.5c0-11-2.9-16.5-8.8-16.5C790.8,517.9,788.6,521.2,788.6,526z M795.2,529.3h1.1c1,0,2.8,1.8,5.5,5.5v1.1
		c-3,3.7-4.4,6.3-4.4,7.7h-1.1c-1.2,0-3.4-2.9-6.6-8.8L795.2,529.3z"/>
	<path d="M840.4,509.3c1.3,0,4.4,1,9.4,3c1.8-1.3,3.4-2,4.7-2v19c-5.8-8.9-10.8-13.3-14.8-13.3c-5.6,0-8.3,9.1-8.3,27.3
		c2.2,8.4,5.2,12.5,9,12.5c2.7,0,4-1.8,4-5.5v-11c0-1.7-1.5-3.4-4.6-5v-1h16.8c0.9,0.2,1.4,0.9,1.4,2l-3.4,2v25h-0.7
		c-0.8,0-2.1-0.7-4-2c-1.6,1.3-3.5,2-5.4,2h-2c-1,0-1.9-0.3-2.7-1c-0.8,0.7-1.7,1-2.7,1h-0.7c-9.6,0-15.2-9-16.8-27
		c2.4-16.7,8-25,16.8-25L840.4,509.3z"/>
	<path d="M858.5,509.6h21.7l-5.6,5.6v19.1c-0.6,2.1-0.8,3.2-0.8,3.5v1.7c0,1.3,0.3,2.4,0.8,3.5c0,0.6-0.1,2.2-0.4,4.8
		c0.3,4.4,0.4,7.5,0.4,9.6c2.6,1.5,3.9,3,3.9,4.8l-0.8,0.4h-19.1v-0.4l5.6-5.6v-14.8c0-0.3-0.1-0.4-0.4-0.4l0.4-0.8V518
		c0-2.3-1.7-4.8-5.2-7.4L858.5,509.6z"/>
	<path d="M879.7,509.5h8.3c1.6,0.1,2.4,0.4,2.4,0.9c1.8-0.3,3.1-0.4,3.9-0.4c2.1,0,4.5,0.3,7.3,0.8c0.2-0.9,1.5-1.3,3.9-1.3h9.7
		c0,0.6,0.2,0.9,0.5,0.9l-0.5,0.8v16.1l0.5,3.1l-1,0.4c-5.1-9.7-8-14.6-8.8-14.8h-8.7v16.1l1-0.4h2l1,0.4c0.3-0.8,2.1-1.8,5.3-3.1h1
		v0.4c0,2.2-0.2,7.2-0.5,15.2c0.3,0.6,0.5,1,0.5,1.3l-6.8-7.4h-3.4V556c0.2,0,1.2,0.1,2.9,0.4c3.3-0.3,5.3-0.6,5.8-0.9
		c0,0.3,0.2,0.4,0.5,0.4c1.5-3.8,3.1-5.6,4.9-5.6v-0.4c0-1-0.2-1.7-0.5-2.2c1.3-5,2.8-8.1,4.4-9.1c0,2.6,0.2,3.9,0.5,3.9l-0.5,0.9
		v17.8l0.5,0.8l-1,0.4H905c-0.3,0-0.5,0.1-0.5,0.4l-1-0.4h-6.3l-2.4-0.4v0.4l-1-0.4c-1.4,0-6.1,0.3-14.1,0.9l-0.5-0.9
		c0-0.3,1.9-2,5.8-5.2v-12.2c0-5.6,0.5-10.6,1.5-14.8c-1-3.1-1.5-5.7-1.5-7.9v-7l-5.3-4.8V509.5z"/>
</g>
<rect x="1442.4" y="376.3" class="st11" width="0" height="3.4"/>
<path d="M530.4,491.8L514.7,502c-3,2-7,1.1-9-1.9l0,0c-2-3-1.1-7,1.9-9l15.6-10.2c3-2,7-1.1,9,1.9l0,0
	C534.2,485.8,533.4,489.8,530.4,491.8z"/>
<g>
	<path d="M1078.3,541.8c-1-4-2.7-7.4-5.3-10.4c-2.6-3-5.9-4.9-9.7-5.8c-0.2,0-0.3-0.1-0.5-0.1c-0.9-0.2-1.5-0.6-1.3-1.7
		c0.2-1,1-1.1,1.9-0.9c2.7,0.6,5.3,1.7,7.6,3.3c5,3.5,8,8.3,9.6,14c0.3,1.2,0.8,1.6,2.1,1.6c3.7,0,7.4-0.1,11,0.5
		c12.8,2,22.9,13.3,23.4,26.2c0.3,6.8,0.1,13.6,0.1,20.4c0,6.7,0.2,13.5-0.2,20.2c-1,16.8-14.8,30.9-31.5,32.4
		c-7.1,0.6-14.2,0.5-20.9-2.6c-13.7-6.4-21.1-17.2-21.5-32.3c-0.3-12.1-0.1-24.3,0-36.5c0.1-15.8,12.8-28.3,28.7-28.3
		C1073.8,541.8,1076,541.8,1078.3,541.8z M1045.7,580.8c0,0.3-0.1,0.5-0.1,0.7c0,8.6-0.1,17.1,0,25.7c0.2,12.9,8.6,24.8,20.6,29.6
		c5.5,2.2,11.2,2.5,17,2.3c16.9-0.7,30.8-14.7,31.2-31.5c0.2-8.6,0.1-17.3,0.1-25.9c0-0.3-0.1-0.6-0.1-0.8
		C1091.5,580.8,1068.6,580.8,1045.7,580.8z M1114.5,578c0-2.6,0.1-5.1,0-7.6c-0.3-10.5-5.1-18.2-14.3-23.2
		c-5.9-3.2-12.3-2.9-18.6-2.7c-0.1,0-0.1,0.1-0.3,0.2c0,1.3,0,2.6,0,4c0,0.3,0.4,0.7,0.7,0.8c2.1,1.1,3.2,2.8,3.2,5.1
		c0,4.3,0,8.5,0,12.8c0,2.5-1,4.4-3.3,5.5c-0.3,0.1-0.6,0.5-0.6,0.8c-0.1,1.5,0,2.9,0,4.4C1092.4,578,1103.4,578,1114.5,578z
		 M1045.8,578c10.9,0,21.8,0,32.8,0c0-1.3,0-2.6,0-3.8c0-0.8-0.2-1.2-0.9-1.5c-2-0.9-3-2.5-3-4.7c0-4.6,0-9.2,0-13.8
		c0-1.7,0.7-3.4,2.2-4c1.9-0.8,1.9-2.2,1.8-3.7c0-0.3,0-0.6,0-0.9c0.1-0.9-0.2-1.2-1.1-1.2c-2.3,0.1-4.6,0-7,0.1
		c-7.7,0.4-14,3.6-19,9.5C1045.6,560.9,1045.1,569.2,1045.8,578z M1077.2,561.1c0,2.2,0,4.3,0,6.5c0,1.8,1.1,2.9,2.6,3
		s2.8-1.2,2.8-2.9c0-4.3,0-8.7,0-13c0-1.8-1.2-3-2.8-2.9c-1.5,0.1-2.6,1.2-2.6,3C1077.2,556.8,1077.2,558.9,1077.2,561.1z"/>
	<path class="st12" d="M1045.7,580.8c22.9,0,45.8,0,68.7,0c0,0.3,0.1,0.6,0.1,0.8c0,8.6,0.1,17.3-0.1,25.9
		c-0.4,16.8-14.3,30.8-31.2,31.5c-5.8,0.2-11.5-0.1-17-2.3c-12-4.8-20.4-16.7-20.6-29.6c-0.1-8.6,0-17.1,0-25.7
		C1045.6,581.3,1045.7,581.1,1045.7,580.8z"/>
	<path class="st12" d="M1114.5,578c-11.1,0-22.1,0-33.3,0c0-1.5,0-3,0-4.4c0-0.3,0.4-0.6,0.6-0.8c2.3-1.1,3.3-2.9,3.3-5.5
		c0-4.3,0-8.5,0-12.8c0-2.4-1.1-4.1-3.2-5.1c-0.3-0.2-0.7-0.5-0.7-0.8c-0.1-1.3,0-2.7,0-4c0.2-0.1,0.2-0.2,0.3-0.2
		c6.4-0.2,12.8-0.5,18.6,2.7c9.2,5,14,12.7,14.3,23.2C1114.6,572.9,1114.5,575.4,1114.5,578z"/>
	<path class="st12" d="M1045.8,578c-0.6-8.7-0.2-17.1,5.8-24.1c5-5.9,11.3-9.1,19-9.5c2.3-0.1,4.6,0,7-0.1c0.9,0,1.2,0.3,1.1,1.2
		c0,0.3,0,0.6,0,0.9c0.1,1.6,0.1,2.9-1.8,3.7c-1.5,0.6-2.2,2.3-2.2,4c0,4.6,0,9.2,0,13.8c0,2.2,1.1,3.8,3,4.7c0.8,0.3,1,0.8,0.9,1.5
		c0,1.3,0,2.5,0,3.8C1067.6,578,1056.7,578,1045.8,578z"/>
	<path class="st12" d="M1077.2,561.1c0-2.2,0-4.3,0-6.5c0-1.8,1.1-2.9,2.6-3c1.6-0.1,2.8,1.1,2.8,2.9c0,4.3,0,8.7,0,13
		c0,1.8-1.2,3-2.8,2.9c-1.5-0.1-2.6-1.2-2.6-3C1077.2,565.4,1077.2,563.2,1077.2,561.1z"/>
</g>
<path class="st13" d="M1063,524c0,0-254-72.1-322.3-36.5S419,446,419,446"/>
</svg>
