<?xml version="1.0" encoding="utf-8"?>
<!-- Generator: Adobe Illustrator 26.1.0, SVG Export Plug-In . SVG Version: 6.00 Build 0)  -->
<svg version="1.1" id="Calque_1" xmlns="http://www.w3.org/2000/svg" xmlns:xlink="http://www.w3.org/1999/xlink" x="0px" y="0px"
	 viewBox="0 0 1366 768" style="enable-background:new 0 0 1366 768;" xml:space="preserve">
<style type="text/css">
	.st0{fill:#FFFFFF;}
	.st1{fill:#520001;}
	.st2{fill:#FB6F66;}
	.st3{fill:#AEAEAE;}
	.st4{fill:#0E0D0D;}
	.st5{fill:#885818;}
	.st6{fill:#232F81;}
	.st7{fill:#FC3D70;}
	.st8{fill:#F9D773;}
	.st9{fill:#F8D0BE;}
	.st10{fill:#AE2962;}
	.st11{fill:#408099;}
	.st12{fill:#80D8C8;}
	.st13{fill:#D8A12C;}
</style>
<g>
	<path class="st0" d="M789,237.9c0,32.2,0,64.4,0,96.6c-0.1,0-0.3,0-0.4,0.1c-6.3,0-12.6,0-18.8-0.1c0-0.7-0.1-1.4-0.1-2.1
		c0-17.8,0-35.6,0-53.4c0-2.7,0.4-2.4-2.3-2.4c-5.7,0-11.3,0-17,0c0-6,0-12,0-17.9c0-1.3,0-1.4,1.4-1.4c4.9,0,9.9,0,14.8,0
		c1,0,2.2,0.4,2.8-0.2c0.8-0.7,0.3-1.9,0.3-2.9c0-4.8,0-9.5,0-14.3c0-2.2-0.2-1.9,2-1.9c0.4,0,0.8,0,1.2,0c5.3,0,10.5,0,15.8,0
		C788.7,237.9,788.9,237.9,789,237.9z"/>
	<path class="st1" d="M731.1,122c0,6.4,0,12.9,0,19.3c0,0,0,0,0,0c-12.1,0-24.2,0-36.3,0c-0.8,0-1.5,0.1-2.3,0.1
		c-6.5-0.2-12.9-0.1-19.4,0c-2.2,0-4.5-0.1-6.7-0.1c-10.6,0-21.2,0-31.8,0l0,0c0-6.4,0-12.9,0-19.3C666.7,122,698.9,122,731.1,122z"
		/>
	<path class="st2" d="M499,276.6c5.8,0,11.7,0,17.5,0c0.7,0,1.4,0,2.1-0.1c0,0,0.1,0.1,0.1,0.1c0,0.8-0.1,1.5-0.1,2.3
		c0,10.5,0,21.1,0,31.6c0,1.5,0,3.1,0.1,4.6l-0.1,0.1c-6.5,0-13.1-0.1-19.6-0.1C499,302.3,499,289.4,499,276.6z"/>
	<path class="st3" d="M750.3,662.9c0,0.2,0.1,0.3,0.1,0.5c-57.9,0-115.8,0-173.8,0c0-0.1,0-0.3,0-0.4c0.3,0,0.5,0,0.8,0
		c57,0,114,0,171,0C749,662.9,749.7,662.9,750.3,662.9z"/>
	<path class="st3" d="M789,237.9c-0.1,0-0.3,0-0.4,0c0-8,0-16.1,0-24.1c0-4.8,0-9.6,0-14.5c0.1,0,0.3,0,0.4-0.1
		C789,212.2,789,225,789,237.9z"/>
	<path class="st3" d="M788.6,334.6c0.1,0,0.3,0,0.4-0.1c0,6.4,0,12.9,0,19.3c-0.1,0-0.3,0-0.4,0C788.6,347.4,788.6,341,788.6,334.6z
		"/>
	<path class="st2" d="M518.7,334.6c0-5.7,0-11.5-0.1-17.2c0-0.7,0-1.4,0-2.1c0,0,0.1-0.1,0.1-0.1c5.9,0,11.8,0,17.7,0
		c1.5,0,1.5,0,1.6-1.7c0-1.4,0-2.8,0-4.2c0-4.5,0-9,0.1-13.5c6.4,0,12.8,0,19.1,0c0,0.7,0.1,1.4,0.1,2.1c0,5.2,0,10.3,0,15.5
		c0,1.9-0.1,1.8,1.7,1.8c5.1,0,10.2,0,15.3,0c0.5,0,0.9,0,1.4,0c0.6,0,1,0.2,1,0.9c0,0.4,0,0.9,0,1.4c0,5.2,0,10.4,0,15.6
		c0,1.4,0,1.4,1.3,1.4c6,0,12,0,18-0.1c6.5,0,13,0,19.4,0c0,0.3-0.1,0.6-0.1,1c0,6.1,0,12.2,0,18.3c0,5.8,0,11.7,0,17.5
		c0,1.8,0,1.8,1.8,1.8c0.1,0,0.3,0,0.4,0c12.1,0,24.3,0,36.4,0c6.2,0,12.3,0,18.5,0c19.5,0,38.9,0,58.4,0c0.5,0.7,0.3,1.5,0.3,2.2
		c0,5.7,0,11.4,0,17l0,0c-18.5,0-37,0-55.5,0c-0.8,0-1.7,0.1-2.5,0.1c-0.2,0-0.4-0.1-0.6-0.1c-12.7,0-25.3,0-38,0
		c-0.4,0-0.8-0.1-1.2-0.1c-12,0-24,0-36.1,0c-0.5,0-1,0.1-1.5,0.1c-0.8,0-1.5,0-2.3,0c-5.6,0-11.3,0-16.9,0c0,0,0,0,0,0
		c0-0.6-0.1-1.3-0.1-1.9c0-11.6,0-23.3,0-34.9c0-1.8,0-1.8-1.8-1.8c-5.3,0-10.5,0-15.8,0c-1.7,0-1.7,0.1-1.7-1.7c0-5.3,0-10.7,0-16
		c0-1.6,0-1.6-1.5-1.6C543.4,334.6,531,334.6,518.7,334.6z"/>
	<path class="st4" d="M750.3,662.9c-0.6,0-1.3,0.1-1.9,0.1c-57,0-114,0-171,0c-0.3,0-0.5,0-0.8,0c0-0.5-0.1-1-0.1-1.5
		c0-11.8,0-23.6,0-35.3c0-0.6,0.1-1.2,0.1-1.7c5.9,0,11.7,0,17.6,0c1.7,0,1.7,0,1.7,1.7c0,5,0,10,0,15.1c0,2.8-0.3,2.5,2.4,2.5
		c24.1,0,48.1,0,72.2,0c0.9,0,1.8,0,2.7,0c5.8,0,11.7,0,17.5,0c1.7,0,1.7,0,1.7-1.8c0-5.8,0-11.7,0-17.5c6.5,0,12.9,0,19.4,0l0,0
		c0,6,0,12.1-0.1,18.1c0,1.1,0.5,1.2,1.4,1.2c5,0,9.9,0,14.9,0c1,0,2.2,0.4,2.8-0.2c0.7-0.7,0.3-1.9,0.3-3
		c0.1-5.4,0.1-10.8,0.1-16.2l0,0c5.9,0,11.8,0,17.8,0c1.5,0,1.5,0,1.5,1.4C750.3,638.1,750.3,650.5,750.3,662.9z"/>
	<path class="st5" d="M673.2,643.6c-0.9,0-1.8,0-2.7,0c-24.1,0-48.1,0-72.2,0c-2.7,0-2.4,0.3-2.4-2.5c0-5,0-10,0-15.1
		c0-1.7,0-1.7-1.7-1.7c-5.9,0-11.7,0-17.6,0c-0.1-6.4-0.1-12.9,0-19.3c31.5,0,63,0,94.5,0c0.6,0,1.3,0,1.9,0c0,6.4,0,12.9,0.1,19.3
		C673.2,630.8,673.2,637.2,673.2,643.6z"/>
	<path class="st6" d="M673.1,605c-0.6,0-1.3,0-1.9,0c-31.5,0-63,0-94.5,0c0-5.5-0.1-10.9-0.1-16.4c0-1,0-1.9,0-2.9
		c0,0,0.1-0.1,0.1-0.1c31.3,0,62.5,0,93.8,0c0.5,0,1,0,1.5,0c0.9,0.1,1.2-0.4,1.2-1.3c0-6-0.1-12.1-0.1-18.1c0-1.3,0-2.7,0-4
		c0-4.6,0-9.2,0-13.8c0-0.9,0.2-1.4,1.3-1.4c6,0.1,12,0.1,18.1,0.1c0,12,0,23.9,0,35.9c0,0.5,0,1,0,1.5c0,0.9,0.4,1.1,1.2,1.1
		c0.3,0,0.5,0,0.8,0c5.8,0,11.6,0,17.4,0l0,0c-0.1,6.4-0.1,12.9,0,19.3l0,0c-6.4,0-12.9,0-19.3,0C686,605,679.5,605,673.1,605z"/>
	<path class="st4" d="M518.7,334.6c12.3,0,24.7,0,37,0c1.5,0,1.5,0,1.5,1.6c0,5.3,0,10.7,0,16c0,1.8,0,1.7,1.7,1.7
		c5.3,0,10.5,0,15.8,0c1.8,0,1.8,0,1.8,1.8c0,11.6,0,23.3,0,34.9c0,0.6,0,1.3,0.1,1.9c-6,0-12,0-17.9,0c-1.5,0-1.4,0.1-1.4-1.5
		c0-5.4,0-10.8,0-16.2c0-1.7,0.1-1.6-1.7-1.6c-5.3,0-10.5,0-15.8,0c-2.1,0-1.8,0.2-1.8-1.9c0-5.1,0-10.2,0-15.2
		c0-2.5,0.4-2.2-2.3-2.2c-5.3,0-10.5,0-15.8,0c-0.9,0-1.2-0.2-1.2-1.1C518.7,346.7,518.7,340.6,518.7,334.6z"/>
	<path class="st6" d="M557.2,547.1c-5.7,0-11.5,0-17.2,0c-0.5,0-0.9,0-1.4,0c-0.6,0-0.8-0.3-0.8-0.8c0-0.3,0-0.6,0-1
		c0-24.7,0-49.3,0-74c0-0.5,0.1-1,0.1-1.5c6.4,0,12.8,0,19.2,0c0,5.8,0,11.7,0,17.5c0,1.8,0,1.8,1.8,1.8c5.8,0,11.7,0,17.5,0
		c0,6.4,0,12.9,0,19.3c-5.8,0-11.7,0-17.5,0c-1.8,0-1.8,0-1.8,1.8C557.3,522.5,557.3,534.8,557.2,547.1
		C557.3,547,557.2,547.1,557.2,547.1z"/>
	<path class="st1" d="M557.3,469.8c-6.4,0-12.8,0-19.2,0c0-0.6-0.1-1.3-0.1-1.9c0-11.6,0-23.1,0-34.7c0-0.3,0-0.5,0-0.8
		c-0.1-1,0.2-1.3,1.3-1.3c3,0.1,6,0,9,0c3,0,6,0,9,0l0,0C557.3,444,557.3,456.9,557.3,469.8L557.3,469.8z"/>
	<path class="st6" d="M576.6,585.7c-5.7,0-11.4,0-17.2,0c-0.4,0-0.9,0-1.3,0c-0.6,0-0.8-0.2-0.8-0.8c0-0.5,0-1,0-1.5
		c0-12.1,0-24.2,0-36.3c0,0,0.1-0.1,0.1-0.1c5.6,0,11.3,0,16.9,0c2.6,0,2.4-0.2,2.4,2.4C576.6,561.5,576.6,573.6,576.6,585.7
		L576.6,585.7z"/>
	<path class="st4" d="M576.6,392.5c5.6,0,11.3,0,16.9,0c0.8,0,1.5,0,2.3,0c0,6.4,0,12.8,0.1,19.2c-6.4,0.2-12.8,0.1-19.3,0l0,0
		C576.6,405.3,576.6,398.9,576.6,392.5z"/>
	<path class="st1" d="M557.3,431.1c0-6,0-11.9,0-17.9c0-1.6,0-1.4,1.5-1.4c5.4,0,10.9,0,16.3,0c0.5,0,1,0,1.5-0.1c0,0,0,0,0,0
		c0,6.4,0,12.8-0.1,19.3C570.1,431.1,563.7,431.1,557.3,431.1L557.3,431.1z"/>
	<path class="st4" d="M615.2,353.8c0-6.1,0-12.2,0-18.3c0-0.3,0.1-0.6,0.1-1c5.8,0,11.6,0,17.4,0c2.1,0,1.8,0.1,1.8-1.9
		c0-4.2,0-8.4,0-12.5c0-1.3,0-2.6,0-3.9c0-0.7,0.2-1.1,1-1c0.4,0,0.9,0,1.3,0c5.7,0,11.3,0,17,0l0,0.1c0,5.9,0,11.7,0,17.6
		c0,1.6,0,1.6,1.6,1.6c5.9,0,11.8,0,17.7,0c0.5,0,1,0.1,1.5,0.1c24.6,0,49.3,0,73.9,0c0.6,0,1.2-0.1,1.7-0.1c6.5,0,12.9,0,19.4,0
		c6.3,0,12.6,0,18.8,0.1c0,6.4,0,12.8,0,19.2c-5.4,0-10.8,0-16.2,0c-0.4,0-0.8,0-1.2,0c-1.6,0-1.6,0-1.6,1.5c0,5,0,10,0,15.1
		c0,2.7,0,2.7-2.7,2.7c-5.5,0-11.1,0.1-16.6,0.1c-6.5,0-13.1,0-19.6,0c-19.5,0-38.9,0-58.4,0c-6.2,0-12.3,0-18.5,0c0-2.5,0-5,0-7.5
		c0-3.5,0-6.9,0-10.4c0-1.3,0-1.3-1.4-1.4c-0.4,0-0.8,0-1.2,0C639.2,353.9,627.2,353.8,615.2,353.8z"/>
	<path class="st5" d="M673.1,392.6c0.8,0,1.7-0.1,2.5-0.1c18.5,0,37,0,55.5,0c0,4.3-0.1,8.7-0.1,13c0,2.1,0,4.2,0,6.3l0,0
		c-19.3,0-38.6,0-57.9,0C673.1,405.4,673.1,399,673.1,392.6z"/>
	<path class="st5" d="M731.1,489.1c0,6.4,0,12.9,0,19.3l0,0c-6.4,0-12.9,0-19.3,0.1c-0.8,0-1.5-0.1-2.3-0.1c-11.4,0-22.8,0-34.2,0
		c-0.7,0-1.4,0-2.1-0.1c0-6.4,0-12.8,0-19.2C692.5,489.1,711.8,489.1,731.1,489.1L731.1,489.1z"/>
	<path class="st6" d="M731,508.4c5.9,0,11.7,0,17.6,0c1.7,0,1.7,0,1.7,1.6c0,11.8,0,23.6,0,35.3c0,1.7,0,1.7-1.7,1.7
		c-5.9,0-11.7,0-17.6,0l0,0C731.1,534.2,731.1,521.3,731,508.4L731,508.4z"/>
	<path class="st5" d="M750.4,431.1c5.9,0,11.8,0,17.8,0c1.5,0,1.5,0,1.5,1.5c0,11.9,0,23.8,0,35.7c0,1.4,0,1.5-1.5,1.5
		c-5.9,0-11.8,0-17.8,0l0,0c0-0.4-0.1-0.9-0.1-1.3c0-12,0-24,0-36C750.3,432,750.4,431.5,750.4,431.1
		C750.4,431.1,750.4,431.1,750.4,431.1z"/>
	<path class="st6" d="M731.1,547c0,1.9-0.1,3.9-0.1,5.8c0,10.2,0,20.4,0,30.7c0,0.4,0,0.9,0,1.3c0,0.7-0.3,0.9-0.9,0.9
		c-0.2,0-0.4,0-0.6,0c-5.9,0-11.8,0-17.7,0l0,0c0-12.9,0-25.8,0-38.7l0,0C718.2,547,724.6,547,731.1,547L731.1,547z"/>
	<path class="st5" d="M730.7,373.2c6.5,0,13.1,0,19.6,0c0,5.9,0,11.8,0,17.8c0,1.4,0,1.5-1.5,1.5c-5.9,0-11.8,0-17.7,0
		c0-5.7,0-11.4,0-17C731,374.7,731.2,373.9,730.7,373.2z"/>
	<path class="st5" d="M731.1,411.8c5.8,0,11.7,0,17.5,0c1.7,0,1.7,0,1.7,1.8c0,5.8,0,11.7,0.1,17.5c0,0,0,0,0,0c-6,0-12.1,0-18.1,0
		c-0.8,0-1.3,0-1.3-1.1C731.1,424,731.1,417.9,731.1,411.8L731.1,411.8z"/>
	<path class="st5" d="M750.4,469.7c0,5.7,0,11.4,0,17.2c0,0.4,0,0.9,0,1.3c0,0.5-0.2,0.9-0.8,0.8c-0.3,0-0.5,0-0.8,0
		c-5.9,0-11.8,0-17.7,0c0,0,0,0,0,0c0-6-0.1-11.9-0.1-17.9c0-1.4,0-1.4,1.5-1.4C738.5,469.8,744.4,469.8,750.4,469.7L750.4,469.7z"
		/>
	<path class="st4" d="M711.8,605c5.8,0,11.7,0,17.5,0c1.9,0,1.7-0.1,1.7,1.8c0,5.8,0,11.7,0.1,17.5c0,0,0,0,0,0
		c-6.4,0-12.9,0-19.3,0l0,0C711.8,617.9,711.8,611.4,711.8,605L711.8,605z"/>
	<path class="st1" d="M595.9,160.6c0-6.1,0-12.2-0.1-18.3c0-0.7,0.1-1.1,1-1c0.4,0.1,0.9,0,1.3,0c12.1,0,24.2,0,36.4,0c0,0,0,0,0,0
		c0,1.6,0,3.2,0,4.8c0,4.8-0.1,9.7-0.1,14.5c-0.1,0-0.2,0-0.3,0.1c-4.6,0-9.3,0-13.9,0C612.1,160.7,604,160.6,595.9,160.6
		L595.9,160.6z"/>
	<path class="st1" d="M518.7,257.3c0-0.6-0.1-1.3-0.1-1.9c0-11.6,0-23.1,0-34.7c0-0.2,0-0.4,0-0.6c0-1.5,0-1.5,1.4-1.5
		c2.6,0,5.3,0,7.9,0c3.3,0,6.7,0,10,0l0,0c0,12.9,0,25.7,0,38.6l0,0.1C531.6,257.3,525.1,257.3,518.7,257.3z"/>
	<path class="st1" d="M557.3,199.3c0-6,0-12-0.1-18.1c0-1.1,0.4-1.3,1.3-1.2c6,0,12,0,18.1,0c0,0,0,0,0,0c0,2.1,0,4.2,0,6.3
		c0,4.3-0.1,8.7-0.1,13c-0.1,0-0.2,0-0.3,0.1C569.9,199.3,563.6,199.3,557.3,199.3L557.3,199.3z"/>
	<path class="st1" d="M576.6,179.9c0-6,0-12-0.1-18.1c0-1.1,0.4-1.3,1.3-1.2c6,0,12,0,18.1,0c0,0,0,0,0,0c0,1.6,0,3.2,0,4.8
		c0,4.8-0.1,9.7-0.1,14.5c-0.1,0-0.2,0-0.3,0.1C589.2,180,582.9,180,576.6,179.9L576.6,179.9z"/>
	<path class="st2" d="M518.7,257.3c6.4,0,12.8,0,19.2,0c0,1.9,0,3.7,0,5.6c0,4.6-0.1,9.2-0.1,13.8c-6.4,0-12.8,0-19.1,0
		c0,0-0.1-0.1-0.1-0.1c0-5.7,0-11.4,0-17.1C518.6,258.7,518.7,258,518.7,257.3z"/>
	<path class="st1" d="M538,218.6c0-6,0-12,0-18c0-1.3,0-1.3,1.4-1.3c6,0,12,0,17.9,0c0,0,0,0,0,0c0,6.4,0,12.9-0.1,19.3
		C550.8,218.6,544.4,218.6,538,218.6C538,218.6,538,218.6,538,218.6z"/>
	<path class="st4" d="M595.9,334.5c-6,0-12,0-18,0.1c-1.3,0-1.3,0-1.3-1.4c0-5.2,0-10.4,0-15.6c0-0.5,0-0.9,0-1.4
		c0-0.7-0.3-0.9-1-0.9c-0.4,0-0.9,0-1.4,0c-5.1,0-10.2,0-15.3,0c-1.9,0-1.7,0.1-1.7-1.8c0-5.2,0-10.3,0-15.5c0-0.7-0.1-1.4-0.1-2.1
		c0-0.7,0.1-1.4,0.1-2.1c0-12.2,0-24.3,0-36.5c4.2,0,8.5,0,12.7,0c1.8,0,3.6,0,5.4,0c0.9,0,1.3-0.4,1.2-1.2c0-0.4,0-0.9,0-1.3
		c0-11.2,0-22.5,0-33.7c0-0.8,0.1-1.5,0.1-2.3c2.8,0,5.7,0,8.5,0c3.2,0,6.3,0,9.5,0c0.9,0,1.4-0.2,1.3-1.2c0-0.5,0-1,0-1.5
		c0-5.5,0-11.1,0.1-16.6l0,0c12.3,0,24.6,0,37,0c0.2,0,0.4,0,0.6,0c0.7,0,1-0.3,1-1c0-0.5,0-1,0-1.5c0-5.6,0-11.2,0.1-16.8
		c0,0,0,0,0,0c6.4,0,12.9,0,19.3,0c6.4,0,12.9,0,19.3,0c6.4,0.1,12.9,0.1,19.3,0c6.4,0,12.8,0,19.2,0c6.5,0,12.9,0,19.4,0
		c6.5,0,12.9,0,19.4,0c5.8,0,11.7,0,17.5,0c1.8,0,1.7-0.1,1.7,1.6c0,5.3,0,10.5,0,15.8c0,2.2-0.3,1.9,2,1.9c5.6,0,11.3,0,16.9,0
		c0,4.8,0,9.6,0,14.5c0,8,0,16.1,0,24.1c-5.3,0-10.5,0-15.8,0c-0.4,0-0.8,0-1.2,0c-2.2,0-2-0.3-2,1.9c0,4.8,0,9.5,0,14.3
		c0,1,0.5,2.3-0.3,2.9c-0.6,0.6-1.8,0.2-2.8,0.2c-4.9,0-9.9,0-14.8,0c-1.3,0-1.4,0-1.4,1.4c0,6,0,12,0,17.9c0,0,0,0,0,0
		c-6.4,0-12.9,0-19.3,0.1c0-0.7-0.1-1.4-0.1-2.1c0-11.3,0-22.5,0-33.8c0-0.3,0-0.6,0-1c0-2,0.2-1.8-1.9-1.8c-0.1,0-0.1,0-0.2,0
		c-11.6,0-23.1,0-34.7,0c-0.6,0-1.3,0.1-1.9,0.1c-2.8,0-5.5-0.1-8.3-0.1c-3.6,0-7.2-0.1-10.8,0.1c-0.5,0-1-0.1-1.5-0.1
		c-12,0-24,0-36,0c-0.4,0-0.9,0.1-1.3,0.1c-6,0-12.1,0-18.1-0.1c-1.3,0-1.1,0.8-1.1,1.5c0,5.2,0,10.4,0,15.6c0,0.5,0,0.9,0,1.4
		c0,0.6-0.3,0.8-0.8,0.8c-0.5,0-0.9,0-1.4,0c-5.2,0-10.4,0-15.6,0c-1.5,0-1.5,0-1.5,1.5c0,0.3,0,0.5,0,0.8c0,11.4,0,22.8,0,34.2
		c0,2.5-0.3,2.2,2.3,2.2c5.7,0,11.3,0.1,17,0.1c0,5.9,0,11.8,0,17.8c0,1.4,0,1.5-1.5,1.5c-3.5,0-7.1,0-10.6,0
		c-2.4,0-4.7-0.3-7.1,0.2c-0.3,2.3-0.1,4.6-0.1,6.9C595.8,326.4,595.9,330.4,595.9,334.5z"/>
	<path class="st1" d="M750.4,180c-6.5,0-12.9,0-19.4,0c0-6.4,0-12.9-0.1-19.3c0-0.8,0.1-1.7,0.1-2.5c0-5.6,0-11.2,0.1-16.8
		c0,0,0,0,0,0c5.8,0,11.7,0,17.5,0c2,0,1.7-0.1,1.7,1.8c0,11.6,0,23.1,0,34.7C750.3,178.6,750.4,179.3,750.4,180z"/>
	<path class="st5" d="M769.7,334.5c-6.5,0-12.9,0-19.4,0c0-2.2,0-4.5,0-6.7c0-4.2-0.1-8.4-0.1-12.6c0-0.7,0.1-1.4,0.1-2.1
		c0-10.2,0-20.3,0-30.5c0-2,0-4,0.1-6c0,0,0,0,0,0c5.7,0,11.3,0,17,0c2.7,0,2.3-0.3,2.3,2.4c0,17.8,0,35.6,0,53.4
		C769.6,333.1,769.7,333.8,769.7,334.5z"/>
	<path class="st7" d="M634.4,160.6c0-4.8,0.1-9.7,0.1-14.5c0-1.6,0-3.2,0-4.8c10.6,0,21.2,0,31.8,0c2.2,0,4.5,0,6.7,0.1
		c0,6.4,0,12.8,0,19.2c-0.7,0-1.4,0-2.1,0c-5.7,0-11.4,0-17.1,0C647.3,160.7,640.9,160.6,634.4,160.6z"/>
	<path class="st7" d="M731.1,141.3c0,5.6,0,11.2-0.1,16.8c0,0.8,0,1.7-0.1,2.5c-0.8,0-1.5,0.1-2.3,0.1c-5.6,0-11.3,0-16.9,0
		c-6.4,0-12.8,0-19.2-0.1c0-6.4,0-12.8,0-19.2c0.8,0,1.5-0.1,2.3-0.1C706.9,141.3,719,141.3,731.1,141.3z"/>
	<path class="st8" d="M692.5,141.4c0,6.4,0,12.8,0,19.2c0,6.4,0,12.9,0,19.3c-6.4,0.1-12.9,0.1-19.3,0c0-1.5,0-2.9,0-4.4
		c0-5-0.1-10-0.1-14.9c0-6.4,0-12.8,0-19.2C679.5,141.3,686,141.3,692.5,141.4z"/>
	<path class="st5" d="M518.7,276.6c6.4,0,12.8,0,19.1,0c0,1.3,0.1,2.7,0.1,4c0,5.1,0.1,10.1,0.1,15.2c0,4.5,0,9-0.1,13.5
		c0,1.4,0,2.8,0,4.2c0,1.6,0,1.7-1.6,1.7c-5.9,0-11.8,0-17.7,0c0-1.5-0.1-3.1-0.1-4.6c0-10.5,0-21.1,0-31.6
		C518.7,278.2,518.7,277.4,518.7,276.6z"/>
	<path class="st9" d="M595.9,334.5c0-4.1,0-8.1,0-12.2c0-2.3-0.2-4.6,0.1-6.9c2.3-0.5,4.7-0.2,7.1-0.2c3.5-0.1,7.1,0,10.6,0
		c1.5,0,1.5,0,1.5-1.5c0-5.9,0-11.8,0-17.8c0-5.8,0-11.6,0.1-17.3c0-2.2-0.1-2.1,2.1-2.1c1.4,0,2.8,0,4.2,0c4.3,0,8.6-0.1,12.9-0.1
		c0,0.8,0.1,1.5,0.1,2.3c0,5.1,0,10.3,0,15.4c0,1.6,0,1.6,1.6,1.7c5.8,0,11.7,0,17.5,0c0,0.2,0.1,0.5,0.1,0.7c0,6.2,0,12.4,0,18.6
		c-5.7,0-11.3,0-17,0c-0.4,0-0.9,0-1.3,0c-0.8-0.1-1,0.3-1,1c0,1.3,0,2.6,0,3.9c0,4.2,0,8.4,0,12.5c0,2,0.3,1.9-1.8,1.9
		c-5.8,0-11.6,0-17.4,0C608.8,334.5,602.3,334.5,595.9,334.5z"/>
	<path class="st9" d="M538,295.9c0-5.1,0-10.1-0.1-15.2c0-1.3,0-2.7-0.1-4c0-4.6,0.1-9.2,0.1-13.8c0-1.9,0-3.7,0-5.6
		c0,0,0-0.1,0-0.1c0.7,0,1.4,0,2.1,0c5.7,0,11.4,0,17.2,0c0,12.2,0,24.3,0,36.5c0,0.7-0.1,1.4-0.1,2.1
		C550.8,295.9,544.4,295.9,538,295.9z"/>
	<path class="st10" d="M595.9,411.8c0-6.4,0-12.8-0.1-19.2c0.5,0,1-0.1,1.5-0.1c12,0,24,0,36.1,0c0.4,0,0.8,0,1.2,0.1
		c0,6.4,0,12.8,0,19.3c-6.4,0-12.9,0-19.3,0C608.8,411.8,602.3,411.8,595.9,411.8z"/>
	<path class="st1" d="M634.6,411.8c0-6.4,0-12.8,0-19.3c12.7,0,25.3,0,38,0c0.2,0,0.4,0,0.6,0.1c0,6.4,0,12.8,0,19.2c0,0,0,0,0,0
		c-1.2,0-2.4,0-3.6,0c-5.2,0-10.5,0-15.7,0.1c-0.8,0-1.5-0.1-2.3-0.1C645.8,411.8,640.2,411.8,634.6,411.8
		C634.5,411.8,634.6,411.8,634.6,411.8z"/>
	<path class="st9" d="M615.2,353.8c12,0,24,0,36,0c0.4,0,0.8,0,1.2,0c1.4,0,1.4,0,1.4,1.4c0,3.5,0,6.9,0,10.4c0,2.5,0,5,0,7.5
		c-12.1,0-24.3,0-36.4,0c-0.1,0-0.3,0-0.4,0c-1.8,0-1.8,0-1.8-1.8C615.2,365.5,615.2,359.7,615.2,353.8z"/>
	<path class="st5" d="M711.8,605c0,6.4,0,12.9,0,19.3c-6.5,0-12.9,0-19.4,0c0,0,0,0,0,0c0-6.4,0-12.9,0-19.3
		C698.9,605,705.3,605,711.8,605z"/>
	<path class="st8" d="M673.2,643.6c0-6.4,0-12.9,0-19.3c6.4,0,12.9,0,19.3,0c0,0,0,0,0,0c0,5.8,0,11.7,0,17.5c0,1.8,0,1.8-1.7,1.8
		C684.9,643.6,679,643.6,673.2,643.6z"/>
	<path class="st8" d="M711.8,624.3c6.4,0,12.9,0,19.3,0c0,5.4,0,10.8-0.1,16.2c0,1,0.5,2.3-0.3,3c-0.7,0.6-1.8,0.2-2.8,0.2
		c-5,0-9.9,0-14.9,0c-0.9,0-1.4-0.1-1.4-1.2C711.8,636.4,711.7,630.3,711.8,624.3z"/>
	<path class="st4" d="M692.5,624.3c-6.4,0-12.9,0-19.3,0c0-6.4,0-12.9-0.1-19.3c6.5,0,12.9,0,19.4,0
		C692.5,611.5,692.5,617.9,692.5,624.3z"/>
	<path class="st11" d="M576.6,585.7c0-12.1,0-24.1,0-36.2c0-2.6,0.2-2.4-2.4-2.4c-5.6,0-11.3,0-16.9,0c0-12.3,0-24.5,0-36.8
		c0-1.8,0-1.8,1.8-1.8c5.8,0,11.7,0,17.5,0c0,0,0,0,0,0c0,5.8,0,11.7,0,17.5c0,1.8,0,1.8,1.6,1.8c5.9,0,11.8,0,17.7,0
		c0.7,0,1.4,0,2.1,0c5.7,0,11.5,0,17.2,0.1c0,5.9,0,11.8,0,17.7c0,1.5,0,1.5,1.5,1.5c0.4,0,0.9,0,1.3,0c4.9,0,9.9,0,14.8,0
		c1.6,0,1.6,0,1.6,1.6c0,1.3,0,2.7,0,4c0,4,0,8,0,12c0,1.7,0,1.7,1.7,1.7c0.2,0,0.4,0,0.6,0c11.4,0,22.7,0,34.1,0
		c0.7,0,1.4-0.1,2.1-0.1c0,6,0,12.1,0.1,18.1c0,0.9-0.3,1.3-1.2,1.3c-0.5,0-1,0-1.5,0C639.1,585.7,607.9,585.7,576.6,585.7z"/>
	<path class="st12" d="M673.1,566.3c-0.7,0-1.4,0.1-2.1,0.1c-11.4,0-22.7,0-34.1,0c-0.2,0-0.4,0-0.6,0c-1.7,0-1.7,0-1.7-1.7
		c0-4,0-8,0-12c0-1.3,0-2.7,0-4c0-1.6,0-1.6-1.6-1.6c-4.9,0-9.9,0-14.8,0c-0.4,0-0.9,0-1.3,0c-1.5,0-1.5,0-1.5-1.5
		c0-5.9,0-11.8,0-17.7c0.7,0,1.4,0,2.1,0c11.4,0,22.7,0,34.1,0c0.5,0,1,0,1.5,0c0.6,0,0.8-0.3,0.8-0.8c0-0.4,0-0.9,0-1.3
		c0-4.9,0-9.9,0-14.8c0-2.6-0.3-2.3,2.2-2.3c2.5,0,5,0,7.5,0c3.2,0,6.4,0,9.6-0.1c0.7,0,1.4,0.1,2.1,0.1c11.4,0,22.8,0,34.2,0
		c0.8,0,1.5,0,2.3,0.1c0,12.8,0,25.7,0,38.5c0,0,0,0,0,0c-1.5,0-2.9,0-4.4,0c-5,0-9.9,0.1-14.9,0.1c-6,0-12,0-18.1-0.1
		c-1.1,0-1.3,0.4-1.3,1.4c0,4.6,0,9.2,0,13.8C673.1,563.6,673.1,564.9,673.1,566.3z"/>
	<path class="st11" d="M692.4,547.1c5,0,9.9,0,14.9-0.1c1.5,0,2.9,0,4.4,0c0,12.9,0,25.8,0,38.7c-5.8,0-11.6,0-17.4,0
		c-0.3,0-0.5,0-0.8,0c-0.8,0-1.2-0.3-1.2-1.1c0-0.5,0-1,0-1.5C692.4,571.1,692.4,559.1,692.4,547.1z"/>
	<path class="st1" d="M576.6,508.4c0-6.4,0-12.9,0-19.3l0,0c5.8,0,11.7,0,17.5,0c1.8,0,1.8,0,1.8,1.8c0,5.8,0,11.7,0,17.5
		c0,0,0,0,0,0C589.5,508.4,583,508.4,576.6,508.4L576.6,508.4z"/>
	<path class="st1" d="M576.6,489.1c-5.8,0-11.7,0-17.5,0c-1.8,0-1.8,0-1.8-1.8c0-5.8,0-11.7,0-17.5c0,0,0,0,0,0c5.8,0,11.7,0,17.5,0
		c1.8,0,1.8,0,1.8,1.8C576.6,477.4,576.6,483.2,576.6,489.1L576.6,489.1z"/>
	<path class="st10" d="M576.6,489.1c0-5.8,0-11.7,0-17.5c0-1.8,0-1.8-1.8-1.8c-5.8,0-11.7,0-17.5,0c0-12.9,0-25.8,0-38.7
		c6.4,0,12.8,0,19.2-0.1c0,5.7,0,11.3,0.1,17c0,0.5,0,1,0,1.5c0,0.5,0.3,0.8,0.8,0.9c0.5,0,1,0,1.5,0c5,0,10,0,15,0
		c1.9,0,1.9,0,1.9,1.9c0,5,0,9.9,0,14.9c0,0.5,0,1,0,1.5c0,0.6,0.3,1,0.9,1c0.4,0,0.9,0,1.3,0c5.1,0,10.2,0,15.2,0
		c1.8,0,1.8,0,1.8,1.8c0,3.7,0,7.3,0,11c0,1.7,0,3.5,0,5.2c0,0.9,0.3,1.3,1.2,1.3c0.5,0,1,0,1.5,0c5.5,0,11.1,0,16.6,0.1
		c0,5.7,0,11.3-0.1,17c0,2.5,0.2,2.3-2.3,2.3c-12.1,0-24.2,0-36.3,0c0-5.8,0-11.7,0-17.5c0-1.8,0-1.8-1.8-1.8
		C588.3,489.1,582.4,489.1,576.6,489.1z"/>
	<path class="st7" d="M634.6,489.1c-5.5,0-11.1,0-16.6-0.1c-0.5,0-1,0-1.5,0c-0.9,0.1-1.3-0.4-1.2-1.3c0-1.7,0-3.5,0-5.2
		c0-3.7,0-7.3,0-11c0-1.8,0-1.8-1.8-1.8c-5.1,0-10.2,0-15.2,0c-0.4,0-0.9,0-1.3,0c-0.6,0-0.9-0.3-0.9-1c0-0.5,0-1,0-1.5
		c0-5,0-9.9,0-14.9c0-1.9,0-1.9-1.9-1.9c-5,0-10,0-15,0c-0.5,0-1,0-1.5,0c-0.5,0-0.8-0.3-0.8-0.9c0-0.5,0-1,0-1.5
		c0-5.7,0-11.3-0.1-17c0-6.4,0-12.8,0.1-19.3c6.4,0.1,12.8,0.1,19.3,0c6.4,0,12.9,0,19.3,0c0,5.9,0,11.8,0,17.8c0,1.6,0,1.6,1.6,1.6
		c5.9,0,11.8,0,17.7,0c0,0,0,0,0,0c0,12.3,0,24.6,0,36.9c0,1.8,0,1.8,1.8,1.8c5.8,0,11.7,0,17.5,0c0,0,0,0,0,0c0,6.4,0,12.9,0,19.3
		c-0.8,0-1.5,0.1-2.3,0.1C645.9,489.1,640.2,489.1,634.6,489.1z"/>
	<path class="st2" d="M653.8,315.2c0-6.2,0-12.4,0-18.6c0-0.2-0.1-0.5-0.1-0.7c0,0,0.1,0,0.1,0l0.1,0.1c6.4,0,12.8,0,19.2,0
		c6.4,0,12.9,0,19.3,0c0,5.9,0,11.7,0,17.6c0,1.7,0,1.7,1.7,1.7c0.4,0,0.8,0,1.2,0c16.5,0,32.9,0,49.4,0c1.9,0,3.7,0,5.6,0
		c0,4.2,0.1,8.4,0.1,12.6c0,2.2,0,4.5,0,6.7c-0.6,0-1.2,0.1-1.7,0.1c-24.6,0-49.3,0-73.9,0c-0.5,0-1,0-1.5-0.1c0-0.7,0-1.4,0-2.1
		c0-4.9,0-9.9,0-14.8c0-2.6,0.2-2.3-2.4-2.3c-3,0-6,0-9,0c-2.6,0-5.3-0.1-7.9,0.1L653.8,315.2z"/>
	<path class="st5" d="M653.8,315.3c2.6-0.2,5.3-0.1,7.9-0.1c3,0,6,0,9,0c2.6,0,2.4-0.3,2.4,2.3c0,4.9,0,9.9,0,14.8
		c0,0.7,0,1.4,0,2.1c-5.9,0-11.8,0-17.7,0c-1.6,0-1.6,0-1.6-1.6C653.8,327,653.8,321.2,653.8,315.3z"/>
	<path class="st0" d="M750.4,469.8c-6,0-11.9,0-17.9,0c-1.5,0-1.5,0-1.5,1.4c0,6,0.1,11.9,0.1,17.9c-19.3,0-38.6,0-58,0c0,0,0,0,0,0
		c0-5.8,0-11.7-0.1-17.5c0-1.8,0-1.8-1.7-1.8c-5.8,0-11.7,0-17.5,0l0,0c0-0.4-0.1-0.9-0.1-1.3c0-12,0-24,0-36c0-0.4,0.1-0.9,0.1-1.3
		l0,0c3.1,0,6.2,0,9.2,0c2.8,0,5.6,0,8.5,0c1.5,0,1.5,0,1.5-1.6c0-0.4,0-0.9,0-1.3c0-5.5,0-10.9,0.1-16.4l0,0c19.3,0,38.6,0,57.9,0
		c0,6.1,0,12.2-0.1,18.3c0,1.1,0.6,1.1,1.3,1.1c6,0,12.1,0,18.1,0c0,0.4-0.1,0.9-0.1,1.3c0,12,0,24,0,36
		C750.3,468.9,750.4,469.3,750.4,469.8z"/>
	<path class="st1" d="M634.6,489.1c5.6,0,11.3,0,16.9,0c0.8,0,1.5-0.1,2.3-0.1c6.4,0,12.9,0,19.3,0.1c0,0,0,0,0,0
		c0,6.4,0,12.8,0,19.2c-3.2,0-6.4,0.1-9.6,0.1c-2.5,0-5,0-7.5,0c-2.5,0-2.2-0.3-2.2,2.3c0,4.9,0,9.9,0,14.8c0,0.4,0,0.9,0,1.3
		c0,0.5-0.2,0.8-0.8,0.8c-0.5,0-1,0-1.5,0c-11.4,0-22.7,0-34.1,0c-0.7,0-1.4,0-2.1,0c-5.7,0-11.5,0-17.2-0.1c-0.7,0-1.4,0-2.1,0
		c0-6.4,0-12.8,0-19.3c0,0,0,0,0,0c12.1,0,24.2,0,36.3,0c2.5,0,2.3,0.2,2.3-2.3C634.5,500.5,634.5,494.8,634.6,489.1z"/>
	<path class="st11" d="M711.7,547c0-12.8,0-25.7,0-38.5c6.4,0,12.9,0,19.3-0.1c0,12.9,0,25.7,0,38.6C724.6,547,718.2,547,711.7,547z
		"/>
	<path class="st7" d="M595.8,179.9c0-4.8,0.1-9.7,0.1-14.5c0-1.6,0-3.2,0-4.8c8.1,0,16.2,0,24.3,0c4.6,0,9.3,0,13.9,0
		c0.5,0.7,0.4,1.5,0.4,2.2c0,5.7,0,11.4,0,17.1c0,0,0,0,0,0C621.6,180,608.7,179.9,595.8,179.9z"/>
	<path class="st10" d="M634.6,180c0-5.7,0-11.4,0-17.1c0-0.8,0.1-1.5-0.4-2.2c0.1-0.1,0.2-0.1,0.3-0.1c6.5,0,12.9,0,19.4,0.1
		c0,6.4,0,12.8,0,19.3C647.4,179.9,641,180,634.6,180z"/>
	<path class="st10" d="M557.3,257.3c-5.7,0-11.4,0-17.2,0c-0.7,0-1.4,0-2.1,0c0-12.9,0-25.7,0-38.6c6.4,0,12.8,0,19.2,0
		c3.3,0,6.6,0,9.8,0c3.1,0,6.3,0.1,9.4-0.1c0,0,0.1,0.1,0.1,0.1c0,0.8-0.1,1.5-0.1,2.3c0,11.2,0,22.5,0,33.7c0,0.4,0,0.9,0,1.3
		c0.1,0.9-0.3,1.3-1.2,1.2c-1.8,0-3.6,0-5.4,0C565.7,257.3,561.5,257.3,557.3,257.3z"/>
	<path class="st10" d="M595.9,199.3c0,5.5,0,11.1-0.1,16.6c0,0.5,0,1,0,1.5c0.1,1-0.4,1.2-1.3,1.2c-3.2,0-6.3,0-9.5,0
		c-2.8,0-5.7,0-8.5,0c0,0-0.1-0.1-0.1-0.1c0-5.9,0-11.8,0.1-17.7c0-0.5-0.1-1-0.4-1.5c0.1-0.1,0.2-0.1,0.3-0.1
		C583,199.3,589.4,199.3,595.9,199.3z"/>
	<path class="st7" d="M576.2,199.3c0.3,0.4,0.4,0.9,0.4,1.5c0,5.9-0.1,11.8-0.1,17.7c-3.1,0.2-6.3,0.1-9.4,0.1c-3.3,0-6.6,0-9.8,0
		c0-6.4,0-12.9,0.1-19.3C563.6,199.3,569.9,199.3,576.2,199.3z"/>
	<path class="st7" d="M595.9,199.3c-6.5,0-13,0-19.5,0c0-4.3,0.1-8.7,0.1-13c0-2.1,0-4.2,0-6.3c6.3,0,12.6,0,18.9,0.1
		c0.5,0.7,0.4,1.5,0.4,2.2C595.9,187.9,595.9,193.6,595.9,199.3C595.9,199.3,595.9,199.3,595.9,199.3z"/>
	<path class="st10" d="M595.9,199.3c0-5.7,0-11.4,0-17.1c0-0.8,0.1-1.5-0.4-2.2c0.1-0.1,0.2-0.1,0.3-0.1c12.9,0,25.8,0,38.8,0
		c0,5.6,0,11.2-0.1,16.8c0,0.5,0,1,0,1.5c0,0.7-0.3,1.1-1,1c-0.2,0-0.4,0-0.6,0C620.6,199.3,608.3,199.3,595.9,199.3z"/>
	<path class="st0" d="M692.3,238c0.6,0,1.3-0.1,1.9-0.1c11.6,0,23.1,0,34.7,0c0.1,0,0.1,0,0.2,0c2.1,0,1.9-0.2,1.9,1.8
		c0,0.3,0,0.6,0,1c0,11.3,0,22.5,0,33.8c0,0.7,0.1,1.4,0.1,2.1c0,5.8,0,11.6,0,17.3c0,1.9,0,2-1.9,2c-5.8,0-11.7,0-17.5,0
		c0-12.4,0-24.7,0-37.1c0-1.6,0.1-1.5-1.6-1.5c-5.9,0-11.7,0-17.6,0l0,0c-0.2-3.9,0-7.8-0.1-11.7C692.4,243,692.5,240.5,692.3,238z"
		/>
	<path class="st9" d="M711.7,295.9c5.8,0,11.7,0,17.5,0c1.8,0,1.9,0,1.9-2c0-5.8,0-11.6,0-17.3c6.4,0,12.9,0,19.3-0.1
		c0,2-0.1,4-0.1,6c0,10.2,0,20.3,0,30.5c0,0.7,0,1.4-0.1,2.1c-1.9,0-3.7,0-5.6,0c-16.5,0-32.9,0-49.4,0c-0.4,0-0.8,0-1.2,0
		c-1.7,0-1.7,0-1.7-1.7c0-5.9,0-11.7,0-17.6c0,0,0,0,0,0C698.9,295.9,705.3,295.9,711.7,295.9z"/>
	<path class="st2" d="M634.4,276.5c-4.3,0-8.6,0.1-12.9,0.1c-1.4,0-2.8,0-4.2,0c-2.2,0-2.1-0.1-2.1,2.1c0,5.8,0,11.6-0.1,17.3
		c-5.7,0-11.3,0-17-0.1c-2.6,0-2.3,0.3-2.3-2.2c0-11.4,0-22.8,0-34.2c0-0.3,0-0.5,0-0.8c0-1.4,0-1.5,1.5-1.5c5.2,0,10.4,0,15.6,0
		c0.5,0,0.9,0,1.4,0c0.6,0,0.8-0.3,0.8-0.8c0-0.5,0-0.9,0-1.4c0-5.2,0-10.4,0-15.6c0-0.8-0.2-1.5,1.1-1.5c6,0.1,12.1,0.1,18.1,0.1
		c0,0.2,0.1,0.4,0.1,0.6C634.5,251.2,634.5,263.9,634.4,276.5z"/>
	<path class="st0" d="M634.4,276.5c0-12.6,0-25.2,0-37.9c0-0.2,0-0.4-0.1-0.6c0.4,0,0.9-0.1,1.3-0.1c12,0,24,0,36,0
		c0.5,0,1,0.1,1.5,0.1c0,0.7-0.1,1.4-0.1,2.1c0,5.7,0,11.4-0.1,17.2c-5.9,0-11.8-0.1-17.7-0.1c-1.6,0-1.5-0.1-1.5,1.6
		c0,9.6,0,19.2,0,28.8c0,2.8,0,5.5,0.1,8.3c0,0-0.1-0.1-0.1-0.1s-0.1,0-0.1,0c-5.8,0-11.7,0-17.5,0c-1.6,0-1.6,0-1.6-1.7
		c0-5.1,0-10.3,0-15.4C634.5,278,634.5,277.2,634.4,276.5z"/>
	<path class="st10" d="M711.7,160.7c5.6,0,11.3,0,16.9,0c0.8,0,1.5,0,2.3-0.1c0,6.4,0,12.9,0.1,19.3c-6.5,0-12.9,0-19.4,0
		C711.7,173.5,711.7,167.1,711.7,160.7z"/>
	<path class="st0" d="M711.7,160.7c0,6.4,0,12.8,0,19.2c-6.4,0-12.8,0-19.2,0c0-6.4,0-12.9,0-19.3
		C698.9,160.7,705.3,160.7,711.7,160.7z"/>
	<path class="st13" d="M653.8,179.9c0-6.4,0-12.8,0-19.3c5.7,0,11.4,0,17.1,0c0.7,0,1.4,0,2.1,0c0,5,0.1,10,0.1,14.9
		c0,1.5,0,2.9,0,4.4C666.7,179.9,660.3,179.9,653.8,179.9z"/>
	<path class="st2" d="M673.1,257.3c0-5.7,0-11.4,0.1-17.2c0-0.7,0.1-1.4,0.1-2.1c3.6-0.2,7.2-0.1,10.8-0.1c2.8,0,5.5,0,8.3,0.1
		c0.2,2.5,0.1,5,0.1,7.5c0.1,3.9-0.1,7.8,0.1,11.7C686,257.2,679.6,257.2,673.1,257.3C673.1,257.3,673.1,257.3,673.1,257.3z"/>
	<path class="st1" d="M634.5,431.1c-5.9,0-11.8,0-17.7,0c-1.6,0-1.6,0-1.6-1.6c0-5.9,0-11.8,0-17.8c6.4,0,12.9,0,19.3,0c0,0,0,0,0,0
		C634.5,418.2,634.5,424.7,634.5,431.1z"/>
	<path class="st10" d="M634.5,431.1c0-6.5,0-12.9,0-19.4c5.7,0,11.3,0,17,0c0.8,0,1.5,0,2.3,0.1c0,6.4,0,12.8,0.1,19.3c0,0,0,0,0,0
		C647.4,431.1,641,431.1,634.5,431.1L634.5,431.1z"/>
	<path class="st5" d="M653.8,431.1c0-6.4,0-12.8-0.1-19.3c5.2,0,10.5,0,15.7-0.1c1.2,0,2.4,0,3.6,0c0,5.5,0,10.9-0.1,16.4
		c0,0.4,0,0.9,0,1.3c0,1.6,0,1.6-1.5,1.6c-2.8,0-5.6,0-8.5,0C660,431.1,656.9,431.1,653.8,431.1z"/>
	<path class="st6" d="M595.9,508.4c0,6.4,0,12.8,0,19.3c-5.9,0-11.8,0-17.7,0c-1.6,0-1.6,0-1.6-1.8c0-5.8,0-11.7,0-17.5
		C583,508.4,589.5,508.4,595.9,508.4z"/>
	<path class="st5" d="M634.5,431.1c6.5,0,12.9,0,19.4,0c0,0.4-0.1,0.9-0.1,1.3c0,12,0,24,0,36c0,0.4,0.1,0.9,0.1,1.3
		c-5.8,0-11.7,0-17.5,0c-1.8,0-1.8,0-1.8-1.8C634.5,455.7,634.5,443.4,634.5,431.1z"/>
	<path class="st5" d="M673.1,489.1c-6.4,0-12.9,0-19.3-0.1c0-6.4,0-12.9,0-19.3c5.8,0,11.7,0,17.5,0c1.7,0,1.7,0,1.7,1.8
		C673.1,477.4,673.1,483.2,673.1,489.1z"/>
	<path class="st4" d="M653.8,295.9c0-2.8-0.1-5.5-0.1-8.3c0-9.6,0-19.2,0-28.8c0-1.7-0.1-1.6,1.5-1.6c5.9,0,11.8,0.1,17.7,0.1
		c0,0,0-0.1,0-0.1c0,12.9,0,25.7,0,38.6C666.7,295.9,660.3,295.9,653.8,295.9z"/>
	<path class="st9" d="M673.1,295.9c0-12.9,0-25.7,0-38.6c6.5,0,12.9,0,19.4-0.1c0,0,0,0,0,0c0,0.7-0.1,1.4-0.1,2.1
		c0,5.6,0,11.2,0,16.7c0,6.6,0,13.2,0,19.8c0,0,0,0,0,0C686,295.9,679.5,295.9,673.1,295.9z"/>
	<path class="st4" d="M692.4,295.9c0-6.6,0-13.2,0-19.8c0-5.6,0-11.2,0-16.7c0-0.7,0.1-1.4,0.1-2.1c5.9,0,11.7,0,17.6,0
		c1.7,0,1.6-0.1,1.6,1.5c0,12.4,0,24.7,0,37.1C705.3,295.9,698.9,295.9,692.4,295.9z"/>
</g>
</svg>
