<?xml version="1.0" encoding="UTF-8"?><svg xmlns="http://www.w3.org/2000/svg" viewBox="0 0 882.82 882.82"><defs><style>.d{fill:#fff;}.e{fill:#e86b17;}</style></defs><g id="a"/><g id="b"><g id="c"><g><rect class="e" width="882.82" height="882.82" rx="40" ry="40"/><path class="d" d="M730.72,438.84c0,28.69,.49,57.38-.14,86.06-.59,26.56-.94,53.22-6.89,79.34-6.95,30.54-20.46,57.52-43.23,79.47-19.52,18.81-42.67,30.98-68.77,37.82-16.51,4.32-33.32,6.45-50.35,7.26-69.01,3.3-138.05,1.67-207.08,1.5-26.68-.06-53.5-.83-79.76-6.82-29.91-6.82-56.53-19.91-78.24-41.94-22.71-23.04-35.79-51.02-42.04-82.54-4.1-20.7-5.07-41.65-5.26-62.62-.51-56.62-1.16-113.24-.62-169.86,.28-29.18,0-58.55,5.92-87.42,5.46-26.62,15.41-51.18,33-72.24,19.18-22.97,43.12-38.79,71.71-47.65,20.05-6.21,40.58-9.5,61.53-9.71,66.22-.68,132.43-1.59,198.65-1.44,25.2,.05,50.51,.49,75.53,4.97,32.97,5.9,62.47,18.63,86.63,42.4,26.15,25.72,40.15,57.46,44.86,93.33,2.24,17.09,3.37,34.41,3.66,51.66,.56,32.8,.16,65.62,.16,98.44h.72Zm-51.23,.67h-.81c0-33.84,.26-67.69-.13-101.53-.16-13.7-.98-27.49-2.81-41.07-3.29-24.39-11.96-46.57-29.83-64.39-16.7-16.65-37.24-25.87-60.11-28.82-20.89-2.7-42.07-4.34-63.13-4.38-66.65-.11-133.32-1.88-199.96,1.33-15.41,.74-30.63,2.26-45.51,6.48-17.43,4.94-32.67,13.65-45.37,26.61-15.01,15.3-22.99,34.15-27.22,54.81-4.56,22.28-4.84,44.98-4.99,67.51-.41,58.97,.09,117.96,.64,176.93,.15,15.78,.95,31.64,2.88,47.28,3.1,25.21,12.02,48.08,30.69,66.29,16.41,16.01,36.49,24.89,58.7,27.89,20.29,2.74,40.87,4.37,61.34,4.47,64.45,.3,128.9-.1,193.34-.82,14.55-.16,29.22-1.85,43.56-4.39,20.58-3.64,39.09-12.21,54.32-27.13,15.79-15.46,24.6-34.45,29.09-55.74,4.85-23,4.59-46.43,5.15-69.72,.66-27.19,.15-54.4,.15-81.61Z"/><path class="d" d="M588.83,439.25c0,82.42-66.87,149.42-149.34,149.25-82.83-.17-149.51-66.48-149.32-149.66,.19-82.92,66.87-149.56,150.42-149,82.99,.56,148.11,67.45,148.24,149.41Zm-51.25,.14c.09-54-43.77-98.26-97.5-98.39-53.98-.13-98.63,43.84-98.77,97.25-.14,54.37,43.62,98.86,97.39,99.02,54.64,.16,98.79-43.54,98.89-97.88Z"/><path class="d" d="M595.2,317.93c-19.07,.02-34.44-15.25-34.54-34.34-.1-18.84,15.52-34.56,34.4-34.62,18.83-.06,34.55,15.64,34.54,34.49-.01,19.07-15.36,34.45-34.4,34.47Z"/></g></g></g></svg>