<?xml version="1.0" encoding="UTF-8"?><svg xmlns="http://www.w3.org/2000/svg" viewBox="0 0 882.82 882.82"><defs><style>.d{fill:#fff;}.e{fill:#e86b17;}</style></defs><g id="a"/><g id="b"><g id="c"><g><rect class="e" width="882.82" height="882.82" rx="40" ry="40"/><path class="d" d="M473.29,732.81h-123.35V303.81h122.94v49.1c12.7-32.78,39.44-44.89,70.76-47.43,24.22-1.96,49.17-2.45,73.09,1.11,44.07,6.56,71.74,34.37,86.19,75.98,10.34,29.78,14.52,60.78,14.86,91.91,.92,83.83,.41,167.67,.45,251.51,0,1.88-.27,3.76-.47,6.45h-123.57v-11.87c0-76.19,.12-152.37-.16-228.56-.03-9.12-1.31-18.48-3.64-27.3-5.45-20.66-20.01-32.36-40.6-35.41-10.82-1.6-22.23-1.38-33.11,.01-21.47,2.76-37.75,19.3-41.27,40.76-1.33,8.13-2.02,16.46-2.03,24.7-.15,74.91-.09,149.82-.09,224.74v13.31Z"/><path class="d" d="M288.67,732.69h-122.3V303.99h122.3v428.7Z"/><path class="d" d="M165.48,211.98c0-35.34,26.8-62,62.3-61.97,35.21,.03,61.83,26.97,61.77,62.52-.05,35.06-27.14,61.6-62.8,61.52-34.57-.08-61.27-27.12-61.27-62.07Z"/></g></g></g></svg>