<?xml version="1.0" encoding="UTF-8"?><svg xmlns="http://www.w3.org/2000/svg" viewBox="0 0 882.82 882.82"><defs><style>.d{fill:#fff;}.e{fill:#e86b17;}</style></defs><g id="a"/><g id="b"><g id="c"><g><rect class="e" width="882.82" height="882.82" rx="40" ry="40"/><path class="d" d="M437.94,644.73c-61.25,0-122.52,1.09-183.73-.31-57.83-1.32-103.77-47.61-104.9-105.7-1.3-67.31-1.33-134.69,.01-202,1.16-58.48,47.29-104.47,106.05-105.66,70.17-1.42,140.4-.57,210.6-.58,52.29,0,104.61-.85,156.87,.54,59.25,1.57,105.01,47.58,106.04,106.85,1.16,66.6,1.17,133.25,0,199.85-1.05,59.26-46.77,105.38-106.12,106.74-61.57,1.41-123.2,.31-184.81,.31v-.05Zm-73.66-294.46v175.01c50.61-29.45,99.79-58.07,150.42-87.53-50.9-29.6-99.92-58.11-150.42-87.48Z"/></g></g></g></svg>