<?xml version="1.0" encoding="UTF-8"?><svg xmlns="http://www.w3.org/2000/svg" viewBox="0 0 882.82 882.82"><defs><style>.d{fill:#fff;}.e{fill:#e86b17;}</style></defs><g id="a"/><g id="b"><g id="c"><g><rect class="e" width="882.82" height="882.82" rx="40" ry="40"/><path class="d" d="M348.85,733.85c12.79-4.34,17.22-13.67,16.92-26.63-.55-23.92-.53-47.84-.78-71.77-.02-1.87-.25-3.75-.31-4.55-17.04,.33-33.68,1.44-50.26,.78-20.35-.81-40.23-4.93-55.38-19.94-6.46-6.4-11.48-14.51-16.16-22.42-7.15-12.08-12.49-25.33-20.42-36.82-5.39-7.8-13.89-13.47-21.04-20.04-3.85-3.54-8.32-6.56-11.56-10.58-5.69-7.06-3.74-10.91,5.49-11.99,10.81-1.26,20.85,1.29,30.42,6.26,15.29,7.94,27.02,19.43,35.66,34.33,6.44,11.11,15.03,20.28,25.85,27.42,19.07,12.58,39.59,10.29,60.33,6.34,1.87-.36,3.68-1.05,5.54-1.47,8.85-1.95,14.26-6.12,15.59-16.3,1.66-12.7,7.82-23.96,16.68-33.5,1.09-1.18,2-2.54,3.12-3.97-14.28-2.63-28.29-4.49-41.92-7.87-38.06-9.45-72.08-26-94.92-59.55-16.33-24-24.26-51.3-27.57-79.86-2.73-23.57-3.54-47.18,2.06-70.6,5.16-21.58,14.79-40.83,29.41-57.46,3.25-3.7,3.82-6.73,2.21-11.39-10.36-29.96-6.4-59.37,4.5-88.27,.68-1.8,3.97-3.9,5.84-3.73,8.96,.85,18.24,1.24,26.69,3.98,22.32,7.26,43.69,16.87,63.12,30.26,4.45,3.07,8.45,3.93,13.92,2.54,56.74-14.41,113.53-14.08,170.37-.15,3.6,.88,8.62,.02,11.76-1.96,20.71-13.07,42.31-24.19,65.68-31.65,26.04-8.31,29.97-6.19,36.82,19.68,6.26,23.64,6.63,47.16-1.38,70.62-.85,2.48-.1,6.71,1.59,8.68,24.59,28.61,34.96,61.92,34.2,99.28-.51,25.01-3.87,49.41-11.57,73.33-12.77,39.64-38.99,66.48-76.33,83.66-22,10.12-45.16,15.28-68.93,18.5-3.07,.42-6.12,.91-10.24,1.52,2.31,2.64,4.13,4.63,5.84,6.71,10.74,13.01,16.62,28.29,17.1,44.8,1.07,36.57,.93,73.18,1.28,109.77,.07,7.42-.11,14.84,.16,22.25,.51,13.43,3.43,16.93,16.33,20.53,.9,.25,1.7,.81,2.55,1.23h-218.28Zm-67.64-153.02c-4.6-3.53-7.52-6.46-11.04-8.04-1-.45-3.77,3.02-5.72,4.69,3.11,2.86,6.02,6.03,9.51,8.31,.71,.47,3.6-2.39,7.26-4.96Zm44.81,25.87c3.74-3.39,6.19-5.59,8.63-7.8-2.24-1.79-4.3-4.7-6.77-5.11-3.5-.59-8.45-.13-8.21,5.08,.1,2.24,3.38,4.33,6.36,7.84Zm-30.49-20.55c-2.78,3.58-4.41,5.67-6.03,7.76,3.32,2.09,6.46,4.68,10.07,5.95,.98,.34,3.36-3.28,5.09-5.08-2.62-2.48-5.24-4.96-9.12-8.62Zm60.07,1.41c-3.4,3.44-5.76,5.84-8.13,8.24,2.04,1.77,4.65,5.36,6.02,4.94,3.35-1.03,6.12-3.92,9.12-6.06-1.91-1.94-3.82-3.89-7.01-7.13Zm-94.24-27.33c-3.61-3.46-6.2-6.25-9.23-8.43-.32-.23-4.83,4.13-4.59,4.5,2.08,3.15,4.66,6.04,7.54,8.5,.37,.31,3.26-2.33,6.28-4.56Zm-15-20.15c-3.92-3.09-6.38-5.36-9.22-6.97-.52-.29-2.55,2.07-3.88,3.2,2.19,2.57,4.21,5.35,6.74,7.52,.45,.38,3.06-1.75,6.36-3.75Zm-27.13-19.45c-.43,1.47-.86,2.93-1.3,4.4,2.92,.85,5.83,1.71,8.75,2.56,.33-1.41,1.15-3.95,.9-4.06-2.69-1.19-5.54-1.99-8.35-2.9Z"/></g></g></g></svg>