<?xml version="1.0" encoding="UTF-8"?><svg xmlns="http://www.w3.org/2000/svg" viewBox="0 0 882.82 882.82"><defs><style>.d{fill:#fff;}.e{fill:#e86b17;}</style></defs><g id="a"/><g id="b"><g id="c"><g><rect class="e" width="882.82" height="882.82" rx="40" ry="40"/><path class="d" d="M547.5,604.77c34.3-12.39,64.26-26.59,84.89-55.32-3.06,1.7-6.16,3.33-9.17,5.12-56.23,33.38-116.64,51.61-182.43,49.06-53.93-2.09-105.14-16.6-155.17-35.84-12.3-4.73-24.38-10.02-39.08-16.09,22.53,28.77,51.45,43.37,84.34,55.54-10.73,12.86-20.22,24.49-30.1,35.79-1.32,1.51-4.62,1.9-6.95,1.8-54-2.29-101.38-19.66-137.25-61.87-3.8-4.47-6.2-11.74-6.1-17.65,1.61-93.52,26.76-180.97,69.28-263.79,1.62-3.16,4.37-6.14,7.3-8.18,38.15-26.53,79.82-43.65,126.66-46.58,3.13-.2,6.32,.36,9.73,2.77-21.21,7.79-42.67,14.95-63.56,23.53-21.22,8.72-40.94,20.33-58.23,36.24,130.76-57.86,261.12-56.96,391.92,2.43-4.96-8.71-24-21.5-53.49-34.86-19.39-8.78-39.46-16.05-59.95-26.5,3.81-1.02,7.67-3.09,11.42-2.91,24.39,1.23,47.75,7.29,70.32,16.39,52.54,21.2,59.74,28.09,81.94,79.97,29.18,68.18,46.32,139.21,50.19,213.4,.57,10.99-2.05,19.15-10.24,27.12-38.6,37.59-85.37,55.05-138.3,58.13-2.59,.15-6.27-.27-7.74-1.93-9.79-11.05-19.13-22.51-30.24-35.79Zm-67.04-130.38c.22,29.46,23.93,53.65,52.18,53.25,28.18-.4,51.4-25.06,51.25-54.43-.15-28.7-23.9-53.29-51.42-53.22-28.86,.07-52.24,24.53-52.02,54.41Zm-80.38-.43c.09-29.41-22.34-53.49-50.27-53.96-28.71-.48-52.84,23.93-52.98,53.59-.13,29.19,23.53,53.97,51.61,54.04,28.46,.07,51.54-23.91,51.63-53.68Z"/></g></g></g></svg>