<?xml version="1.0" encoding="UTF-8"?><svg xmlns="http://www.w3.org/2000/svg" viewBox="0 0 882.82 882.82"><defs><style>.d{fill:#fff;}.e{fill:#e86b17;}</style></defs><g id="a"/><g id="b"><g id="c"><g><rect class="e" width="882.82" height="882.82" rx="40" ry="40"/><path class="d" d="M402.81,528.11c-7.01,27.14-14.04,52.91-20.28,78.87-10.62,44.15-34.1,81.47-61.05,117.02-1.45,1.91-4.25,2.78-6.42,4.14-1.44-2.7-3.72-5.27-4.19-8.13-8.69-52.94-4.61-104.97,9.18-156.82,12.24-46,22.28-92.59,32.93-139.01,1.07-4.64,.67-10.2-.83-14.76-10.15-30.95-11.03-61.57,2.14-91.86,5.65-12.99,14.11-23.94,26.24-31.55,15.89-9.97,32.77-12.33,49.89-3.77,17.02,8.51,23.93,24.32,23.34,41.95-.54,16.07-3.93,32.25-7.82,47.95-5.58,22.5-12.63,44.65-19.28,66.88-6.28,21.01-4.24,40.32,12.41,55.84,17.43,16.25,38.31,17.7,60.1,11.1,18.65-5.65,32.51-18.11,43.94-33.4,20.79-27.8,30.66-59.94,35.69-93.69,3.66-24.5,5.9-49.19,.89-73.85-9.9-48.81-39.2-80.28-86.95-92.94-52.72-13.97-103.13-7.76-148.4,24.47-48.76,34.71-74.62,101.44-60.11,156.45,3.43,13,11.98,24.65,18.13,36.94,1.97,3.95,5.9,8.3,5.32,11.89-1.98,12.43-4.74,24.89-8.82,36.79-2.58,7.54-9.61,8.03-16.74,4.9-24.71-10.88-42.33-29.11-52.48-53.7-24.96-60.45-18.46-118.97,15.09-174.12,36.34-59.73,91.59-92.08,159.49-103.42,55.57-9.28,109.46-4.14,159.87,23.3,68.97,37.55,106.4,108.73,99.42,186.76-3.9,43.59-13.75,85.14-37.1,122.58-27.75,44.5-66.32,73.61-119.33,81.03-40.58,5.67-76.05-3.53-104.26-37.84Z"/></g></g></g></svg>