<?xml version="1.0" encoding="utf-8"?>
<!-- Generator: Adobe Illustrator 26.1.0, SVG Export Plug-In . SVG Version: 6.00 Build 0)  -->
<svg version="1.1" id="Calque_1" xmlns="http://www.w3.org/2000/svg" xmlns:xlink="http://www.w3.org/1999/xlink" x="0px" y="0px"
	 viewBox="0 0 1000 725.6" style="enable-background:new 0 0 1000 725.6;" xml:space="preserve">
<style type="text/css">
	.st0{fill:#E86B18;}
	.st1{fill:#FFFFFF;}
	.st2{fill:#061428;}
</style>
<g>
	<path class="st0" d="M454,465.7H101.4c-14.6,0-26.5-11.9-26.5-26.5V86.6c0-14.6,11.9-26.5,26.5-26.5H454
		c14.6,0,26.5,11.9,26.5,26.5v352.6C480.5,453.8,468.6,465.7,454,465.7z"/>
</g>
<path class="st1" d="M232.1,309.6l-26,79h-33.7L258,137.2h39.1L383,388.7h-34.7l-26.9-79H232.1z M314.7,284.2l-24.9-72.4
	c-5.5-16.5-9.2-31.4-13-45.9H276c-3.6,14.7-7.5,30.1-12.5,45.4l-24.8,72.8H314.7z"/>
<path class="st2" d="M906,465.7H540.5c-11,0-20-9-20-20V80.1c0-11,9-20,20-20H906c11,0,20,9,20,20v365.6
	C926,456.7,917.1,465.7,906,465.7z"/>
<g>
	<path class="st1" d="M651.8,140.5c14.4-3.1,36.8-5.4,59.3-5.4c32.6,0,53.4,5.5,69,18.2c13,9.9,21,24.8,21,44.5
		c0,24.3-16.2,45.7-42.5,55.1v1c23.9,5.8,51.9,25.5,51.9,63.1c0,21.5-8.5,38.1-21.5,50.1c-17.3,16.3-45.6,23.6-86.8,23.6
		c-22.5,0-39.5-1.6-50.4-2.8V140.5z M684.3,243.5h29.8c34,0,54.1-18.1,54.1-42.5c0-29.2-22.1-41-55-41c-15.1,0-23.6,1.1-28.9,2.3
		V243.5z M684.3,363.8c6.6,1.3,15.6,1.7,27.4,1.7c33.7,0,64.7-12.3,64.7-48.9c0-34.2-29.6-48.5-65.1-48.6h-27V363.8z"/>
</g>
<path class="st2" d="M124.5,615.9v-68.1c0-17.2,12.7-29.1,31.5-29.1s31.5,11.9,31.5,29.1v14.4h-19.7v-14.4c0-7.2-4.7-11.6-11.6-11.6
	c-6.8,0-11.6,4.4-11.6,11.6v68.1c0,7.2,4.7,11.6,11.6,11.6c6.8,0,11.6-4.4,11.6-11.6v-17.6h19.7v17.6c0,17.2-12.7,29.1-31.5,29.1
	S124.5,633.1,124.5,615.9z"/>
<path class="st2" d="M366,520.4h31.5c19.2,0,31.5,11.6,31.5,29.3V614c0,17.7-12.3,29.3-31.5,29.3H366V520.4z M396.6,625.8
	c7.8,0,12.3-4.2,12.3-11.4v-64.9c0-7.2-4.6-11.4-12.3-11.4h-10.4v87.8H396.6z"/>
<g>
	<path class="st0" d="M590.5,615.4v-95.8h20.1v95.8c0,7.2,4.7,11.2,11.2,11.2c6.5,0,11.2-4,11.2-11.2v-95.8h19.7v95.8
		c0,17.2-12.5,28.8-30.9,28.8C603.4,644.2,590.5,632.6,590.5,615.4z"/>
</g>
<g>
	<path class="st0" d="M834.1,519.6h20.1v122.9h-20.1V519.6z"/>
</g>
</svg>
