<?xml version="1.0" encoding="UTF-8"?><svg xmlns="http://www.w3.org/2000/svg" viewBox="0 0 882.82 882.82"><defs><style>.d{fill:#fff;}.e{fill:#e86b17;}</style></defs><g id="a"/><g id="b"><g id="c"><g><rect class="e" width="882.82" height="882.82" rx="40" ry="40"/><path class="d" d="M384.15,424.56c11.48,7.08,23.08,13.05,33.32,20.8,16.63,12.6,27.22,29.61,28.37,50.77,.83,15.34,.64,30.94-1.24,46.16-2.23,18.02-11.75,32.91-25.51,44.85-21.73,18.86-47,31.27-75.6,31.98-63.93,1.58-127.9,1.11-191.86,1.43-.84,0-1.69-.52-2.88-.91V262.84c2.88,0,5.75,0,8.62,0,58.82,0,117.63,.02,176.45,0,18.84,0,36.66,4.42,53.34,12.97,26.58,13.62,42.28,34.77,43.53,65.31,1.37,33.27-9.38,60.69-38.76,78.9-1.29,.8-2.63,1.5-3.93,2.26-1.28,.75-2.54,1.51-3.84,2.29Zm-156.73,134.9c31.75,0,62.7,1.36,93.49-.37,33-1.86,50.87-23.79,47.94-54.78-2.1-22.24-19.07-39.31-45.04-40.83-31.4-1.83-62.96-.87-94.45-1.07-.5,0-1.01,.59-1.94,1.17v95.89Zm.08-152.84c21.42,0,41.99,.18,62.57-.07,10.27-.13,20.68-.14,30.76-1.78,21.76-3.54,34.53-18.49,34.66-39.04,.13-20.33-11.82-34.67-33.34-39.25-6.16-1.31-12.6-1.72-18.92-1.77-25.07-.19-50.15-.08-75.73-.08v81.99Z"/><path class="d" d="M732.08,508.97h-188.49c-4.75,22.7,9.89,48.91,32.82,59.67,29.23,13.72,64.04,4.83,82.42-21.75,3.83-5.54,7.69-7.23,14.05-7.07,16.64,.42,33.29,.14,50.92,.14-.56,3-.71,5.32-1.43,7.45-14.51,43.02-44.78,68.1-88.85,76.51-50.8,9.7-96.4-.29-131.17-40.82-64.3-74.95-33.52-198.62,64.9-225.87,70.38-19.49,143.57,26.34,159.51,100.21,3.51,16.29,3.54,33.33,5.32,51.54Zm-188.69-46.55h113.78c-4.9-34.15-29.85-56.98-59.67-55.23-29.02,1.71-53.58,26.66-54.11,55.23Z"/><path class="d" d="M672.26,286.99v34.9h-144.86v-34.9h144.86Z"/></g></g></g></svg>