<?xml version="1.0" encoding="UTF-8"?><svg xmlns="http://www.w3.org/2000/svg" viewBox="0 0 1000 1000"><defs><style>.d{fill:#fff;}.e{fill:#e86b17;}</style></defs><g id="a"/><g id="b"><g><rect class="e" x="38.41" y="58.59" width="882.82" height="882.82" rx="40" ry="40"/><g><path class="d" d="M112.55,279.23c-6.19-3.58-10.91-8.77-14.16-15.56-3.26-6.79-4.88-14.95-4.88-24.48v-90.21c0-9.6,1.63-17.8,4.88-24.6,3.25-6.79,7.95-11.98,14.1-15.56,6.14-3.58,13.57-5.37,22.28-5.37s16.15,1.79,22.34,5.37c6.18,3.58,10.88,8.77,14.1,15.56,3.21,6.8,4.82,14.95,4.82,24.48v7.57h-23.44v-7.57c0-4.8-.69-8.91-2.08-12.33-1.38-3.42-3.42-6.02-6.1-7.81-2.69-1.79-5.9-2.69-9.64-2.69s-6.94,.9-9.58,2.69c-2.65,1.79-4.68,4.39-6.1,7.81-1.42,3.42-2.14,7.57-2.14,12.45v90.21c0,4.8,.71,8.91,2.14,12.33,1.42,3.42,3.46,6.02,6.1,7.81,2.64,1.79,5.84,2.69,9.58,2.69s6.96-.89,9.64-2.69c2.69-1.79,4.72-4.39,6.1-7.81,1.38-3.42,2.08-7.53,2.08-12.33v-7.57h23.44v7.57c0,9.52-1.61,17.68-4.82,24.48-3.22,6.8-7.92,11.98-14.1,15.56-6.19,3.58-13.63,5.37-22.34,5.37s-16.03-1.79-22.22-5.37Z"/><path class="d" d="M211.55,279.78c-6.43-3.21-11.31-7.93-14.65-14.16-3.34-6.23-5-13.81-5-22.77v-8.79h23.19v7.93c0,6.43,1.73,11.37,5.19,14.83,3.46,3.46,8.4,5.19,14.83,5.19s11.07-1.71,14.4-5.13c3.34-3.42,5-8.38,5-14.89v-15.5c0-4.31-1.06-7.97-3.17-10.99-2.12-3.01-4.76-5.47-7.93-7.39-3.17-1.91-7.57-4.13-13.18-6.65-.16-.08-.33-.14-.49-.18-.16-.04-.33-.1-.49-.18l-1.71-.73c-7.49-3.42-13.61-6.75-18.37-10.01-4.76-3.25-8.81-7.77-12.15-13.55-3.34-5.78-5-13.1-5-21.97v-10.25c0-8.79,1.65-16.25,4.94-22.4,3.3-6.14,8.16-10.8,14.59-13.98,6.43-3.17,14.24-4.76,23.44-4.76s16.54,1.61,22.77,4.82c6.23,3.22,10.94,7.93,14.16,14.16,3.21,6.23,4.82,13.77,4.82,22.64v9.28h-23.19v-8.3c0-6.51-1.59-11.47-4.76-14.89s-7.77-5.13-13.79-5.13c-6.43,0-11.33,1.63-14.71,4.88-3.38,3.26-5.07,7.89-5.07,13.92v11.11c0,4.48,1.06,8.24,3.17,11.29,2.12,3.05,4.76,5.51,7.93,7.39,3.17,1.87,7.53,4.03,13.06,6.47,.57,.24,1.1,.49,1.59,.73s1.02,.49,1.59,.73c.41,.16,.83,.35,1.28,.55,.45,.2,.87,.39,1.28,.55,7.08,3.17,12.78,6.21,17.09,9.09,4.31,2.89,7.97,7.06,10.99,12.51,3.01,5.45,4.52,12.57,4.52,21.36v16.24c0,8.95-1.65,16.54-4.94,22.77s-8.12,10.95-14.47,14.16-14.08,4.82-23.19,4.82-17.13-1.61-23.56-4.82Z"/><path class="d" d="M314.45,279.78c-6.43-3.21-11.31-7.93-14.65-14.16-3.34-6.23-5-13.81-5-22.77v-8.79h23.19v7.93c0,6.43,1.73,11.37,5.19,14.83,3.46,3.46,8.4,5.19,14.83,5.19s11.07-1.71,14.4-5.13c3.34-3.42,5-8.38,5-14.89v-15.5c0-4.31-1.06-7.97-3.17-10.99-2.12-3.01-4.76-5.47-7.93-7.39-3.17-1.91-7.57-4.13-13.18-6.65-.16-.08-.33-.14-.49-.18-.16-.04-.33-.1-.49-.18l-1.71-.73c-7.49-3.42-13.61-6.75-18.37-10.01-4.76-3.25-8.81-7.77-12.15-13.55-3.34-5.78-5-13.1-5-21.97v-10.25c0-8.79,1.65-16.25,4.94-22.4,3.3-6.14,8.16-10.8,14.59-13.98,6.43-3.17,14.24-4.76,23.44-4.76s16.54,1.61,22.77,4.82c6.23,3.22,10.94,7.93,14.16,14.16,3.21,6.23,4.82,13.77,4.82,22.64v9.28h-23.19v-8.3c0-6.51-1.59-11.47-4.76-14.89s-7.77-5.13-13.79-5.13c-6.43,0-11.33,1.63-14.71,4.88-3.38,3.26-5.07,7.89-5.07,13.92v11.11c0,4.48,1.06,8.24,3.17,11.29,2.12,3.05,4.76,5.51,7.93,7.39,3.17,1.87,7.53,4.03,13.06,6.47,.57,.24,1.1,.49,1.59,.73s1.02,.49,1.59,.73c.41,.16,.83,.35,1.28,.55,.45,.2,.87,.39,1.28,.55,7.08,3.17,12.78,6.21,17.09,9.09,4.31,2.89,7.97,7.06,10.99,12.51,3.01,5.45,4.52,12.57,4.52,21.36v16.24c0,8.95-1.65,16.54-4.94,22.77s-8.12,10.95-14.47,14.16-14.08,4.82-23.19,4.82-17.13-1.61-23.56-4.82Z"/></g></g></g><g id="c"/></svg>