<?xml version="1.0" encoding="UTF-8"?><svg xmlns="http://www.w3.org/2000/svg" viewBox="0 0 1000 1000"><defs><style>.d{fill:#fff;}.e{fill:#e86b17;}</style></defs><g id="a"/><g id="b"><g><rect class="e" x="58.59" y="58.59" width="882.82" height="882.82" rx="40" ry="40"/><g><path class="d" d="M113.68,105.28h23.32v177.49h-23.32V105.28Zm15.5,79.1h54.44v21.97h-54.44v-21.97Zm43.09-79.1h23.19v177.49h-23.19V105.28Z"/><path class="d" d="M217.44,105.28h86.18v21.97h-86.18v-21.97Zm31.49,14.53h23.19v162.96h-23.19V119.81Z"/><path class="d" d="M414.59,105.28h20.39v177.49h-21.24V148.37l2.08,7.81-30.52,97.53h-14.89l-30.4-95.09,2.81-10.25v134.4h-22.09V105.28h21.24l35.89,111.45,36.74-111.45Z"/><path class="d" d="M459.39,105.28h23.19v177.49h-23.19V105.28Zm12.45,155.52h61.28v21.97h-61.28v-21.97Z"/></g></g></g><g id="c"/></svg>