<?xml version="1.0" encoding="UTF-8"?><svg xmlns="http://www.w3.org/2000/svg" viewBox="0 0 1000 1000"><defs><style>.d{fill:#fff;}.e{fill:#e86b17;}</style></defs><g id="a"/><g id="b"><g><rect class="e" x="38.41" y="58.59" width="882.82" height="882.82" rx="40" ry="40"/><g><path class="d" d="M93.51,105.28h23.19v177.49h-23.19V105.28Zm12.82,86.67h33.57c3.17,0,5.92-.73,8.24-2.2s4.09-3.58,5.31-6.35c1.22-2.77,1.83-6.06,1.83-9.89v-27.22c0-3.99-.61-7.4-1.83-10.25-1.22-2.85-2.99-5.02-5.31-6.53-2.32-1.5-5.07-2.26-8.24-2.26h-33.57v-21.97h33.08c8.38,0,15.52,1.59,21.42,4.76,5.9,3.17,10.4,7.81,13.49,13.92,3.09,6.1,4.64,13.43,4.64,21.97v28.2c0,8.38-1.57,15.54-4.7,21.48-3.13,5.94-7.65,10.48-13.55,13.61-5.9,3.13-13,4.7-21.3,4.7h-33.08v-21.97Z"/><path class="d" d="M200.32,105.28h23.32v177.49h-23.32V105.28Zm15.5,79.1h54.44v21.97h-54.44v-21.97Zm43.09-79.1h23.19v177.49h-23.19V105.28Z"/><path class="d" d="M306.52,105.28h23.19v177.49h-23.19V105.28Zm12.82,86.67h33.57c3.17,0,5.92-.73,8.24-2.2s4.09-3.58,5.31-6.35c1.22-2.77,1.83-6.06,1.83-9.89v-27.22c0-3.99-.61-7.4-1.83-10.25-1.22-2.85-2.99-5.02-5.31-6.53-2.32-1.5-5.07-2.26-8.24-2.26h-33.57v-21.97h33.08c8.38,0,15.52,1.59,21.42,4.76,5.9,3.17,10.4,7.81,13.49,13.92,3.09,6.1,4.64,13.43,4.64,21.97v28.2c0,8.38-1.57,15.54-4.7,21.48-3.13,5.94-7.65,10.48-13.55,13.61-5.9,3.13-13,4.7-21.3,4.7h-33.08v-21.97Z"/></g></g></g><g id="c"/></svg>